<?xml version="1.0" encoding="UTF-8"?>
<svg width="180px" height="180px" viewBox="0 0 180 180" version="1.1" xmlns="http://www.w3.org/2000/svg" xmlns:xlink="http://www.w3.org/1999/xlink">
    <!-- Generator: Sketch 49.1 (51147) - http://www.bohemiancoding.com/sketch -->
    <title>BEELDMERK-FOTO-ROZE</title>
    <desc>Created with Sketch.</desc>
    <defs></defs>
    <g id="Page-1" stroke="none" stroke-width="1" fill="none" fill-rule="evenodd">
        <g id="BEELDMERK-FOTO-ROZE">
            <polygon id="Fill-1" fill="#1D3448" points="0 180 180 180 180 0 0 0"></polygon>
            <g id="Group" transform="translate(8.000000, 8.000000)">
                <path d="M164,82 C164,127.287781 127.286783,164 82,164 C36.713217,164 0,127.287781 0,82 C0,36.7122195 36.713217,0 82,0 C127.286783,0 164,36.7122195 164,82" id="Fill-3" fill="#F1B5AE"></path>
                <g id="Group-2" transform="translate(24.000000, 31.000000)" fill="#1D3448">
                    <path d="M2.009,50.15 L2.649,50.15 C3.376,50.15 3.761,49.766 3.761,49.039 L3.761,27.023 L12.353,49.253 C12.567,49.851 12.995,50.15 13.635,50.15 L14.534,50.15 C15.261,50.15 15.646,49.766 15.646,49.039 L15.646,14.021 L54.089,14.021 C54.759,14.021 55.114,13.627 55.114,12.957 L55.114,12.208 C55.114,11.538 54.759,11.183 54.089,11.183 L13.892,11.183 C13.165,11.183 12.78,11.568 12.78,12.294 L12.78,42.926 L4.317,21.123 C4.146,20.525 3.718,20.226 3.076,20.226 L2.009,20.226 C1.282,20.226 0.897,20.611 0.897,21.338 L0.897,49.039 C0.897,49.766 1.282,50.15 2.009,50.15" id="Fill-4"></path>
                    <path d="M26.337,49.039 L26.337,21.338 C26.337,20.611 25.91,20.226 25.183,20.226 L24.371,20.226 C23.644,20.226 23.259,20.611 23.259,21.338 L23.259,49.039 C23.259,49.766 23.644,50.15 24.371,50.15 L25.183,50.15 C25.91,50.15 26.337,49.766 26.337,49.039" id="Fill-5"></path>
                    <path d="M46.132,49.039 L46.132,48.483 C46.132,47.756 45.747,47.372 45.02,47.372 L36.984,47.372 L36.984,36.342 L43.566,36.342 C44.294,36.342 44.678,35.958 44.678,35.231 L44.678,34.718 C44.678,33.991 44.294,33.606 43.566,33.606 L36.984,33.606 L36.984,23.005 L44.893,23.005 C45.619,23.005 46.004,22.62 46.004,21.893 L46.004,21.338 C46.004,20.611 45.619,20.226 44.893,20.226 L35.018,20.226 C34.291,20.226 33.906,20.611 33.906,21.338 L33.906,49.039 C33.906,49.766 34.291,50.15 35.018,50.15 L45.02,50.15 C45.747,50.15 46.132,49.766 46.132,49.039" id="Fill-6"></path>
                    <path d="M54.045,20.226 L53.232,20.226 C52.507,20.226 52.123,20.611 52.123,21.338 L52.123,44.165 C52.123,48.569 54.516,50.492 59.047,50.492 L59.219,50.492 C63.749,50.492 66.143,48.526 66.143,44.165 L66.143,21.338 C66.143,20.611 65.758,20.226 65.033,20.226 L64.22,20.226 C63.494,20.226 63.066,20.611 63.066,21.338 L63.066,43.396 C63.066,46.516 61.997,47.714 59.133,47.714 C56.268,47.714 55.199,46.516 55.199,43.396 L55.199,21.338 C55.199,20.611 54.772,20.226 54.045,20.226" id="Fill-7"></path>
                    <path d="M73.802,20.226 L72.988,20.226 C72.218,20.226 71.835,20.653 71.963,21.423 L76.58,49.125 C76.708,49.766 77.093,50.15 77.777,50.15 L78.759,50.15 C79.401,50.15 79.871,49.851 79.957,49.167 L84.616,26.168 L89.234,49.167 C89.361,49.808 89.833,50.15 90.473,50.15 L91.372,50.15 C92.054,50.15 92.439,49.766 92.568,49.125 L97.184,21.423 C97.314,20.653 96.929,20.226 96.159,20.226 L95.475,20.226 C94.833,20.226 94.406,20.611 94.32,21.294 L90.858,44.336 L86.327,21.209 C86.198,20.568 85.728,20.226 85.086,20.226 L84.232,20.226 C83.591,20.226 83.12,20.568 82.992,21.209 L78.46,44.336 L74.999,21.294 C74.869,20.611 74.484,20.226 73.802,20.226" id="Fill-8"></path>
                    <path d="M114.205,47.372 L106.169,47.372 L106.169,36.342 L112.751,36.342 C113.478,36.342 113.863,35.958 113.863,35.231 L113.863,34.718 C113.863,33.991 113.478,33.606 112.751,33.606 L106.169,33.606 L106.169,23.005 L114.077,23.005 C114.804,23.005 115.189,22.62 115.189,21.893 L115.189,21.338 C115.189,20.611 114.804,20.226 114.077,20.226 L104.203,20.226 C103.476,20.226 103.091,20.611 103.091,21.338 L103.091,49.039 C103.091,49.766 103.476,50.15 104.203,50.15 L114.205,50.15 C114.932,50.15 115.317,49.766 115.317,49.039 L115.317,48.483 C115.317,47.756 114.932,47.372 114.205,47.372" id="Fill-9"></path>
                    <path d="M4.537,75.462 L9.642,75.462 C12.473,75.462 13.989,76.574 13.989,79.05 L13.989,84.358 C13.989,87.391 12.775,88.908 9.642,88.908 L4.537,88.908 L4.537,75.462 Z M4.537,59.993 L9.439,59.993 C12.574,59.993 13.788,61.509 13.788,64.543 L13.788,68.637 C13.788,71.114 12.27,72.226 9.439,72.226 L4.537,72.226 L4.537,59.993 Z M2.211,92.143 L9.439,92.143 C14.799,92.143 17.629,89.312 17.629,85.167 L17.629,79.354 C17.629,76.927 16.769,74.249 13.484,73.742 C16.568,73.439 17.427,70.558 17.427,68.182 L17.427,63.734 C17.427,59.588 14.899,56.758 9.54,56.758 L2.211,56.758 C1.352,56.758 0.897,57.212 0.897,58.072 L0.897,90.828 C0.897,91.688 1.352,92.143 2.211,92.143 Z" id="Fill-10"></path>
                    <path d="M33.81,92.547 L34.013,92.547 C39.371,92.547 42.201,90.222 42.201,85.066 L42.201,58.072 C42.201,57.212 41.746,56.758 40.889,56.758 L39.928,56.758 C39.068,56.758 38.563,57.212 38.563,58.072 L38.563,84.155 C38.563,87.846 37.299,89.262 33.913,89.262 C30.524,89.262 29.26,87.846 29.26,84.155 L29.26,58.072 C29.26,57.212 28.755,56.758 27.896,56.758 L26.935,56.758 C26.077,56.758 25.623,57.212 25.623,58.072 L25.623,85.066 C25.623,90.273 28.453,92.547 33.81,92.547" id="Fill-11"></path>
                    <path d="M64.096,68.889 C64.096,72.58 62.631,73.995 59.244,73.995 L54.544,73.995 L54.544,60.043 L59.244,60.043 C62.631,60.043 64.096,61.459 64.096,65.149 L64.096,68.889 Z M67.736,69.749 L67.736,64.239 C67.736,59.184 64.805,56.758 59.446,56.758 L52.218,56.758 C51.358,56.758 50.903,57.212 50.903,58.072 L50.903,90.828 C50.903,91.688 51.358,92.143 52.218,92.143 L53.178,92.143 C54.038,92.143 54.544,91.688 54.544,90.828 L54.544,77.23 L59.75,77.23 L64.805,91.081 C65.057,91.789 65.564,92.143 66.321,92.143 L67.382,92.143 C68.344,92.143 68.747,91.485 68.444,90.626 L63.289,76.674 C66.17,75.714 67.736,73.439 67.736,69.749 Z" id="Fill-12"></path>
                    <path d="M89.226,60.043 C90.086,60.043 90.541,59.588 90.541,58.729 L90.541,58.072 C90.541,57.212 90.086,56.758 89.226,56.758 L77.55,56.758 C76.69,56.758 76.235,57.212 76.235,58.072 L76.235,90.828 C76.235,91.688 76.69,92.143 77.55,92.143 L89.378,92.143 C90.237,92.143 90.692,91.688 90.692,90.828 L90.692,90.171 C90.692,89.312 90.237,88.858 89.378,88.858 L79.875,88.858 L79.875,75.815 L87.658,75.815 C88.518,75.815 88.973,75.36 88.973,74.501 L88.973,73.894 C88.973,73.035 88.518,72.58 87.658,72.58 L79.875,72.58 L79.875,60.043 L89.226,60.043" id="Fill-13"></path>
                    <path d="M114.002,56.1 L113.243,56.1 C112.384,56.1 111.929,56.555 111.929,57.415 L111.929,83.6 L101.921,57.819 C101.718,57.111 101.213,56.758 100.454,56.758 L99.191,56.758 C98.332,56.758 97.877,57.212 97.877,58.072 L97.877,98.348 L1.922,98.348 C1.252,98.348 0.897,98.703 0.897,99.373 L0.897,100.122 C0.897,100.792 1.252,101.186 1.922,101.186 L100.112,101.186 C100.465,101.186 100.724,101.071 100.897,100.87 C101.134,100.649 101.263,100.318 101.263,99.872 L101.263,64.796 L111.423,91.081 C111.677,91.789 112.182,92.143 112.94,92.143 L114.002,92.143 C114.862,92.143 115.317,91.688 115.317,90.828 L115.317,57.415 C115.317,56.555 114.862,56.1 114.002,56.1" id="Fill-14"></path>
                    <path d="M63.545,13.871 L68.343,13.871 C68.662,13.871 68.831,13.702 68.831,13.383 L68.831,13.196 C68.831,12.878 68.662,12.709 68.343,12.709 L64.369,12.709 L64.369,11.19 C64.369,10.159 65.063,9.484 66.356,8.416 C67.706,7.31 68.831,6.504 68.831,5.154 L68.831,3.299 C68.831,1.462 67.856,0.6 65.982,0.6 L65.944,0.6 C64.07,0.6 63.095,1.462 63.095,3.299 L63.095,4.705 C63.095,5.023 63.263,5.193 63.582,5.193 L63.9,5.193 C64.219,5.193 64.388,5.023 64.388,4.705 L64.388,3.524 C64.388,2.306 64.894,1.762 65.925,1.762 C66.956,1.762 67.518,2.306 67.518,3.524 L67.518,5.023 C67.518,5.904 66.862,6.411 65.662,7.367 C64.238,8.491 63.057,9.484 63.057,11.152 L63.057,13.383 C63.057,13.702 63.226,13.871 63.545,13.871" id="Fill-15"></path>
                    <path d="M72.992,3.711 C72.992,2.343 73.554,1.818 74.679,1.818 C75.803,1.818 76.366,2.343 76.366,3.711 L76.366,10.909 C76.366,12.277 75.803,12.802 74.679,12.802 C73.554,12.802 72.992,12.277 72.992,10.909 L72.992,3.711 Z M74.604,14.021 L74.754,14.021 C76.609,14.021 77.678,13.121 77.678,11.247 L77.678,3.374 C77.678,1.5 76.609,0.6 74.754,0.6 L74.604,0.6 C72.748,0.6 71.68,1.5 71.68,3.374 L71.68,11.247 C71.68,13.121 72.748,14.021 74.604,14.021 Z" id="Fill-16"></path>
                    <path d="M84.388,13.871 L84.501,13.871 C86.488,13.871 87.631,13.027 87.631,11.097 L87.631,1.237 C87.631,0.919 87.444,0.75 87.144,0.75 L86.769,0.75 C86.451,0.75 86.282,0.919 86.282,1.237 L86.282,10.722 C86.282,12.108 85.719,12.634 84.464,12.634 L84.388,12.634 C84.07,12.634 83.901,12.821 83.901,13.121 L83.901,13.383 C83.901,13.702 84.07,13.871 84.388,13.871" id="Fill-17"></path>
                    <path d="M93.554,2.624 L94.923,9.447 L92.186,9.447 L93.554,2.624 Z M90.537,13.871 L90.856,13.871 C91.155,13.871 91.324,13.739 91.38,13.421 L91.943,10.628 L95.167,10.628 L95.729,13.421 C95.785,13.739 95.972,13.871 96.254,13.871 L96.647,13.871 C96.985,13.871 97.153,13.683 97.097,13.327 L94.473,1.181 C94.417,0.881 94.229,0.75 93.929,0.75 L93.217,0.75 C92.918,0.75 92.73,0.881 92.674,1.181 L90.087,13.327 C90.031,13.683 90.199,13.871 90.537,13.871 Z" id="Fill-18"></path>
                    <path d="M102.609,2.624 L103.977,9.447 L101.24,9.447 L102.609,2.624 Z M99.591,13.871 L99.909,13.871 C100.209,13.871 100.378,13.739 100.434,13.421 L100.997,10.628 L104.221,10.628 L104.783,13.421 C104.839,13.739 105.026,13.871 105.308,13.871 L105.701,13.871 C106.039,13.871 106.208,13.683 106.151,13.327 L103.527,1.181 C103.471,0.881 103.283,0.75 102.984,0.75 L102.271,0.75 C101.971,0.75 101.784,0.881 101.728,1.181 L99.141,13.327 C99.085,13.683 99.253,13.871 99.591,13.871 Z" id="Fill-19"></path>
                    <path d="M110.125,1.968 L111.869,1.968 C113.125,1.968 113.668,2.493 113.668,3.861 L113.668,5.249 C113.668,6.617 113.125,7.142 111.869,7.142 L110.125,7.142 L110.125,1.968 Z M109.263,13.871 L109.619,13.871 C109.938,13.871 110.125,13.702 110.125,13.383 L110.125,8.341 L112.056,8.341 L113.93,13.477 C114.025,13.739 114.212,13.871 114.493,13.871 L114.886,13.871 C115.243,13.871 115.393,13.627 115.28,13.308 L113.368,8.135 C114.437,7.779 115.018,6.936 115.018,5.567 L115.018,3.524 C115.018,1.649 113.93,0.75 111.943,0.75 L109.263,0.75 C108.945,0.75 108.776,0.919 108.776,1.237 L108.776,13.383 C108.776,13.702 108.945,13.871 109.263,13.871 Z" id="Fill-20"></path>
                </g>
            </g>
        </g>
    </g>
</svg>