<?xml version="1.0" encoding="UTF-8"?>
<svg width="157px" height="179px" viewBox="0 0 157 179" version="1.1" xmlns="http://www.w3.org/2000/svg" xmlns:xlink="http://www.w3.org/1999/xlink">
    <!-- Generator: Sketch 49 (51002) - http://www.bohemiancoding.com/sketch -->
    <title>maximus-ride-logo</title>
    <desc>Created with Sketch.</desc>
    <defs>
        <polygon id="path-1" points="0.0324827586 0.0979896552 143.876966 0.0979896552 143.876966 144.680914 0.0324827586 144.680914"></polygon>
        <polygon id="path-3" points="0.505106897 0.502576768 87.0532517 0.502576768 87.0532517 122.319241 0.505106897 122.319241"></polygon>
    </defs>
    <g id="Page-1" stroke="none" stroke-width="1" fill="none" fill-rule="evenodd">
        <g id="maximus-ride-logo">
            <g id="Group-5">
                <mask id="mask-2" fill="white">
                    <use xlink:href="#path-1"></use>
                </mask>
                <g id="Clip-2"></g>
                <path d="M96.9004,52.2528483 C91.4297621,53.2240828 86.9953241,49.5459517 86.9953241,44.0401241 C86.9953241,40.4367034 88.8939414,36.9442655 91.7378069,34.6872552 L95.9291655,42.1810276 C95.3558448,42.9465379 96.7038793,44.1505655 97.5359793,43.0510241 C98.6279414,41.605 96.8765793,41.1469931 96.8765793,41.1469931 C96.6454103,40.5525586 93.5498034,33.5958345 93.5498034,33.5958345 L93.5221931,33.5054241 C94.5773414,32.9331862 95.7142379,32.5217379 96.9004,32.3116828 C102.372121,31.3409897 106.8071,35.0164138 106.8071,40.5238655 C106.8071,46.0302345 102.372121,51.2821552 96.9004,52.2528483 Z M89.2182276,28.3888483 C89.2182276,28.3888483 80.0407655,40.3235552 79.5519,40.6716621 C79.0641172,41.0176034 78.692731,40.5341517 78.692731,40.5341517 C78.692731,40.5341517 77.860631,39.3550276 79.7246,35.3569414 C81.5896517,31.3593966 82.1911241,29.0309241 82.1911241,29.0309241 C82.1911241,29.0309241 87.7851966,27.777631 88.7315276,27.6384966 C89.6778586,27.4993621 89.2182276,28.3888483 89.2182276,28.3888483 Z M77.6440793,29.2664241 L75.709731,26.2763818 C75.709731,26.2763818 79.7744069,26.2688069 79.1095931,26.8848966 C78.4404483,27.502069 77.6440793,29.2664241 77.6440793,29.2664241 Z M75.8163828,38.3399414 L75.6880759,38.3626793 C75.6880759,38.3626793 74.8494793,42.3862103 74.3113483,41.939031 C73.7743,41.4951 73.5799448,40.0355414 73.5799448,40.0355414 L76.5266724,35.0299483 C76.548869,35.4803759 75.8163828,38.3399414 75.8163828,38.3399414 Z M71.5589759,35.6292552 C71.5589759,35.6292552 70.6754448,33.9466483 70.9347655,33.2293207 C71.1924621,32.5136172 72.9357034,31.9424621 72.9357034,31.9424621 L73.6660241,32.9174862 C73.0845828,33.366831 71.5589759,35.6292552 71.5589759,35.6292552 Z M60.4098103,58.7288276 C54.9391724,59.7000621 50.5036517,56.0230138 50.5036517,50.5166448 C50.5036517,45.0091931 54.9391724,39.7583552 60.4098103,38.7876621 C62.2786517,38.4563379 64.0267655,38.6658517 65.5188069,39.3073862 L64.9259966,40.1773828 L60.3665,47.7139241 C58.3877586,47.6024 57.7846621,49.7874069 58.5886103,50.5393828 C59.3909345,51.2929828 60.1938,50.7748828 61.140131,50.5204345 C62.0864621,50.2654448 68.7979414,50.2291724 68.7979414,50.2291724 C69.2429552,50.3390724 69.2240069,51.4023414 69.201269,51.7894276 C67.5516862,55.2769931 64.2351966,58.0499379 60.4098103,58.7288276 Z M62.1438483,46.9938897 L65.8723276,40.4426586 L66.3379138,39.7172103 C67.3881897,40.321931 68.2760517,41.1616103 68.9457379,42.1853586 L68.6263241,42.9562828 C68.3491379,43.7023034 67.0184276,45.8986793 67.0184276,45.8986793 C65.9578655,46.5759448 65.3271586,48.131869 65.3271586,48.131869 C64.2027138,48.3846931 62.8449345,48.1031759 62.6121414,48.0517448 C62.5737034,48.1280793 62.5737034,48.0425414 62.5737034,48.0425414 C62.5737034,48.0425414 62.5899448,48.046331 62.6121414,48.0517448 C62.6408345,47.9959828 62.6895586,47.8508931 62.7756379,47.5163207 C62.9759483,46.7307793 62.1438483,46.9938897 62.1438483,46.9938897 Z M69.4503034,34.7922828 C69.5569552,34.7511379 70.6981828,37.4493724 70.6981828,37.4493724 C70.6981828,37.4493724 70.4832552,38.5386276 70.2120241,39.3019724 C69.5223069,38.5375448 68.7199828,37.8878897 67.8202103,37.3757448 C68.3680862,36.4716414 69.3718034,34.8220586 69.4503034,34.7922828 Z M69.0204483,28.9139862 C69.0204483,28.9139862 71.3435069,30.7097414 71.8383276,30.924669 C71.8383276,30.924669 70.0100897,31.6620276 69.7940793,31.2879345 C69.5786103,30.9160069 69.0204483,28.9139862 69.0204483,28.9139862 Z M76.3978241,16.5770345 C76.3978241,16.5770345 78.6061103,17.2819103 79.179431,16.6614897 C79.7538345,16.0383621 81.0141655,15.5841448 81.0141655,15.5841448 C81.0444828,16.473631 83.5689345,21.1939172 83.5689345,21.1939172 L84.1991,22.8435 C84.1991,22.8435 88.4153621,24.6641586 88.6449069,25.516831 C88.8739103,26.3727517 82.7362931,27.5470034 82.7362931,27.5470034 C82.7362931,27.5470034 83.5115483,25.8508621 83.7118586,24.7486138 C83.9110862,23.6452828 83.2809207,23.3237034 83.2809207,23.3237034 C81.5328069,21.9588862 77.9169345,20.3206724 77.9169345,20.3206724 L77.7166241,20.1533862 C77.1146103,19.7116207 73.5295966,18.7598759 73.5295966,18.7598759 C73.5593724,17.7734828 76.3978241,16.5770345 76.3978241,16.5770345 Z M96.1592517,23.3626828 C96.1592517,23.3626828 95.2345759,23.7681759 94.7901034,23.7665517 C94.3423828,23.765469 93.8800448,23.303131 93.8800448,23.303131 C95.0429276,22.5186724 96.1592517,23.3626828 96.1592517,23.3626828 Z M96.9004,29.7531241 C95.4776552,30.0059483 94.1112138,30.4915655 92.8400552,31.1580034 L92.8113621,31.0573069 C92.8113621,31.0573069 90.746,26.5086379 90.8104241,26.4539586 C90.8743069,26.4003621 90.6810345,25.8059276 91.6695931,26.3234862 C92.6597759,26.8405034 94.1220414,27.1220207 94.1220414,27.1220207 L94.5091276,27.5080241 C94.5091276,27.5080241 94.2942,28.0223345 93.0674345,28.3704414 C91.8428345,28.7174655 92.8303103,30.0795759 94.6612552,28.7142172 C94.6612552,28.7142172 95.6498138,28.0196276 95.8225138,27.8377241 C95.8225138,27.8377241 97.1770448,27.6195483 97.218731,27.5242655 C97.2631241,27.4311483 97.2631241,27.1057793 97.2631241,27.1057793 C97.2631241,27.1057793 97.6502103,27.1458414 97.7151759,27.0251138 C97.7796,26.9060103 97.8645966,26.5665655 97.8212862,26.4875241 C97.7796,26.4079414 98.2516828,26.497269 98.3171897,26.3343138 C98.3810724,26.1724414 98.5326586,26.0143586 98.3599586,25.6121138 C98.3599586,25.6121138 98.7459621,25.5222448 98.7903552,25.3841931 C98.8320414,25.2477655 98.8553207,24.3766862 98.1017207,23.9257172 C98.1017207,23.9257172 97.885169,23.1206862 97.7796,22.9003448 C97.7796,22.9003448 98.7903552,22.3313552 99.1352138,21.2740414 C99.4773655,20.2178103 99.5006448,19.5860207 99.5006448,19.5860207 C99.5006448,19.5860207 99.4134828,19.1458793 99.0042,19.1962276 C99.0042,19.1962276 98.9192034,18.4767345 98.2321931,18.7923586 C97.5419345,19.111231 98.5326586,20.4067517 95.7358931,20.9676207 C95.7358931,20.9676207 94.0576172,20.724 92.8303103,21.7661552 C92.8303103,21.7661552 92.0999897,22.1987172 91.2197069,22.3124069 C91.2197069,22.3124069 88.3790897,20.1517621 86.8518586,19.6434069 C86.8518586,19.6434069 86.9590517,17.9358966 85.7122552,15.3215759 L85.8189069,15.1726966 C85.8189069,15.1726966 85.7122552,13.1771724 85.4101655,11.9092621 C85.4101655,11.9092621 86.0338345,11.2801793 86.3781517,11.4999793 C86.7230103,11.7208621 86.7452069,12.5616241 86.8101724,12.571369 C86.8740552,12.5816552 87.2811724,12.595731 87.3889069,12.3163793 C87.4977241,12.0381103 87.3466793,10.7225586 87.3466793,10.7225586 C87.3466793,10.7225586 88.3585172,11.1053138 88.552331,11.503769 C88.552331,11.503769 89.0249552,11.5730655 89.2182276,11.4090276 C89.4109586,11.2428241 89.4320724,10.5471517 89.4109586,10.4854345 C89.3903862,10.4242586 89.7563586,10.4026034 89.8429793,10.3441345 C89.9274345,10.2856655 89.9490897,9.89154138 89.9490897,9.89154138 L90.4449931,9.78218276 C90.4449931,9.78218276 90.530531,9.4855069 90.5743828,9.1974931 C90.6149862,8.90731379 91.1985931,9.08596897 91.1985931,9.08596897 C91.1985931,9.08596897 91.5201724,9.11574483 91.6057103,8.94791724 C91.692331,8.78171379 91.4990586,7.25773103 91.4990586,7.25773103 L91.8861448,6.51766552 L91.8644897,6.1100069 C91.8644897,6.1100069 92.6597759,6.48897241 93.0484862,5.94380345 C93.4339483,5.39701034 93.6911034,3.20875517 92.8757862,2.01176552 C92.0583034,0.813693103 90.3378,-0.417403448 86.7874345,0.321037931 C86.7874345,0.321037931 85.8189069,0.622586207 85.325169,0.493196552 C85.325169,0.493196552 85.0241621,0.979355172 85.4318207,1.57920345 L84.3994103,1.71779655 C84.3994103,1.71779655 84.3122483,2.23264828 84.6565655,2.32305862 C84.6565655,2.32305862 83.8623621,2.54989655 84.0334379,3.34301724 C84.2061379,4.13397241 84.8514621,3.78153448 84.9597379,3.91417241 C85.0658483,4.04681034 84.8292655,4.65153103 84.8292655,4.65153103 C84.8292655,4.65153103 84.9597379,4.86645862 85.1086172,4.9270931 C85.2612862,4.98664483 84.2478241,6.11866897 84.2478241,6.11866897 L84.2272517,6.55610345 C84.2272517,6.55610345 83.6458103,6.22586207 83.3042,6.3298069 C82.9582586,6.4342931 82.7362931,7.05038276 82.7362931,7.05038276 C82.7362931,7.05038276 73.5593724,4.11935517 65.0126172,14.0650345 C65.0126172,14.0650345 64.9785103,14.4288414 65.1208931,14.4862276 C65.1208931,14.4862276 61.0903241,19.8123172 62.3327897,23.8520897 L60.9073379,24.2288897 C60.9073379,24.2288897 61.1709897,25.3295138 62.2310103,25.673831 C63.2888655,26.019231 64.8978448,24.4838793 66.1998621,26.4853586 C67.5024207,28.4884621 69.0908276,33.4301724 69.0908276,33.4301724 L67.043331,36.9816207 C65.1225172,36.1013379 62.8492655,35.7965414 60.4098103,36.2296448 C53.5353759,37.448831 47.9635,44.0471621 47.9635,50.9670724 C47.9635,57.8859 53.5353759,62.5071138 60.4098103,61.2873862 C65.3688448,60.4065621 69.6484483,56.7289724 71.6483034,52.1494448 L71.7511655,52.1581069 C71.7511655,52.1581069 73.2139724,54.0226172 75.8391207,53.1228448 C78.4626448,52.2241552 79.5389069,48.9580138 78.9347276,47.2034034 C78.9347276,47.2034034 80.0981517,46.1742414 80.8717828,46.036731 C81.6464966,45.8997621 82.3779,45.4222655 81.949669,45.1098897 C81.949669,45.1098897 83.5397,45.0438414 83.8407069,44.4716034 C84.1417138,43.8977414 84.7875793,42.7446034 82.8510655,42.6975034 C82.8510655,42.6975034 81.6676103,42.5838138 81.4099138,41.914669 L90.0557414,30.5716897 L90.8959621,32.2418448 L90.9311517,32.3436241 C87.0705759,35.1571724 84.4530069,39.7486103 84.4530069,44.4910931 C84.4530069,51.4099207 90.0265069,56.0305931 96.9004,54.8114069 C103.775376,53.5900552 109.347793,46.9911828 109.347793,40.0718138 C109.347793,33.1519034 103.775376,28.5323138 96.9004,29.7531241 Z" id="Fill-1" fill="#0C0A09" mask="url(#mask-2)"></path>
                <polyline id="Fill-3" fill="#FFE6CC" mask="url(#mask-2)" points="143.876966 110.092731 13.4337862 97.7915103 13.4337862 74.7709793 143.876966 87.0727414 143.876966 110.092731"></polyline>
                <polyline id="Fill-4" fill="#9B1C28" mask="url(#mask-2)" points="0 144.680914 33.2428552 138.819941 33.2428552 115.79941 0 121.660924 7.92525172 131.774431 0 144.680914"></polyline>
            </g>
            <polyline id="Fill-6" fill="#FFE6CC" points="33.2428552 138.819941 12.9259724 133.232366 33.2428552 129.650059 33.2428552 138.819941"></polyline>
            <polyline id="Fill-7" fill="#9B1C28" points="156.934493 40.5742138 123.690555 46.436269 123.690555 69.4562586 156.934493 63.5942034 149.007617 53.4812379 156.934493 40.5742138"></polyline>
            <polyline id="Fill-8" fill="#FFE6CC" points="123.690555 46.436269 144.006355 52.0233034 123.690555 55.605069 123.690555 46.436269"></polyline>
            <polyline id="Fill-9" fill="#C42330" points="143.876966 74.7899276 13.4337862 97.7915103 13.4337862 74.7709793 143.876966 51.7704793 143.876966 74.7899276"></polyline>
            <polyline id="Fill-10" fill="#C42330" points="143.876966 110.091648 13.4337862 133.093231 13.4337862 110.073783 143.876966 87.0727414 143.876966 110.091648"></polyline>
            <polyline id="Fill-11" fill="#FFFFFE" points="16.6609483 77.3409069 21.5625966 76.4763241 25.5563517 82.2539241 29.5501069 75.0676552 34.4560862 74.2030724 34.4560862 90.945769 29.8408276 91.7589207 29.8408276 82.1461897 25.5563517 89.4515621 25.461069 89.4688862 21.2107 83.7156483 21.2107 93.2807379 16.6609483 94.0830621 16.6609483 77.3409069"></polyline>
            <path d="M48.4653586,81.8722517 L46.5954345,77.4405207 L44.7076448,82.5354414 L48.4653586,81.8722517 Z M44.3979759,72.3304414 L48.8686862,71.5427345 L55.9937793,87.1469103 L51.0174207,88.0244862 L49.8052724,85.2493759 L43.3471586,86.3873552 L42.1490862,89.5879897 L37.2690931,90.4482414 L44.3979759,72.3304414 Z" id="Fill-12" fill="#FFFFFE"></path>
            <polyline id="Fill-13" fill="#FFFFFE" points="62.8563034 77.4204897 57.3526414 70.1660069 62.6841448 69.225631 65.6525276 73.4121172 68.6425655 68.1748138 73.8500931 67.2571759 68.3561759 76.4081103 74.0920897 83.9554793 68.7622103 84.8953138 65.5539966 80.4137759 62.3300828 86.0289621 57.1128103 86.9487655 62.8563034 77.4204897"></polyline>
            <polyline id="Fill-14" fill="#FFFFFE" points="77.1248966 66.6795241 81.7899621 65.857169 81.7899621 82.5987828 77.1248966 83.4216793 77.1248966 66.6795241"></polyline>
            <polyline id="Fill-15" fill="#FFFFFE" points="86.0457448 65.1062759 90.9414379 64.2433172 94.9433138 70.0192931 98.9349034 62.8341069 103.837634 61.9689828 103.837634 78.7116793 99.2158793 79.5259138 99.2158793 69.9131828 94.9433138 77.216931 94.8469483 77.2337138 90.5841276 71.4831828 90.5841276 81.0482724 86.0457448 81.8489724 86.0457448 65.1062759"></polyline>
            <path d="M107.777793,70.6732793 L107.777793,61.2743931 L112.487793,60.4444586 L112.487793,69.7458966 C112.487793,72.1631552 113.710769,73.0959517 115.573655,72.7678759 C117.436,72.4392586 118.656269,71.1215414 118.656269,68.7817 L118.656269,59.3562862 L123.368976,58.525269 L123.368976,67.803969 C123.368976,73.2118069 120.278783,76.1200966 115.5206,76.9592345 C110.76729,77.7972897 107.777793,75.9073345 107.777793,70.6732793" id="Fill-16" fill="#FFFFFE"></path>
            <g id="Group-20" transform="translate(53.596552, 55.762069)">
                <mask id="mask-4" fill="white">
                    <use xlink:href="#path-3"></use>
                </mask>
                <g id="Clip-18"></g>
                <path d="M72.4425069,16.5450931 L75.0297586,13.0028483 C76.6771759,14.0293034 78.5194897,14.4006897 80.4565448,14.0590793 C81.6990103,13.8403621 82.3714034,13.2838241 82.3714034,12.5681207 L82.3714034,12.5291414 C82.3714034,11.8302207 81.8191966,11.5459966 79.5437793,11.4209379 C75.9825862,11.2319966 73.2367103,10.7166034 73.2367103,7.27072414 L73.2367103,7.22091724 C73.2367103,4.11231724 75.6983621,1.42978276 79.7181034,0.720575862 C82.5576379,0.220341379 84.7854138,0.590103448 86.5979517,1.73620345 L84.281931,5.42083103 C82.7498276,4.61471724 81.0737172,4.33428276 79.5935862,4.59576897 C78.4696828,4.79337241 77.9228897,5.36561034 77.9228897,5.96654138 L77.9228897,6.0131 C77.9228897,6.77752759 78.4951276,7.01356897 80.8138552,7.12671724 C84.6636034,7.29021379 87.0532517,8.10715517 87.0532517,11.245531 L87.0532517,11.2910069 C87.0532517,14.7125241 84.3550172,17.2212759 80.2903414,17.9375207 C77.3284552,18.4599517 74.4959586,18.0241414 72.4425069,16.5450931" id="Fill-17" fill="#FFFFFE" mask="url(#mask-4)"></path>
                <path d="M49.6136241,97.7980069 C49.6136241,111.359017 38.6209172,122.351724 25.0588241,122.351724 C11.4983552,122.351724 0.505106897,111.359017 0.505106897,97.7980069 C0.505106897,84.2364552 11.4983552,73.244831 25.0588241,73.244831 C38.6209172,73.244831 49.6136241,84.2364552 49.6136241,97.7980069" id="Fill-19" fill="#0C0A09" mask="url(#mask-4)"></path>
            </g>
            <path d="M19.4192759,121.025345 L24.5515517,120.120159 C24.9965655,120.041659 25.3988103,119.872207 25.7566621,119.610179 C26.1150552,119.34761 26.4214759,119.024407 26.6759241,118.639486 C26.9303724,118.255107 27.1296,117.826334 27.2725241,117.35371 C27.416531,116.880545 27.4874517,116.405214 27.4874517,115.924469 C27.4874517,115.426941 27.4040793,114.973807 27.2373345,114.563441 C27.0695069,114.154159 26.847,113.804428 26.5681897,113.514248 C26.2899207,113.222986 25.963469,113.015638 25.5904586,112.890579 C25.2158241,112.766603 24.8217,112.740617 24.4086276,112.813703 L19.4192759,113.693445 L19.4192759,121.025345 Z M17.2705414,129.731807 L17.2705414,112.082841 L24.527731,110.803562 C25.2753759,110.671466 25.963469,110.711528 26.5925517,110.92429 C27.2205517,111.13651 27.761931,111.472166 28.2156069,111.930714 C28.6692828,112.389262 29.0228034,112.930641 29.2777931,113.5581 C29.5322414,114.183934 29.6600069,114.844959 29.6600069,115.541714 C29.6600069,116.155097 29.5766345,116.7609 29.4093483,117.362372 C29.2420621,117.963845 29.0033138,118.524714 28.6931034,119.042272 C28.3828931,119.560914 28.0082586,120.024876 27.5708241,120.433076 C27.1333897,120.842359 26.6439828,121.167728 26.1031448,121.412972 L30.2089655,127.449893 L27.7738414,127.879748 L23.906769,122.223417 L19.4192759,123.014372 L19.4192759,129.3523 L17.2705414,129.731807 Z" id="Fill-21" fill="#FFFFFE"></path>
            <polyline id="Fill-22" fill="#FFFFFE" points="34.3867897 126.713617 34.3867897 109.065193 36.5349828 108.686228 36.5349828 126.334652 34.3867897 126.713617"></polyline>
            <path d="M53.9132586,114.421059 C53.9132586,113.427086 53.7822448,112.534352 53.5191345,111.743397 C53.2571069,110.953524 52.866231,110.305493 52.3492138,109.799845 C51.8321966,109.295279 51.1998655,108.937969 50.4522207,108.730621 C49.7040345,108.522731 48.8524448,108.503783 47.8979931,108.67161 L44.1738448,109.328303 L44.1738448,122.999214 L47.8979931,122.342521 C48.8681448,122.171445 49.7316448,121.845534 50.4879517,121.363707 C51.2431759,120.882962 51.8717172,120.291234 52.3735759,119.590148 C52.8748931,118.887979 53.2571069,118.095941 53.5191345,117.21241 C53.7822448,116.329421 53.9132586,115.399872 53.9132586,114.421059 Z M42.0256517,125.366666 L42.0256517,107.718241 L47.8979931,106.682041 C49.2503586,106.443834 50.439769,106.467114 51.4662241,106.749714 C52.4932207,107.031772 53.3480586,107.511976 54.0329034,108.185993 C54.7166655,108.861093 55.2304345,109.702938 55.5720448,110.711528 C55.9147379,111.719034 56.0858138,112.829403 56.0858138,114.037762 C56.0858138,115.380924 55.8941655,116.628803 55.5124931,117.780859 C55.1308207,118.933455 54.5813207,119.958286 53.8656172,120.855352 C53.1493724,121.752417 52.2858724,122.501145 51.2756586,123.102076 C50.2649034,123.702466 49.1388345,124.11229 47.8979931,124.331007 L42.0256517,125.366666 Z" id="Fill-23" fill="#FFFFFE"></path>
            <polyline id="Fill-24" fill="#FFFFFE" points="72.0559621 118.082948 72.0559621 120.071434 60.5494862 122.100524 60.5494862 104.451559 71.8404931 102.460907 71.8404931 104.449934 62.6982207 106.062162 62.6982207 111.779128 70.6467517 110.377497 70.6467517 112.241466 62.6982207 113.643097 62.6982207 119.733072 72.0559621 118.082948"></polyline>
            <path d="M82.9642138,118.147914 C82.9642138,116.981783 83.0622034,115.955328 83.2608897,115.071255 C83.4595759,114.186641 83.7567931,113.392979 84.1541655,112.689728 C84.5504552,111.987559 85.0420276,111.351979 85.6294241,110.782448 C86.2168207,110.213459 86.8984172,109.669914 87.6763793,109.149648 C88.2220897,108.788007 88.7916207,108.426366 89.3876793,108.063641 C89.9821138,107.702 90.5197034,107.315997 90.9993655,106.907797 C91.4790276,106.498514 91.8764,106.0378 92.1904,105.525114 C92.5049414,105.011345 92.6619414,104.404459 92.6619414,103.704455 C92.6619414,103.271893 92.5910207,102.875603 92.4508034,102.516669 C92.3095034,102.157734 92.0994483,101.856728 91.817931,101.614731 C91.5369552,101.371652 91.1856,101.203824 90.7638655,101.111248 C90.342131,101.01759 89.8418966,101.021379 89.2626207,101.123159 C88.6838862,101.223314 88.1468379,101.396555 87.6503931,101.641259 C87.1544897,101.887045 86.7078517,102.164772 86.3110207,102.475524 C85.9141897,102.786276 85.5622931,103.106772 85.2569552,103.434307 C84.9505345,103.763466 84.6993345,104.069886 84.5001069,104.35411 L83.0860241,103.176069 C83.2181207,102.986045 83.4541621,102.695324 83.7936069,102.302283 C84.131969,101.909783 84.5699448,101.495628 85.1080759,101.0609 C85.6451241,100.62509 86.2779966,100.218514 87.0056103,99.8417138 C87.7326828,99.463831 88.5599103,99.1953069 89.485669,99.0339759 C90.4114276,98.8721034 91.2224138,98.8683138 91.9170034,99.0220655 C92.6115931,99.1763586 93.1946586,99.4448828 93.6656586,99.8292621 C94.1372,100.213641 94.4928862,100.701424 94.7327172,101.29261 C94.9714655,101.884879 95.0927345,102.530745 95.0927345,103.230748 C95.0927345,104.063931 94.9443966,104.802914 94.6466379,105.445531 C94.3488793,106.089772 93.9639586,106.66959 93.4924172,107.184983 C93.0214172,107.700376 92.4881586,108.172459 91.8931828,108.60069 C91.2982069,109.030545 90.6940276,109.440369 90.0828103,109.830703 C89.2388,110.377497 88.5398793,110.882603 87.9860483,111.346024 C87.4322172,111.808903 86.9855793,112.26691 86.6466759,112.717338 C86.3077724,113.168848 86.0722724,113.629562 85.9401759,114.103269 C85.8080793,114.576434 85.7409483,115.096159 85.7414897,115.662983 L95.1187207,114.026934 L95.1187207,116.026248 L82.9642138,118.147914" id="Fill-25" fill="#FFFFFE"></path>
            <path d="M100.624007,106.316069 C100.64079,107.129762 100.760976,107.929379 100.984566,108.714921 C101.207614,109.501003 101.533524,110.190721 101.963921,110.781366 C102.393776,111.373634 102.923245,111.826769 103.551786,112.141852 C104.180869,112.456934 104.916062,112.541931 105.760072,112.394134 C106.636024,112.241466 107.397203,111.884155 108.041445,111.320579 C108.686228,110.758086 109.220028,110.099228 109.641762,109.342379 C110.062955,108.58499 110.377497,107.775086 110.584303,106.914293 C110.79111,106.052959 110.893972,105.25659 110.893431,104.523021 C110.893431,103.706079 110.778117,102.905379 110.546407,102.121462 C110.314697,101.335921 109.984455,100.647828 109.5546,100.0561 C109.123662,99.4643724 108.586614,99.0123207 107.94129,98.7004862 C107.296507,98.387569 106.568352,98.302031 105.758448,98.4438724 C104.881955,98.5970828 104.121317,98.9543931 103.475993,99.5168862 C102.831752,100.079379 102.298493,100.743652 101.876759,101.509162 C101.455024,102.274131 101.140483,103.083493 100.934217,103.936166 C100.726869,104.788838 100.624007,105.581959 100.624007,106.316069 Z M105.760072,114.419434 C104.536014,114.615955 103.465707,114.511469 102.547528,114.104352 C101.62989,113.698317 100.86059,113.111462 100.240169,112.344869 C99.6202897,111.577193 99.1525379,110.697452 98.8390793,109.701855 C98.5245379,108.7068 98.3675379,107.709579 98.3669966,106.70911 C98.3669966,105.642593 98.5364483,104.541428 98.8753517,103.408321 C99.2142552,102.27359 99.706369,101.221148 100.35061,100.250997 C100.995393,99.2792207 101.773355,98.4482034 102.682331,97.7552379 C103.591848,97.0638966 104.617221,96.6178 105.758448,96.4185724 C106.981966,96.2047276 108.052814,96.3054241 108.970993,96.7201207 C109.888631,97.1359 110.657931,97.7297931 111.27781,98.5055897 C111.898231,99.2813862 112.365441,100.16979 112.679441,101.172966 C112.993441,102.177224 113.150983,103.163076 113.150983,104.129438 C113.151524,105.212197 112.982072,106.317152 112.643169,107.443221 C112.303724,108.568207 111.812152,109.612528 111.167369,110.5751 C110.523128,111.538214 109.744624,112.365441 108.83619,113.057866 C107.926131,113.749748 106.900759,114.202883 105.760072,114.419434 Z" id="Fill-26" fill="#FFFFFE"></path>
            <path d="M125.455452,108.732245 L125.455452,110.731559 L116.699183,112.259331 L116.699183,110.260017 L120.072517,109.671538 L120.070893,96.0455621 C119.938255,96.2686103 119.718997,96.527931 119.413659,96.8229828 C119.107238,97.1180345 118.768334,97.4103793 118.396407,97.7005586 C118.024479,97.9901966 117.636852,98.2457276 117.231359,98.466069 C116.825866,98.6869517 116.457728,98.8266276 116.126945,98.8845552 L116.126403,96.8343517 C116.573041,96.7563931 117.02401,96.5566241 117.47931,96.2350448 C117.932986,95.9145483 118.350931,95.5707724 118.730979,95.2048 C119.111569,94.8382862 119.425569,94.5080448 119.673521,94.2146172 C119.922014,93.9211897 120.05411,93.7571517 120.070893,93.7203379 L122.303541,93.3305448 L122.305166,109.281745 L125.455452,108.732245" id="Fill-27" fill="#FFFFFE"></path>
            <path d="M130.763134,96.779131 C130.763134,97.2301 130.865997,97.6074414 131.072803,97.9127793 C131.27961,98.2186586 131.548134,98.4595724 131.878917,98.6344379 C132.209159,98.8103862 132.572966,98.9219103 132.970338,98.9690103 C133.367169,99.0166517 133.764,99.0052828 134.160831,98.9365276 C134.558203,98.8666897 134.955034,98.7356759 135.351866,98.5407793 C135.749238,98.3464241 136.111962,98.1044276 136.443286,97.8131655 C136.773528,97.5224448 137.042593,97.1835414 137.2494,96.7980793 C137.456207,96.4115345 137.559069,95.9925069 137.559069,95.5431621 C137.559069,95.1268414 137.464328,94.7684483 137.273762,94.4679828 C137.083197,94.1675172 136.831455,93.9293103 136.517455,93.7501138 C136.202372,93.5714586 135.839107,93.4561448 135.425493,93.4030897 C135.011879,93.3505759 134.582024,93.3630276 134.135928,93.4404448 C133.68929,93.5184034 133.263224,93.6553724 132.858272,93.8513517 C132.452779,94.047331 132.097093,94.2925759 131.791755,94.5876276 C131.485334,94.8826793 131.237383,95.2177931 131.0479,95.592969 C130.857334,95.9670621 130.763134,96.3628103 130.763134,96.779131 Z M138.155669,103.339566 C138.155669,102.806307 138.035483,102.348841 137.795652,101.965545 C137.555279,101.581707 137.24561,101.277452 136.865021,101.052779 C136.484972,100.827024 136.054034,100.681393 135.574914,100.614803 C135.095793,100.548755 134.61559,100.557417 134.136469,100.64079 C133.640024,100.72741 133.156572,100.891448 132.68449,101.132362 C132.21349,101.372734 131.792838,101.674824 131.420369,102.039714 C131.048983,102.404603 130.750683,102.8193 130.527634,103.283262 C130.304045,103.747766 130.192521,104.238255 130.192521,104.754731 C130.192521,105.28799 130.312707,105.742748 130.551997,106.117383 C130.791828,106.492017 131.102038,106.78761 131.482628,107.004703 C131.863217,107.222338 132.288741,107.367969 132.760824,107.444303 C133.231824,107.520097 133.707155,107.516848 134.186817,107.432393 C134.683262,107.345772 135.166714,107.178486 135.638255,106.929452 C136.109255,106.680959 136.53099,106.372914 136.902376,106.008024 C137.274845,105.643676 137.576393,105.23331 137.807562,104.775303 C138.039814,104.318379 138.155669,103.8398 138.155669,103.339566 Z M140.362872,103.104607 C140.362872,103.904224 140.193962,104.654576 139.854517,105.355662 C139.515614,106.056748 139.061397,106.682041 138.490783,107.231541 C137.919628,107.781583 137.258603,108.246628 136.506086,108.627217 C135.753569,109.00889 134.956117,109.273624 134.112648,109.420879 C133.235614,109.573548 132.421379,109.578962 131.668862,109.434955 C130.916886,109.290948 130.267772,109.028921 129.722062,108.649414 C129.176352,108.269907 128.745414,107.782666 128.431414,107.187148 C128.116872,106.591631 127.960414,105.919238 127.960414,105.169428 C127.960414,104.618845 128.059486,104.093707 128.257631,103.591848 C128.456317,103.091614 128.7086,102.630359 129.014479,102.210248 C129.320359,101.790138 129.671172,101.407924 130.068003,101.064148 C130.465376,100.71929 130.861666,100.43669 131.259038,100.217972 C130.895231,100.131893 130.547124,99.9970897 130.217424,99.8130207 C129.8861,99.6289517 129.596462,99.4048207 129.34851,99.1395448 C129.100559,98.8737276 128.906203,98.5705552 128.765986,98.2278621 C128.625228,97.8862517 128.554848,97.5067448 128.554848,97.0904241 C128.554848,96.339531 128.723759,95.6481897 129.062662,95.0136931 C129.401566,94.3791966 129.840624,93.8156207 130.378214,93.3218828 C130.915262,92.8276034 131.514028,92.4231931 132.176134,92.1070276 C132.837159,91.7930276 133.498724,91.5764759 134.16029,91.4606207 C134.822397,91.3453069 135.487752,91.3296069 136.157438,91.4118966 C136.827666,91.4958103 137.430762,91.6863759 137.968352,91.9841345 C138.5054,92.2824345 138.943917,92.688469 139.282821,93.2054862 C139.621724,93.7203379 139.792259,94.3537517 139.792259,95.1035621 C139.792259,95.9378276 139.519403,96.7179552 138.973693,97.4471931 C138.427983,98.1753483 137.782659,98.7632862 137.038262,99.2093828 C137.485441,99.3149517 137.910966,99.4735759 138.316459,99.6863379 C138.72141,99.8996414 139.072766,100.166541 139.371066,100.490286 C139.668283,100.81349 139.908114,101.192997 140.090017,101.627724 C140.271921,102.06191 140.362872,102.554566 140.362872,103.104607 Z" id="Fill-28" fill="#FFFFFE"></path>
            <path d="M80.3563897,138.98019 L80.866369,138.772841 L80.3563897,138.566576 L80.8041103,138.243372 L80.2589414,138.165955 L80.6140862,137.744762 L80.0662103,137.799441 L80.3109138,137.306786 L79.7922724,137.490855 L79.9113759,136.953266 L79.4517448,137.254814 L79.4398345,136.704772 L79.0673655,137.109183 L78.9222759,136.57809 L78.6559172,137.058293 L78.3895586,136.57809 L78.2460931,137.109183 L77.872,136.704772 L77.8590069,137.254814 L77.4004586,136.953266 L77.5195621,137.490855 L77.0014621,137.306245 L77.2456241,137.799441 L76.6982897,137.744762 L77.0528931,138.164331 L76.5093483,138.242831 L76.9549034,138.566576 L76.4443828,138.772841 L76.9549034,138.98019 L76.5093483,139.301228 L77.0528931,139.379728 L76.6982897,139.799838 L77.2456241,139.7457 L77.0009207,140.238897 L77.5195621,140.055369 L77.3993759,140.592417 L77.8590069,140.290328 L77.872,140.840369 L78.2460931,140.4365 L78.3895586,140.967593 L78.6559172,140.485766 L78.9222759,140.967593 L79.0673655,140.4365 L79.4398345,140.840369 L79.4517448,140.290328 L79.9113759,140.592417 L79.7922724,140.05591 L80.3103724,140.238897 L80.0662103,139.7457 L80.6140862,139.799838 L80.2589414,139.379728 L80.8041103,139.301769 L80.3563897,138.98019 Z M79.8085138,139.837193 L79.2113724,139.837193 L79.2113724,138.616383 L78.6559172,139.449024 L78.6434655,139.449024 L78.0918,138.622338 L78.0918,139.837193 L77.5027793,139.837193 L77.5027793,137.711738 L78.1389,137.711738 L78.6559172,138.534093 L79.1734759,137.711738 L79.8085138,137.711738 L79.8085138,139.837193 Z" id="Fill-29" fill="#FFFFFE"></path>
            <polyline id="Fill-30" fill="#FFFFFE" points="72.852331 141.597759 73.3114207 141.597759 73.6855138 142.204103 74.0585241 141.597759 74.5181552 141.597759 74.5181552 143.163969 74.0866759 143.163969 74.0866759 142.264197 73.6855138 142.877579 73.6768517 142.877579 73.2783966 142.269069 73.2783966 143.163969 72.852331 143.163969 72.852331 141.597759"></polyline>
            <path d="M75.4487862,141.58639 L75.866731,141.58639 L76.5337103,143.163969 L76.0681241,143.163969 L75.9544345,142.884617 L75.3502552,142.884617 L75.2381897,143.163969 L74.7818069,143.163969 L75.4487862,141.58639 Z M75.8288345,142.546797 L75.6545103,142.1007 L75.4774793,142.546797 L75.8288345,142.546797 Z" id="Fill-31" fill="#FFFFFE"></path>
            <polyline id="Fill-32" fill="#FFFFFE" points="77.1763276 142.367059 76.6614759 141.597759 77.1600862 141.597759 77.4383552 142.0379 77.7182483 141.597759 78.206031 141.597759 77.6911793 142.36381 78.228769 143.163969 77.7290759 143.163969 77.4291517 142.691345 77.1270621 143.163969 76.6392793 143.163969 77.1763276 142.367059"></polyline>
            <polygon id="Fill-33" fill="#FFFFFE" points="78.511369 143.163969 78.9493448 143.163969 78.9493448 141.597759 78.511369 141.597759"></polygon>
            <polyline id="Fill-34" fill="#FFFFFE" points="79.3467172 141.597759 79.8052655 141.597759 80.1793586 142.204103 80.5529103 141.597759 81.012 141.597759 81.012 143.163969 80.5794379 143.163969 80.5794379 142.264197 80.1793586 142.877579 80.1706966 142.877579 79.7717 142.269069 79.7717 143.163969 79.3467172 143.163969 79.3467172 141.597759"></polyline>
            <path d="M81.3812207,142.4775 L81.3812207,141.597759 L81.8219034,141.597759 L81.8219034,142.468297 C81.8219034,142.694052 81.9361345,142.801786 82.1104586,142.801786 C82.2847828,142.801786 82.3990138,142.698383 82.3990138,142.480207 L82.3990138,141.597759 L82.8402379,141.597759 L82.8402379,142.46559 C82.8402379,142.971779 82.5511414,143.193203 82.1055862,143.193203 C81.6605724,143.193203 81.3812207,142.966907 81.3812207,142.4775" id="Fill-35" fill="#FFFFFE"></path>
            <path d="M83.0903552,142.931717 L83.3323517,142.642621 C83.4861034,142.766055 83.6588034,142.831021 83.8407069,142.831021 C83.9571034,142.831021 84.0199034,142.790417 84.0199034,142.722745 L84.0199034,142.719497 C84.0199034,142.653448 83.9684724,142.617717 83.755169,142.568993 C83.4216793,142.492659 83.1650655,142.399 83.1650655,142.075797 L83.1650655,142.071466 C83.1650655,141.780745 83.3951517,141.570148 83.7714103,141.570148 C84.0372276,141.570148 84.2456586,141.64161 84.4151103,141.778579 L84.1980172,142.085541 C84.0550931,141.984303 83.8980931,141.930707 83.7600414,141.930707 C83.6544724,141.930707 83.6030414,141.975641 83.6030414,142.030862 L83.6030414,142.035734 C83.6030414,142.107738 83.6566379,142.139138 83.8731897,142.187321 C84.2337483,142.266362 84.4578793,142.382759 84.4578793,142.676186 L84.4578793,142.681059 C84.4578793,143.000472 84.2050552,143.191038 83.8244655,143.191038 C83.5478207,143.191038 83.2820034,143.103876 83.0903552,142.931717" id="Fill-36" fill="#FFFFFE"></path>
            <path d="M73.7981207,143.798466 C73.7981207,143.964128 73.6968828,144.048041 73.5988931,144.091893 C73.7477724,144.136286 73.8674172,144.222907 73.8674172,144.397231 C73.8674172,144.614866 73.6865966,144.742631 73.4115759,144.742631 L72.852331,144.742631 L72.852331,143.484466 L73.3882966,143.484466 C73.6367897,143.484466 73.7981207,143.606276 73.7981207,143.798466 M73.6541138,143.817955 C73.6541138,143.692897 73.5550414,143.612231 73.3758448,143.612231 L72.9925483,143.612231 L72.9925483,144.045334 L73.3650172,144.045334 C73.5355517,144.045334 73.6541138,143.967917 73.6541138,143.817955 M73.7250345,144.388569 C73.7250345,144.249976 73.6091793,144.170934 73.3904621,144.170934 L72.9925483,144.170934 L72.9925483,144.614866 L73.4148241,144.614866 C73.605931,144.614866 73.7250345,144.53041 73.7250345,144.388569" id="Fill-37" fill="#FFFFFE"></path>
            <path d="M75.0617,144.742631 L74.6978931,144.253766 L74.3384172,144.253766 L74.3384172,144.742631 L74.1960345,144.742631 L74.1960345,143.484466 L74.7374138,143.484466 C75.0140586,143.484466 75.1910897,143.633345 75.1910897,143.860183 C75.1910897,144.070238 75.0481655,144.19259 74.8494793,144.227779 L75.2371069,144.742631 L75.0617,144.742631 Z M74.7271276,143.615479 L74.3384172,143.615479 L74.3384172,144.126 L74.7244207,144.126 C74.9133621,144.126 75.0481655,144.029093 75.0481655,143.865055 C75.0481655,143.709138 74.9290621,143.615479 74.7271276,143.615479 Z" id="Fill-38" fill="#FFFFFE"></path>
            <path d="M76.1255103,144.763203 C75.7422138,144.763203 75.4861414,144.464362 75.4861414,144.115172 C75.4861414,143.766524 75.7460034,143.46281 76.1293,143.46281 C76.5120552,143.46281 76.768669,143.762734 76.768669,144.110841 C76.768669,144.460031 76.5082655,144.763203 76.1255103,144.763203 M76.1255103,143.593824 C75.8380379,143.593824 75.6323138,143.824452 75.6323138,144.110841 C75.6323138,144.398855 75.8412862,144.633272 76.1293,144.633272 C76.416231,144.633272 76.6219552,144.402103 76.6219552,144.115172 C76.6219552,143.8277 76.4129828,143.593824 76.1255103,143.593824" id="Fill-39" fill="#FFFFFE"></path>
            <path d="M78.143231,144.205041 C78.143231,144.572097 77.9326345,144.762121 77.6180931,144.762121 C77.3073414,144.762121 77.0951207,144.572097 77.0951207,144.21641 L77.0951207,143.484466 L77.2369621,143.484466 L77.2369621,144.207207 C77.2369621,144.477897 77.3815103,144.631648 77.6218828,144.631648 C77.8535931,144.631648 78.0008483,144.490348 78.0008483,144.21641 L78.0008483,143.484466 L78.143231,143.484466 L78.143231,144.205041" id="Fill-40" fill="#FFFFFE"></path>
            <polyline id="Fill-41" fill="#FFFFFE" points="79.2866241 143.480676 79.4030207 143.480676 79.7473379 144.533117 80.1078966 143.484466 80.2562345 143.484466 79.8079724 144.751293 79.6861621 144.751293 79.3423862 143.730793 78.9948207 144.751293 78.8768 144.751293 78.4274552 143.484466 78.5822897 143.484466 78.9406828 144.533117 79.2866241 143.480676"></polyline>
            <polyline id="Fill-42" fill="#FFFFFE" points="81.4700069 143.612772 80.7017897 143.612772 80.7017897 144.043169 81.3882586 144.043169 81.3882586 144.172559 80.7017897 144.172559 80.7017897 144.6127 81.478669 144.6127 81.478669 144.742631 80.5599483 144.742631 80.5599483 143.484466 81.4700069 143.484466 81.4700069 143.612772"></polyline>
            <path d="M82.6751172,144.742631 L82.3118517,144.253766 L81.9518345,144.253766 L81.9518345,144.742631 L81.8094517,144.742631 L81.8094517,143.484466 L82.3513724,143.484466 C82.6280172,143.484466 82.806131,143.633345 82.806131,143.860183 C82.806131,144.070238 82.6621241,144.19259 82.4639793,144.227779 L82.8510655,144.742631 L82.6751172,144.742631 Z M82.3405448,143.615479 L81.9518345,143.615479 L81.9518345,144.126 L82.3383793,144.126 C82.5278621,144.126 82.6621241,144.029093 82.6621241,143.865055 C82.6621241,143.709138 82.5430207,143.615479 82.3405448,143.615479 Z" id="Fill-43" fill="#FFFFFE"></path>
            <polygon id="Fill-44" fill="#FFFFFE" points="83.1677724 144.742631 83.3090724 144.742631 83.3090724 143.484466 83.1677724 143.484466"></polygon>
            <path d="M83.9890448,144.760497 C83.8011862,144.760497 83.6799172,144.666838 83.6019586,144.538531 L83.7037379,144.449203 C83.7800724,144.566141 83.8601966,144.628941 83.9912103,144.628941 C84.1335931,144.628941 84.2369966,144.527162 84.2369966,144.327393 L84.2369966,143.484466 L84.3815448,143.484466 L84.3815448,144.325228 C84.3815448,144.614866 84.2137172,144.760497 83.9890448,144.760497" id="Fill-45" fill="#FFFFFE"></path>
            <path d="M65.7597207,151.975459 L64.7067379,151.975459 L64.7067379,151.73671 C64.7067379,151.249469 64.5004724,150.845059 63.9634241,150.845059 C63.3857724,150.845059 63.2515103,151.311186 63.2515103,151.798969 C63.2515103,152.369583 63.3034828,152.566103 63.8497345,152.784821 L64.6547655,153.105859 C65.5843138,153.458838 65.7597207,154.050024 65.7597207,155.128993 C65.7597207,156.373624 65.3055034,157.297217 63.9428517,157.297217 C62.921269,157.297217 62.1470966,156.539286 62.1470966,155.54369 L62.1470966,155.149566 L63.1995379,155.149566 L63.1995379,155.48089 C63.1995379,155.864728 63.4063448,156.238821 63.9428517,156.238821 C64.6547655,156.238821 64.7067379,155.812755 64.7067379,155.139279 C64.7067379,154.35049 64.6136207,154.226514 64.0976862,154.019166 L63.3446276,153.707872 C62.4361931,153.333779 62.199069,152.732848 62.199069,151.809255 C62.199069,150.689141 62.7972931,149.787203 64.004569,149.787203 C65.0575517,149.787203 65.7597207,150.637169 65.7597207,151.456817 L65.7597207,151.975459" id="Fill-46" fill="#FFFFFE"></path>
            <polyline id="Fill-47" fill="#FFFFFE" points="67.2349793 150.845059 66.0174172 150.845059 66.0174172 149.848921 69.5055241 149.848921 69.5055241 150.845059 68.2879621 150.845059 68.2879621 157.234417 67.2349793 157.234417 67.2349793 150.845059"></polyline>
            <path d="M71.0132655,151.975459 L70.9926931,151.975459 L70.4762172,154.651497 L71.5292,154.651497 L71.0132655,151.975459 Z M70.5693345,149.848921 L71.446369,149.848921 L73.087831,157.234417 L72.0348483,157.234417 L71.7257207,155.647634 L70.2905241,155.647634 L69.9808552,157.234417 L68.9278724,157.234417 L70.5693345,149.848921 Z" id="Fill-48" fill="#FFFFFE"></path>
            <polyline id="Fill-49" fill="#FFFFFE" points="73.6032241 149.848921 74.6150621 149.848921 75.9674276 153.759303 75.988 153.759303 77.3295379 149.848921 78.3511207 149.848921 78.3511207 157.233876 77.2986793 157.233876 77.2986793 152.743134 77.2775655 152.743134 76.2354103 155.9167 75.7091897 155.9167 74.6767793 152.743134 74.6567483 152.743134 74.6567483 157.233876 73.6032241 157.233876 73.6032241 149.848921"></polyline>
            <path d="M80.3948276,153.354893 L80.8999345,153.354893 C81.7563966,153.354893 81.7672241,152.846538 81.7672241,152.110803 C81.7672241,151.415131 81.7672241,150.845059 80.9410793,150.845059 L80.3948276,150.845059 L80.3948276,153.354893 Z M79.3418448,149.848921 L80.9210483,149.848921 C81.4992414,149.848921 81.9220586,149.983724 82.2831586,150.367562 C82.6448,150.7514 82.7584897,151.218069 82.7584897,152.099976 C82.7584897,152.743134 82.7065172,153.177862 82.4585655,153.582814 C82.169469,154.06031 81.7044241,154.35049 80.9307931,154.35049 L80.3948276,154.35049 L80.3948276,157.234417 L79.3418448,157.234417 L79.3418448,149.848921 Z" id="Fill-50" fill="#FFFFFE"></path>
            <polyline id="Fill-51" fill="#FFFFFE" points="83.5418655 149.848921 86.6802414 149.848921 86.6802414 150.845059 84.5943069 150.845059 84.5943069 153.012741 86.4122586 153.012741 86.4122586 154.008338 84.5943069 154.008338 84.5943069 156.176021 86.6802414 156.176021 86.6802414 157.234417 83.5418655 157.234417 83.5418655 149.848921"></polyline>
            <path d="M88.4142793,153.147545 L89.0125034,153.147545 C89.745531,153.147545 89.8592207,152.732848 89.8592207,151.996031 C89.8592207,151.249469 89.7347034,150.845059 88.9610724,150.845059 L88.4142793,150.845059 L88.4142793,153.147545 Z M87.3612966,149.848921 L89.0541897,149.848921 C90.3026103,149.848921 90.9116621,150.585197 90.9116621,152.017145 C90.9116621,152.867652 90.6745379,153.489697 90.0032276,153.863248 L91.1390414,157.234417 L90.0243414,157.234417 L89.0433621,154.080341 L88.4142793,154.080341 L88.4142793,157.234417 L87.3612966,157.234417 L87.3612966,149.848921 Z" id="Fill-52" fill="#FFFFFE"></path>
            <path d="M95.1641966,151.975459 L94.1112138,151.975459 L94.1112138,151.73671 C94.1112138,151.249469 93.9049483,150.845059 93.3679,150.845059 C92.7902483,150.845059 92.6559862,151.311186 92.6559862,151.798969 C92.6559862,152.369583 92.7074172,152.566103 93.253669,152.784821 L94.0597828,153.105859 C94.9887897,153.458838 95.1641966,154.050024 95.1641966,155.128993 C95.1641966,156.373624 94.7099793,157.297217 93.347869,157.297217 C92.3257448,157.297217 91.5515724,156.539286 91.5515724,155.54369 L91.5515724,155.149566 L92.6045552,155.149566 L92.6045552,155.48089 C92.6045552,155.864728 92.8102793,156.238821 93.347869,156.238821 C94.0597828,156.238821 94.1112138,155.812755 94.1112138,155.139279 C94.1112138,154.35049 94.0186379,154.226514 93.5016207,154.019166 L92.7491034,153.707872 C91.8401276,153.333779 91.6035448,152.732848 91.6035448,151.809255 C91.6035448,150.689141 92.2012276,149.787203 93.4095862,149.787203 C94.4620276,149.787203 95.1641966,150.637169 95.1641966,151.456817 L95.1641966,151.975459" id="Fill-53" fill="#FFFFFE"></path>
            <path d="M74.9924034,164.569024 L74.3692759,164.569024 L74.3692759,164.433138 C74.3692759,164.295086 74.3357103,164.175441 74.2680379,164.074203 C74.2009069,163.974048 74.0877586,163.923159 73.9285931,163.923159 C73.8435966,163.923159 73.7726759,163.9394 73.7179966,163.9708 C73.6627759,164.0022 73.6200069,164.043345 73.5896897,164.091528 C73.558831,164.141876 73.5377172,164.199803 73.5258069,164.264769 C73.5133552,164.329193 73.5068586,164.397948 73.5068586,164.468869 C73.5068586,164.5517 73.5095655,164.621538 73.5160621,164.678924 C73.5220172,164.73631 73.5377172,164.785576 73.5620793,164.827803 C73.5864414,164.868948 73.6221724,164.905221 73.6692724,164.936621 C73.715831,164.968562 73.7802552,164.999962 73.8614621,165.031903 L74.3384172,165.215431 C74.4770103,165.266321 74.5890759,165.328038 74.6751552,165.396252 C74.7606931,165.465548 74.8267414,165.546755 74.8743828,165.639331 C74.9209414,165.732448 74.9518,165.838559 74.9691241,165.959828 C74.9848241,166.080014 74.9924034,166.217524 74.9924034,166.371276 C74.9924034,166.54939 74.9745379,166.713969 74.9382655,166.866097 C74.9014517,167.018224 74.8408172,167.149238 74.7579862,167.258055 C74.6740724,167.36579 74.5630897,167.451869 74.4244966,167.51521 C74.2853621,167.579093 74.1164517,167.609952 73.9166828,167.609952 C73.7656379,167.609952 73.6248793,167.585048 73.4944069,167.533076 C73.3644759,167.481645 73.2524103,167.411266 73.1582103,167.323021 C73.0645517,167.233693 72.9903828,167.128124 72.9351621,167.005772 C72.8799414,166.883421 72.852331,166.750783 72.852331,166.608941 L72.852331,166.383186 L73.4765414,166.383186 L73.4765414,166.572669 C73.4765414,166.683652 73.5095655,166.783266 73.5772379,166.872052 C73.6449103,166.961379 73.7575172,167.005772 73.9166828,167.005772 C74.0227931,167.005772 74.1050828,166.991155 74.1640931,166.961379 C74.2236448,166.931603 74.2680379,166.889376 74.2988966,166.836862 C74.3292138,166.783266 74.3492448,166.717217 74.3573655,166.638717 C74.3649448,166.559134 74.3692759,166.471972 74.3692759,166.377231 C74.3692759,166.26679 74.3649448,166.175838 74.3573655,166.104376 C74.3492448,166.033455 74.3313793,165.976069 74.3048517,165.9333 C74.2788655,165.889448 74.2420517,165.853176 74.1949517,165.826107 C74.1478517,165.798497 74.0855931,165.768721 74.0081759,165.737321 L73.5620793,165.559207 C73.2930138,165.452555 73.1127345,165.311255 73.0207,165.135848 C72.9286655,164.959359 72.8831897,164.739017 72.8831897,164.474283 C72.8831897,164.316741 72.9053862,164.166238 72.9503207,164.023855 C72.9952552,163.882014 73.0613034,163.759662 73.1490069,163.6568 C73.2367103,163.554479 73.3482345,163.471648 73.4824966,163.411014 C73.6167586,163.348755 73.7737586,163.318979 73.9534966,163.318979 C74.108331,163.318979 74.2501724,163.34659 74.3779379,163.401269 C74.5073276,163.457572 74.6172276,163.529576 74.7092621,163.621069 C74.8002138,163.712021 74.8705931,163.8138 74.9193172,163.926948 C74.9691241,164.039014 74.9924034,164.154869 74.9924034,164.27289 L74.9924034,164.569024" id="Fill-54" fill="#FFFFFE"></path>
            <polygon id="Fill-55" fill="#FFFFFE" points="75.2658 167.574762 75.8900103 167.574762 75.8900103 166.970583 75.2658 166.970583"></polygon>
            <path d="M78.2536724,166.626266 C78.2536724,166.764859 78.2276862,166.892624 78.1735483,167.011728 C78.1210345,167.13029 78.049031,167.233693 77.9569966,167.323021 C77.8649621,167.411266 77.757769,167.481645 77.6359586,167.533076 C77.5136069,167.585048 77.3831345,167.609952 77.2445414,167.609952 C77.1059483,167.609952 76.9754759,167.585048 76.8531241,167.533076 C76.7307724,167.481645 76.6241207,167.411266 76.5320862,167.323021 C76.4400517,167.233693 76.3680483,167.13029 76.3144517,167.011728 C76.2624793,166.892624 76.2354103,166.764859 76.2354103,166.626266 L76.2354103,163.354169 L76.8590793,163.354169 L76.8590793,166.567255 C76.8590793,166.717217 76.8964345,166.827659 76.9695207,166.899121 C77.0426069,166.970041 77.1346414,167.005772 77.2445414,167.005772 C77.3549828,167.005772 77.4464759,166.970041 77.5195621,166.899121 C77.5931897,166.827659 77.6300034,166.717217 77.6300034,166.567255 L77.6300034,163.354169 L78.2536724,163.354169 L78.2536724,166.626266" id="Fill-56" fill="#FFFFFE"></path>
            <polygon id="Fill-57" fill="#FFFFFE" points="78.5952828 167.574762 79.2189517 167.574762 79.2189517 166.970583 78.5952828 166.970583"></polygon>
            <path d="M81.6459552,164.569024 L81.0222862,164.569024 L81.0222862,164.433138 C81.0222862,164.295086 80.9881793,164.175441 80.9215897,164.074203 C80.8539172,163.974048 80.7413103,163.923159 80.5816034,163.923159 C80.4966069,163.923159 80.4262276,163.9394 80.3715483,163.9708 C80.3163276,164.0022 80.2730172,164.043345 80.2421586,164.091528 C80.2123828,164.141876 80.1907276,164.199803 80.1782759,164.264769 C80.1663655,164.329193 80.1604103,164.397948 80.1604103,164.468869 C80.1604103,164.5517 80.1631172,164.621538 80.1690724,164.678924 C80.1750276,164.73631 80.1907276,164.785576 80.2150897,164.827803 C80.2389103,164.868948 80.2757241,164.905221 80.3222828,164.936621 C80.3693828,164.968562 80.4332655,164.999962 80.5150138,165.031903 L80.991969,165.215431 C81.1305621,165.266321 81.2426276,165.328038 81.3281655,165.396252 C81.4131621,165.465548 81.4797517,165.546755 81.5268517,165.639331 C81.5739517,165.732448 81.6053517,165.838559 81.6215931,165.959828 C81.6378345,166.080014 81.6459552,166.217524 81.6459552,166.371276 C81.6459552,166.54939 81.6280897,166.713969 81.5912759,166.866097 C81.5544621,167.018224 81.494369,167.149238 81.4104552,167.258055 C81.3265414,167.36579 81.2155586,167.451869 81.0775069,167.51521 C80.9383724,167.579093 80.7694621,167.609952 80.5696931,167.609952 C80.4186483,167.609952 80.278431,167.585048 80.1479586,167.533076 C80.0169448,167.481645 79.9054207,167.411266 79.8112207,167.323021 C79.7181034,167.233693 79.6433931,167.128124 79.587631,167.005772 C79.5334931,166.883421 79.5053414,166.750783 79.5053414,166.608941 L79.5053414,166.383186 L80.1295517,166.383186 L80.1295517,166.572669 C80.1295517,166.683652 80.1631172,166.783266 80.2307897,166.872052 C80.2973793,166.961379 80.411069,167.005772 80.5696931,167.005772 C80.6763448,167.005772 80.7586345,166.991155 80.8176448,166.961379 C80.8766552,166.931603 80.9215897,166.889376 80.9524483,166.836862 C80.9822241,166.783266 81.0022552,166.717217 81.0103759,166.638717 C81.0179552,166.559134 81.0222862,166.471972 81.0222862,166.377231 C81.0222862,166.26679 81.0179552,166.175838 81.0103759,166.104376 C81.0022552,166.033455 80.984931,165.976069 80.9584034,165.9333 C80.9324172,165.889448 80.8945207,165.853176 80.8479621,165.826107 C80.8008621,165.798497 80.7386034,165.768721 80.6617276,165.737321 L80.2150897,165.559207 C79.9460241,165.452555 79.7657448,165.311255 79.6737103,165.135848 C79.5822172,164.959359 79.5367414,164.739017 79.5367414,164.474283 C79.5367414,164.316741 79.5589379,164.166238 79.6038724,164.023855 C79.6488069,163.882014 79.7148552,163.759662 79.8025586,163.6568 C79.8897207,163.554479 80.0017862,163.471648 80.1355069,163.411014 C80.2703103,163.348755 80.4273103,163.318979 80.6065069,163.318979 C80.7613414,163.318979 80.9031828,163.34659 81.0314897,163.401269 C81.1603379,163.457572 81.2702379,163.529576 81.361731,163.621069 C81.4537655,163.712021 81.5230621,163.8138 81.572869,163.926948 C81.6215931,164.039014 81.6459552,164.154869 81.6459552,164.27289 L81.6459552,164.569024" id="Fill-58" fill="#FFFFFE"></path>
            <polygon id="Fill-59" fill="#FFFFFE" points="81.9193517 167.574762 82.5430207 167.574762 82.5430207 166.970583 81.9193517 166.970583"></polygon>
            <polyline id="Fill-60" fill="#FFFFFE" points="83.1130931 163.923159 82.3908931 163.923159 82.3908931 163.354169 84.4578793 163.354169 84.4578793 163.923159 83.7362207 163.923159 83.7362207 167.574221 83.1130931 167.574221 83.1130931 163.923159"></polyline>
            <polygon id="Fill-61" fill="#FFFFFE" points="84.3057517 167.574762 84.9288793 167.574762 84.9288793 166.970583 84.3057517 166.970583"></polygon>
            <path d="M69.0946172,163.790521 C68.9056759,163.980003 68.597631,163.979462 68.4076069,163.789979 C68.2181241,163.599414 68.2175828,163.292452 68.4070655,163.102969 C68.5965483,162.913486 68.9045931,162.911862 69.0957,163.101886 C69.2851828,163.292452 69.2841,163.601038 69.0946172,163.790521 Z M66.8939103,165.991769 C66.704969,166.18071 66.3969241,166.18071 66.2069,165.991228 C66.0174172,165.801203 66.0168759,165.493159 66.2063586,165.303676 C66.3953,165.114193 66.7044276,165.112569 66.8944517,165.303134 C67.0844759,165.492617 67.0833931,165.802286 66.8939103,165.991769 Z M68.063831,162.758652 C67.9669241,162.855017 67.8868,162.976286 67.8397,163.10351 C67.7243862,163.488431 67.51,163.839786 67.2279414,164.122928 C66.9437172,164.404986 66.5929034,164.619914 66.2085241,164.734686 C66.0813,164.782869 65.9605724,164.862452 65.8625828,164.959359 C65.4830759,165.339407 65.4830759,165.954955 65.8625828,166.335003 C66.2431724,166.71451 66.8592621,166.71451 67.238769,166.335003 L67.2393103,166.333921 C67.3356759,166.237014 67.4147172,166.116286 67.4634414,165.988521 C67.5776724,165.604683 67.7931414,165.253869 68.0752,164.970186 C68.3588828,164.688128 68.7096966,164.473741 69.0940759,164.358428 C69.2207586,164.310245 69.3414862,164.231203 69.4389345,164.134838 L69.4394759,164.133755 C69.8189828,163.753707 69.8189828,163.138159 69.4394759,162.758652 C69.059969,162.378062 68.4438793,162.378062 68.063831,162.758652 Z" id="Fill-62" fill="#FFFFFE"></path>
            <path d="M70.0452793,162.152307 C69.8807,161.987728 69.7708,161.7885 69.7150379,161.577903 C69.6300414,161.700255 69.5342172,161.81611 69.429731,161.921679 C69.3236207,162.026707 69.2083069,162.12199 69.0859552,162.206986 C69.2965517,162.263831 69.4952379,162.372648 69.6603586,162.537769 C69.8249379,162.702348 69.9342966,162.901576 69.9906,163.112714 C70.0755966,162.988738 70.1708793,162.873966 70.2764483,162.768938 C70.3820172,162.663369 70.497331,162.567545 70.6196828,162.48309 C70.4096276,162.426245 70.2104,162.317428 70.0452793,162.152307" id="Fill-63" fill="#FFFFFE"></path>
            <path d="M73.4965724,159.389107 C73.3065483,159.57859 72.9990448,159.578048 72.8095621,159.388566 C72.6195379,159.198541 72.6195379,158.891038 72.8090207,158.701014 C72.9979621,158.512614 73.3065483,158.509907 73.4971138,158.700472 C73.6871379,158.890497 73.6860552,159.199624 73.4965724,159.389107 Z M71.2958655,161.589814 C71.1063828,161.779297 70.7983379,161.778755 70.6083138,161.589272 C70.418831,161.399248 70.418831,161.091203 70.6077724,160.902262 C70.7972552,160.712779 71.1053,160.710614 71.2964069,160.902262 C71.4858897,161.090662 71.4848069,161.400331 71.2958655,161.589814 Z M72.4652448,158.357238 C72.3688793,158.454145 72.2887552,158.574872 72.2405724,158.702097 C72.1263414,159.085934 71.9108724,159.437831 71.6298966,159.722055 C71.3456724,160.003572 70.9943172,160.2185 70.6099379,160.333272 C70.4827138,160.381455 70.3619862,160.460497 70.2645379,160.556862 C69.885031,160.937452 69.885031,161.552459 70.2645379,161.933048 C70.6445862,162.312555 71.2601345,162.312555 71.6401828,161.933048 L71.6412655,161.932507 C71.737631,161.835059 71.8166724,161.714331 71.8643138,161.587107 C71.9796276,161.203269 72.1945552,160.852455 72.4766138,160.568772 C72.7597552,160.286714 73.1111103,160.072328 73.4954897,159.957014 C73.6227138,159.908831 73.7434414,159.829248 73.8403483,159.733966 L73.841431,159.732341 C74.2209379,159.352834 74.2209379,158.736745 73.841431,158.357238 C73.4608414,157.976648 72.8458345,157.976648 72.4652448,158.357238 Z" id="Fill-64" fill="#FFFFFE"></path>
            <path d="M86.7018966,146.184324 C86.5118724,146.373266 86.204369,146.373266 86.0138034,146.183241 C85.8248621,145.993759 85.8248621,145.685714 86.0132621,145.496231 C86.2032862,145.30729 86.5118724,145.304583 86.7024379,145.49569 C86.8919207,145.685172 86.8908379,145.994841 86.7018966,146.184324 Z M84.5001069,148.385031 C84.3111655,148.574514 84.0036621,148.573431 83.8130966,148.38449 C83.6230724,148.193924 83.622531,147.886421 83.8125552,147.697479 C84.0014966,147.507997 84.3106241,147.505831 84.5006483,147.696397 C84.6906724,147.885879 84.6895897,148.19609 84.5001069,148.385031 Z M85.670569,145.151372 L85.670569,145.151914 C85.5742034,145.249362 85.4940793,145.37009 85.4464379,145.497314 C85.3316655,145.881152 85.1167379,146.232507 84.8346793,146.516731 C84.5504552,146.798248 84.1991,147.013717 83.8147207,147.127948 C83.6874966,147.176131 83.566769,147.255714 83.4693207,147.352621 C83.0898138,147.732669 83.0898138,148.348217 83.4693207,148.728266 C83.8488276,149.108314 84.4649172,149.108314 84.8444241,148.728266 L84.8460483,148.727724 C84.9424138,148.630276 85.0219966,148.509007 85.0696379,148.382866 C85.1849517,147.998486 85.3998793,147.64659 85.6813966,147.363448 C85.9656207,147.081931 86.3164345,146.866462 86.7013552,146.75169 C86.8274966,146.703507 86.9487655,146.624466 87.0456724,146.5281 L87.0467552,146.527559 C87.4262621,146.146969 87.4262621,145.531421 87.0467552,145.151372 C86.6661655,144.771866 86.0506172,144.771866 85.670569,145.151372 Z" id="Fill-65" fill="#FFFFFE"></path>
            <path d="M87.6525586,144.54611 C87.4874379,144.380448 87.3780793,144.181762 87.3212345,143.970624 C87.2373207,144.094059 87.1409552,144.209372 87.0359276,144.3144 C86.9309,144.419969 86.8150448,144.515793 86.6921517,144.600248 C86.9027483,144.656552 87.1025172,144.76591 87.2670966,144.931031 C87.4322172,145.096152 87.5415759,145.295379 87.5978793,145.505434 C87.6817931,145.383083 87.7781586,145.267769 87.8837276,145.1622 C87.9892966,145.057172 88.1046103,144.961348 88.2269621,144.876352 C88.0169069,144.820048 87.8165966,144.71069 87.6525586,144.54611" id="Fill-66" fill="#FFFFFE"></path>
            <path d="M91.1038517,141.782369 C90.9138276,141.971852 90.6063241,141.97131 90.4157586,141.781828 C90.2268172,141.591803 90.2262759,141.2843 90.4152172,141.094276 C90.6052414,140.905334 90.9132862,140.902628 91.1043931,141.093734 C91.2933345,141.2843 91.2922517,141.593428 91.1038517,141.782369 Z M88.9020621,143.983617 C88.7136621,144.172559 88.4056172,144.172559 88.2155931,143.982534 C88.025569,143.79251 88.0250276,143.484466 88.2150517,143.295524 C88.4034517,143.106041 88.7125793,143.104417 88.9031448,143.294983 C89.093169,143.484466 89.0920862,143.794134 88.9020621,143.983617 Z M90.0719828,140.749959 C89.9756172,140.847407 89.8960345,140.968676 89.8478517,141.095359 C89.7330793,141.480279 89.5181517,141.830552 89.2360931,142.114776 C88.9524103,142.396293 88.6015966,142.611762 88.2172172,142.726534 C88.0894517,142.774176 87.9692655,142.853759 87.8718172,142.951748 C87.4912276,143.330714 87.4912276,143.946803 87.8718172,144.32631 C88.2513241,144.706359 88.8674138,144.706359 89.2469207,144.32631 L89.2474621,144.325769 C89.3449103,144.228321 89.4234103,144.108134 89.4715931,143.98091 C89.5863655,143.596531 89.8012931,143.245717 90.0828103,142.961493 C90.3670345,142.679976 90.7178483,142.465048 91.1022276,142.349734 C91.2289103,142.302093 91.3501793,142.22251 91.4476276,142.126145 L91.448169,142.125603 C91.8276759,141.745555 91.8276759,141.129466 91.448169,140.749959 C91.0681207,140.370452 90.4525724,140.370452 90.0719828,140.749959 Z" id="Fill-67" fill="#FFFFFE"></path>
            <path d="M88.9036862,163.102969 C89.0937103,163.292452 89.093169,163.599414 88.9031448,163.789979 C88.7136621,163.980003 88.4056172,163.980003 88.2161345,163.790521 C88.0261103,163.601579 88.0244862,163.292993 88.2155931,163.101886 C88.4056172,162.912403 88.7147448,162.913486 88.9036862,163.102969 Z M91.1049345,165.303676 C91.2938759,165.493159 91.2933345,165.801203 91.1043931,165.991228 C90.914369,166.18071 90.6063241,166.18071 90.4173828,165.991769 C90.2279,165.802286 90.2262759,165.4937 90.4157586,165.303134 C90.6063241,165.11311 90.9154517,165.114193 91.1049345,165.303676 Z M87.8718172,164.133755 C87.9692655,164.231203 88.0894517,164.310245 88.2172172,164.358428 C88.6015966,164.473741 88.9524103,164.688128 89.2360931,164.970186 C89.5181517,165.253869 89.7330793,165.604683 89.8478517,165.988521 C89.8960345,166.116828 89.9756172,166.237014 90.0719828,166.335003 C90.4525724,166.71451 91.0681207,166.71451 91.448169,166.335003 C91.8276759,165.954955 91.8276759,165.339407 91.448169,164.959359 L91.4476276,164.958276 C91.3501793,164.861369 91.2294517,164.782869 91.1022276,164.734686 C90.7178483,164.619914 90.3670345,164.404986 90.0828103,164.122928 C89.8012931,163.839786 89.5869069,163.488431 89.4715931,163.10351 C89.4234103,162.977369 89.3449103,162.8561 89.2474621,162.759734 L89.2469207,162.758652 C88.8674138,162.378062 88.2513241,162.378062 87.8718172,162.758652 C87.4912276,163.138159 87.4912276,163.753707 87.8718172,164.133755 Z" id="Fill-68" fill="#FFFFFE"></path>
            <path d="M87.2660138,162.152307 C87.1003517,162.317428 86.9016655,162.426245 86.6905276,162.48309 C86.8139621,162.567545 86.9292759,162.663369 87.0348448,162.767855 C87.139331,162.873966 87.2351552,162.988738 87.3201517,163.112714 C87.3769966,162.901576 87.4863552,162.702348 87.6509345,162.537769 C87.8160552,162.372648 88.0147414,162.263831 88.2258793,162.206986 C88.1029862,162.12199 87.9876724,162.026707 87.8821034,161.921679 C87.7759931,161.815569 87.6807103,161.700255 87.5957138,161.577903 C87.5399517,161.7885 87.4311345,161.987728 87.2660138,162.152307" id="Fill-69" fill="#FFFFFE"></path>
            <path d="M84.5011897,158.701014 C84.6912138,158.891038 84.6912138,159.198541 84.5006483,159.388566 C84.3117069,159.57859 84.0042034,159.57859 83.8141793,159.389107 C83.6246966,159.199624 83.622531,158.891579 83.8130966,158.700472 C84.0036621,158.51099 84.3127897,158.512614 84.5011897,158.701014 Z M86.7029793,160.902262 C86.8930034,161.091203 86.8919207,161.399248 86.7024379,161.589272 C86.5124138,161.778755 86.2049103,161.779297 86.0154276,161.589814 C85.8259448,161.400872 85.8243207,161.091745 86.0138034,160.902262 C86.204369,160.711155 86.5134966,160.712779 86.7029793,160.902262 Z M83.4693207,159.732341 C83.5673103,159.828707 83.6874966,159.908831 83.8147207,159.957014 C84.1991,160.072328 84.5504552,160.286714 84.8346793,160.568772 C85.1167379,160.852455 85.3316655,161.203269 85.4464379,161.587107 C85.4940793,161.714872 85.5742034,161.8356 85.670569,161.933048 C86.0511586,162.312555 86.6661655,162.312555 87.0467552,161.933048 C87.4262621,161.552459 87.4262621,160.937452 87.0467552,160.556862 L87.0456724,160.556862 C86.9487655,160.459414 86.8274966,160.381455 86.7013552,160.333272 C86.3164345,160.2185 85.9656207,160.003572 85.6813966,159.722055 C85.3998793,159.437831 85.1849517,159.085934 85.0701793,158.702097 C85.0219966,158.574872 84.9424138,158.454145 84.8460483,158.357779 L84.8444241,158.357238 C84.4649172,157.976648 83.849369,157.976648 83.4693207,158.357238 C83.0898138,158.736745 83.0898138,159.352834 83.4693207,159.732341 Z" id="Fill-70" fill="#FFFFFE"></path>
            <path d="M71.2969483,145.496231 C71.486431,145.685714 71.4858897,145.993759 71.2964069,146.183241 C71.1069241,146.373266 70.7983379,146.373807 70.6093966,146.184324 C70.4199138,145.994841 70.4177483,145.686255 70.6083138,145.49569 C70.7983379,145.305124 71.1080069,145.30729 71.2969483,145.496231 Z M73.4981966,147.697479 C73.6876793,147.886421 73.6871379,148.193924 73.4971138,148.38449 C73.307631,148.573431 72.9995862,148.574514 72.8101034,148.385031 C72.6211621,148.19609 72.6189966,147.886962 72.8095621,147.696397 C72.9995862,147.506914 73.3087138,147.507997 73.4981966,147.697479 Z M70.2645379,146.527559 C70.3619862,146.624466 70.4827138,146.703507 70.6099379,146.75169 C70.9943172,146.866462 71.3456724,147.081931 71.6298966,147.363448 C71.9119552,147.64659 72.1263414,147.998486 72.2405724,148.382866 C72.2887552,148.51009 72.3688793,148.630817 72.4652448,148.728266 C72.8458345,149.108314 73.4613828,149.108314 73.841431,148.728266 C74.2209379,148.348217 74.2209379,147.732669 73.841431,147.352621 L73.8408897,147.351538 C73.7434414,147.255172 73.6227138,147.176131 73.4954897,147.127948 C73.1111103,147.013717 72.7597552,146.798248 72.4766138,146.516731 C72.1945552,146.232507 71.9796276,145.881152 71.8643138,145.497314 C71.8166724,145.37009 71.737631,145.249362 71.6412655,145.152455 L71.6401828,145.151372 C71.2601345,144.771866 70.6445862,144.771866 70.2645379,145.151372 C69.885031,145.531421 69.885031,146.146969 70.2645379,146.527559 Z" id="Fill-71" fill="#FFFFFE"></path>
            <path d="M69.6587345,144.54611 C69.4941552,144.71069 69.2949276,144.820048 69.0837897,144.876352 C69.2066828,144.961348 69.3219966,145.056631 69.4275655,145.1622 C69.5331345,145.267769 69.6284172,145.383083 69.7134138,145.505434 C69.7697172,145.295379 69.8790759,145.096152 70.0441966,144.931031 C70.2087759,144.76591 70.4085448,144.656552 70.6186,144.600248 C70.4962483,144.515793 70.3809345,144.419969 70.2753655,144.3144 C70.1697966,144.209372 70.0739724,144.094059 69.9895172,143.970624 C69.9332138,144.181221 69.8238552,144.380448 69.6587345,144.54611" id="Fill-72" fill="#FFFFFE"></path>
            <path d="M66.8955345,141.094276 C67.0855586,141.2843 67.0844759,141.591803 66.8944517,141.781828 C66.704969,141.97131 66.3974655,141.971852 66.2074414,141.782369 C66.0179586,141.593428 66.0163345,141.284841 66.2069,141.093734 C66.3969241,140.904252 66.7060517,140.905334 66.8955345,141.094276 Z M69.0962414,143.295524 C69.2857241,143.484466 69.2851828,143.79251 69.0957,143.982534 C68.9056759,144.172559 68.597631,144.172559 68.4081483,143.983617 C68.2192069,143.794134 68.2175828,143.48609 68.4076069,143.294983 C68.597631,143.104959 68.9067586,143.106041 69.0962414,143.295524 Z M65.8631241,142.125603 C65.9605724,142.22251 66.0813,142.301552 66.2085241,142.349734 C66.5929034,142.465048 66.9437172,142.679976 67.2279414,142.961493 C67.51,143.245717 67.7243862,143.596531 67.8397,143.98091 C67.8878828,144.108134 67.9669241,144.229403 68.063831,144.32631 C68.4438793,144.706359 69.059969,144.706359 69.4394759,144.32631 C69.8189828,143.946803 69.8189828,143.330714 69.4394759,142.951748 L69.4389345,142.950124 C69.3414862,142.853217 69.2207586,142.774176 69.0940759,142.726534 C68.7096966,142.611762 68.3588828,142.396293 68.0752,142.114776 C67.7931414,141.830552 67.5776724,141.480279 67.4634414,141.095359 C67.4147172,140.969217 67.3356759,140.847948 67.2393103,140.7505 L67.238769,140.749959 C66.8592621,140.370452 66.2431724,140.370452 65.8625828,140.749959 C65.4830759,141.129466 65.4830759,141.745555 65.8631241,142.125603 Z" id="Fill-73" fill="#FFFFFE"></path>
            <path d="M78.6553759,172.269603 C68.3123241,172.269603 59.9279828,163.885803 59.9279828,153.54221 C59.9279828,143.1997 68.3123241,134.814276 78.6553759,134.814276 C88.9984276,134.814276 97.3822276,143.1997 97.3822276,153.54221 C97.3822276,163.885803 88.9984276,172.269603 78.6553759,172.269603 Z M99.6598103,153.404159 C99.7155724,153.398745 99.7578,153.352728 99.7567172,153.297507 L99.7480552,152.731224 C99.7475138,152.687372 99.7188207,152.648393 99.6776759,152.633234 C99.4546276,152.554734 98.7221414,152.258059 98.6842448,151.757283 C98.6517621,151.322014 98.9235345,151.041038 99.4930655,150.921934 C99.5477448,150.911107 99.5840172,150.860217 99.5764379,150.804455 L99.5011862,150.244128 C99.495231,150.199734 99.4622069,150.164545 99.4194379,150.1548 C99.1877276,150.102828 98.4254655,149.895479 98.3291,149.402824 C98.2457276,148.97351 98.4828517,148.662217 99.0334345,148.478148 C99.0859483,148.459741 99.1157241,148.404521 99.1021897,148.350924 L98.9608897,147.803048 C98.9500621,147.760279 98.9137897,147.728879 98.8693966,147.724007 C98.6338966,147.699645 97.8526862,147.58379 97.6989345,147.105752 C97.564131,146.690514 97.7633586,146.353234 98.2884966,146.1042 C98.3383034,146.080379 98.3615828,146.022452 98.3415517,145.970479 L98.136369,145.442634 C98.120669,145.402031 98.0816897,145.374962 98.0378379,145.374962 C98.0372966,145.374962 98.0372966,145.374962 98.0367552,145.374962 L98.0004828,145.376045 C97.7048897,145.376045 96.9973069,145.329486 96.8002448,144.900172 C96.6183414,144.5028 96.7753414,144.144948 97.2679966,143.835279 C97.3145552,143.806586 97.3313379,143.744869 97.3048103,143.697228 L97.0389931,143.196993 C97.0184207,143.157472 96.974569,143.135817 96.9312586,143.141772 C96.8484276,143.153141 96.716331,143.166134 96.5647448,143.166134 C96.1051138,143.166134 95.7884069,143.044866 95.6476483,142.815862 C95.4197276,142.442852 95.5339586,142.0693 95.9860103,141.703869 C96.0293207,141.668679 96.0379828,141.606421 96.0065828,141.561486 L95.6828379,141.096983 C95.6584759,141.059628 95.613,141.042845 95.5707724,141.054214 C95.4484207,141.085614 95.2064241,141.138669 94.9514345,141.138669 C94.6244414,141.138669 94.3911069,141.052048 94.2573862,140.882597 C93.9866966,140.539903 94.0554517,140.154983 94.4614862,139.738121 C94.5004655,139.698059 94.5015483,139.6358 94.4652759,139.594114 L94.0884759,139.171297 C94.0597828,139.138272 94.0126828,139.126903 93.9720793,139.142603 C93.8421483,139.192952 93.504869,139.310972 93.1832897,139.310972 C92.9494138,139.310972 92.7696759,139.249255 92.6473241,139.127445 C92.3381966,138.818317 92.3614759,138.427983 92.7149966,137.966728 C92.7491034,137.922876 92.7431483,137.860076 92.7009207,137.823803 L92.2781034,137.448086 C92.2450793,137.41831 92.1968966,137.412897 92.1584586,137.433469 C92.0068724,137.514676 91.6159966,137.701452 91.2581448,137.701452 C91.0886931,137.701452 90.9490172,137.659224 90.8418241,137.574769 C90.4985897,137.304621 90.4753103,136.913745 90.7714448,136.414593 C90.7995966,136.366952 90.7866034,136.305234 90.7411276,136.273834 L90.2755414,135.950631 C90.2398103,135.925186 90.192169,135.925186 90.1558966,135.950631 C90.0275897,136.039417 89.579869,136.330138 89.1862862,136.330138 C89.0639345,136.330138 88.9556586,136.301445 88.8652483,136.246766 C88.4916966,136.018303 88.4218586,135.633924 88.6579,135.102831 C88.6800966,135.051941 88.6600655,134.991848 88.6108,134.966403 L88.1105655,134.700586 C88.0721276,134.679472 88.0244862,134.685428 87.9914621,134.714662 C87.8604483,134.831059 87.4002759,135.21219 86.9861207,135.21219 C86.8989586,135.21219 86.8182931,135.194866 86.7446655,135.1613 C86.3478345,134.979397 86.2330621,134.605303 86.4035966,134.049848 C86.4198379,133.996793 86.3933103,133.939948 86.3418793,133.920459 L85.8134931,133.715276 C85.7728897,133.699576 85.7257897,133.709862 85.6965552,133.743428 C85.5682483,133.887976 85.1156552,134.360059 84.6803862,134.360059 C84.6219172,134.360059 84.564531,134.351397 84.5109345,134.334614 C84.0940724,134.200893 83.936531,133.841959 84.0410172,133.270803 C84.0507621,133.215583 84.0171966,133.16361 83.9636,133.149534 L83.4157241,133.008234 C83.3724138,132.997407 83.3274793,133.01419 83.3025759,133.050462 C83.182931,133.223703 82.7552414,133.787279 82.2988586,133.787279 C82.2642103,133.787279 82.2295621,133.78349 82.1959966,133.776993 C81.7661414,133.693621 81.5674552,133.357424 81.6031862,132.777066 C81.6069759,132.721303 81.5674552,132.672579 81.5116931,132.665541 L80.9508241,132.59029 C80.9075138,132.584334 80.8642034,132.60599 80.8430897,132.64551 C80.7342724,132.850693 80.3276966,133.534997 79.8307103,133.498183 C79.3943586,133.465159 79.1566931,133.154948 79.1242103,132.57459 C79.1209621,132.518828 79.0754862,132.475517 79.0202655,132.474976 L78.4058,132.466314 C78.3641138,132.466314 78.3218862,132.492841 78.3061862,132.533986 C78.2211897,132.75541 77.9044828,133.479776 77.4031655,133.503055 C76.9581517,133.522545 76.6928759,133.252397 76.5910966,132.670955 C76.5813517,132.616276 76.5310034,132.578379 76.4757828,132.584334 L75.9127483,132.644428 C75.8688966,132.648759 75.8320828,132.680159 75.8212552,132.723469 C75.7627862,132.953014 75.5343241,133.708779 75.0389621,133.79161 C74.6015276,133.864697 74.3043103,133.625407 74.1337759,133.061831 C74.1175345,133.008776 74.0633966,132.977376 74.0092586,132.989828 L73.4575931,133.115969 C73.4142828,133.125714 73.3818,133.160903 73.3758448,133.205297 C73.3455276,133.439714 73.2080172,134.217676 72.7256483,134.358976 C72.3055379,134.481328 71.973131,134.272897 71.7408793,133.741262 C71.7186828,133.689831 71.6602138,133.665469 71.6087828,133.683334 L71.0755241,133.874441 C71.0338379,133.888517 71.0056862,133.928038 71.0051448,133.972972 C71.0024379,134.209014 70.9580448,134.997803 70.4957069,135.194866 C70.0929207,135.365941 69.7388586,135.198655 69.4443483,134.697879 C69.4167379,134.650238 69.3561034,134.631831 69.3068379,134.656734 L68.7995655,134.909017 C68.7600448,134.927966 68.7367655,134.970193 68.7416379,135.014045 C68.7670828,135.250086 68.8158069,136.038876 68.3805379,136.288452 C68.2581862,136.35829 68.1358345,136.393479 68.016731,136.393479 C67.7612,136.393479 67.5192034,136.238645 67.2777483,135.919231 C67.2436414,135.875379 67.1824655,135.864552 67.1359069,135.894869 L66.6622,136.205621 C66.6248448,136.229441 66.6069793,136.274376 66.6172655,136.317145 C66.6697793,136.548314 66.8121621,137.324652 66.4088345,137.625117 C66.2734897,137.725272 66.1321897,137.776703 65.9881828,137.776703 C65.7564724,137.776703 65.5215138,137.650021 65.2708552,137.388534 C65.2318759,137.349014 65.1690759,137.345766 65.1263069,137.381497 L64.6932034,137.744762 C64.6590966,137.773455 64.6466448,137.819472 64.6612621,137.861159 C64.7413862,138.084748 64.9741793,138.83889 64.6092897,139.185372 C64.4658241,139.320717 64.3066586,139.389472 64.1355828,139.389472 C63.9249862,139.389472 63.7013966,139.289859 63.4512793,139.085217 C63.407969,139.050569 63.345169,139.053817 63.3072724,139.094962 L62.9196448,139.506952 C62.889869,139.539434 62.882831,139.587076 62.9017793,139.626597 C63.0078897,139.838817 63.3283862,140.561559 63.0068069,140.947021 C62.8611759,141.121886 62.6841448,141.210672 62.4811276,141.210672 C62.2916448,141.210672 62.0832138,141.137045 61.8444655,140.984376 C61.7979069,140.9546 61.7361897,140.96651 61.7037069,141.011445 L61.3675103,141.466203 C61.3409828,141.501934 61.3399,141.550117 61.3637207,141.586931 C61.4941931,141.785076 61.8969793,142.464507 61.6235828,142.8857 C61.4801172,143.107124 61.2906345,143.2154 61.0437655,143.2154 C60.8764793,143.2154 60.6897034,143.16451 60.4747759,143.060566 C60.4244276,143.036745 60.3643345,143.055152 60.3367241,143.103876 L60.0579138,143.595448 C60.0357172,143.633886 60.0395069,143.682069 60.0682,143.715634 C60.220869,143.897538 60.7021552,144.523914 60.4796483,144.9738 C60.3486345,145.2407 60.1331655,145.376045 59.8381138,145.376045 C59.695731,145.376045 59.5392724,145.345728 59.3600759,145.284552 C59.3064793,145.266686 59.2496345,145.292131 59.2274379,145.343562 L59.0087207,145.86491 C58.9908552,145.906055 59.0006,145.952614 59.0330828,145.982931 C59.2063241,146.144803 59.7579897,146.710545 59.5907034,147.18371 C59.444531,147.59949 59.0839724,147.746745 58.5149828,147.623852 C58.4603034,147.611941 58.4067069,147.645507 58.3915483,147.698021 L58.2350897,148.242648 C58.2226379,148.284334 58.2383379,148.330352 58.274069,148.356338 C58.4646345,148.496555 59.0785586,148.993541 58.9692,149.482948 C58.8728345,149.912803 58.5268931,150.101203 57.953031,150.047607 C57.8983517,150.042193 57.8485448,150.081172 57.8388,150.13531 L57.7478483,150.694014 C57.7408103,150.737866 57.7613828,150.781176 57.7998207,150.803372 C58.0066276,150.919769 58.675231,151.340421 58.6243414,151.839572 C58.5799483,152.275383 58.2621586,152.504386 57.6812586,152.519545 C57.6260379,152.521169 57.5811034,152.565562 57.5789379,152.620783 L57.5545759,153.186524 C57.5524103,153.230376 57.5783966,153.270979 57.619,153.287762 C57.8371759,153.379797 58.5512552,153.718159 58.5593759,154.220017 C58.5669552,154.657452 58.2789414,154.922186 57.7039966,155.007724 C57.6493172,155.015303 57.6097966,155.064569 57.6135862,155.119248 L57.6568966,155.683907 C57.6601448,155.7283 57.6910034,155.765655 57.733231,155.777566 C57.9606103,155.843072 58.7093379,156.094814 58.7770103,156.5918 C58.8365621,157.024903 58.5815724,157.322121 58.0201621,157.47479 C57.9671069,157.489407 57.9335414,157.543003 57.9449103,157.5966 L58.0531862,158.152597 C58.0623897,158.195366 58.0964966,158.228931 58.1403483,158.235969 C58.3747655,158.273866 59.1473138,158.435197 59.2734552,158.921355 C59.3833552,159.344172 59.1662621,159.669541 58.6265069,159.887176 C58.5750759,159.90829 58.5490897,159.964593 58.5658724,160.017107 L58.7396552,160.555779 C58.7531897,160.597466 58.7916276,160.6267 58.8365621,160.629407 C59.0726034,160.63861 59.8581448,160.7052 60.0416724,161.175659 C60.2013793,161.582776 60.0232655,161.930341 59.5138276,162.211317 C59.4651034,162.237845 59.4456138,162.297938 59.4688931,162.347745 L59.7049345,162.862597 C59.7238828,162.902659 59.7650276,162.927021 59.8094207,162.923231 C59.8554379,162.919983 59.9296069,162.916193 60.0189345,162.916193 C60.4000655,162.916193 60.8916379,162.986031 61.0719172,163.32331 C61.2776414,163.708231 61.1422966,164.075286 60.669131,164.414731 C60.6247379,164.446672 60.6117448,164.507848 60.6409793,164.554948 L60.9365724,165.0384 C60.9598517,165.075755 61.0037034,165.095245 61.0470138,165.086041 C61.1439207,165.067093 61.3393586,165.035152 61.5542862,165.035152 C61.9424552,165.035152 62.2093552,165.135848 62.3479483,165.333993 C62.5975241,165.692386 62.5071138,166.072976 62.0772586,166.464393 C62.0366552,166.501748 62.0312414,166.564548 62.0658897,166.607859 L62.4167034,167.052331 C62.4437724,167.086979 62.4897897,167.101597 62.5314759,167.087521 C62.647331,167.050166 62.9483379,166.963545 63.2455552,166.963545 C63.5211172,166.963545 63.7246759,167.03609 63.8529828,167.180097 C64.1437034,167.506007 64.0982276,167.894717 63.7181793,168.334317 C63.6819069,168.376545 63.6840724,168.439345 63.7230517,168.478324 L64.1236724,168.877862 C64.1550724,168.909803 64.2027138,168.917924 64.2427759,168.899517 C64.3851586,168.83401 64.7522138,168.681883 65.0943655,168.681883 C65.2925103,168.681883 65.4511345,168.733314 65.5653655,168.834552 C65.8929,169.124731 65.8934414,169.515607 65.5686138,169.997434 C65.5372138,170.043993 65.5469586,170.105169 65.5908103,170.139276 L66.0358241,170.489007 C66.0704724,170.516617 66.1186552,170.519324 66.1560103,170.496045 C66.3151759,170.399138 66.725,170.1723 67.0963862,170.1723 C67.2398517,170.1723 67.3627448,170.206948 67.4618172,170.275162 C67.8212931,170.524197 67.8683931,170.912907 67.6020345,171.429383 C67.5765897,171.478648 67.5933724,171.539283 67.6410138,171.567976 L68.1244655,171.863569 C68.1618207,171.885766 68.2100034,171.883059 68.2451931,171.855448 C68.3751241,171.752586 68.8315069,171.416931 69.2359172,171.416931 C69.3393207,171.416931 69.4335207,171.439669 69.5147276,171.482438 C69.9012724,171.687079 69.9943897,172.066586 69.790831,172.611755 C69.7713414,172.663186 69.7951621,172.721114 69.8460517,172.744393 L70.3603621,172.979893 C70.4009655,172.9983 70.4475241,172.989638 70.4794655,172.958238 C70.6093966,172.827766 71.0684862,172.400617 71.4929276,172.400617 C71.564931,172.400617 71.6336862,172.413069 71.6970276,172.43689 C72.1041448,172.594972 72.2411138,172.960945 72.1041448,173.525603 C72.0911517,173.580283 72.121469,173.634421 72.1745241,173.651745 L72.7137379,173.824986 C72.7554241,173.837979 72.8014414,173.824445 72.8285103,173.789797 C72.953569,173.630631 73.3953345,173.111448 73.8408897,173.111448 C73.8869069,173.111448 73.9323828,173.116862 73.9762345,173.128231 C74.3995931,173.236507 74.579331,173.584072 74.5094931,174.161183 C74.5029966,174.216403 74.5398103,174.266752 74.5939483,174.277579 L75.1499448,174.385314 C75.1927138,174.393976 75.2371069,174.374486 75.2603862,174.33659 C75.3735345,174.149814 75.7817345,173.540221 76.250569,173.540221 C76.2738483,173.540221 76.2982103,173.541845 76.3209483,173.544552 C76.7540517,173.601397 76.9738517,173.925683 76.972769,174.507124 C76.9722276,174.562886 77.0155379,174.608903 77.0707586,174.612152 L77.6348759,174.653838 C77.6375828,174.653838 77.6402897,174.653838 77.6429966,174.653838 C77.6836,174.653838 77.7214966,174.630559 77.7388207,174.593203 C77.836269,174.378817 78.1935793,173.680438 78.6905655,173.680438 L78.6986862,173.680438 C79.1361207,173.686393 79.3916517,173.982528 79.4593241,174.559638 C79.4658207,174.614859 79.5150862,174.657086 79.5692241,174.652755 L80.1344241,174.62731 C80.1782759,174.625145 80.2167138,174.59591 80.2302483,174.554224 C80.3022517,174.328469 80.5761897,173.587321 81.0753414,173.534807 C81.5181897,173.488248 81.7991655,173.743779 81.9350517,174.317641 C81.9480448,174.371779 81.9994759,174.406428 82.0557793,174.397766 L82.6134,174.30519 C82.6567103,174.29761 82.6913586,174.264045 82.7000207,174.220734 C82.7444138,173.988483 82.9295655,173.220266 83.418431,173.109283 C83.8509931,173.010752 84.1622862,173.232717 84.3647621,173.784383 C84.3842517,173.836355 84.4405552,173.865048 84.4936103,173.849348 L85.0371552,173.691807 C85.0804655,173.679355 85.1097,173.642 85.1134897,173.598148 C85.1302724,173.362107 85.2223069,172.576566 85.6960138,172.408738 C86.1069207,172.262024 86.4517793,172.449341 86.715431,172.968524 C86.7397931,173.01779 86.7993448,173.038903 86.8502345,173.01779 L87.3715828,172.796907 C87.4121862,172.779041 87.437631,172.738438 87.4360069,172.695128 C87.4251793,172.458003 87.4240966,171.668131 87.8734414,171.445083 C88.2648586,171.250186 88.6281241,171.395817 88.951869,171.879269 C88.9827276,171.925286 89.0444448,171.940445 89.0920862,171.912293 L89.5831172,171.631317 C89.6215552,171.609662 89.6421276,171.56581 89.6350897,171.5225 C89.5961103,171.288624 89.5019103,170.504707 89.9214793,170.229686 C90.0514103,170.145231 90.1835069,170.102462 90.3145207,170.102462 C90.5581414,170.102462 90.7968897,170.243762 91.0437586,170.533941 C91.0805724,170.576169 91.142831,170.583207 91.1877655,170.550183 L91.6414414,170.213445 C91.6771724,170.186376 91.6928724,170.1409 91.6804207,170.098672 C91.613831,169.871293 91.4270552,169.103076 91.8125172,168.780955 C91.9527345,168.663476 92.1032379,168.603924 92.2596966,168.603924 C92.4816621,168.603924 92.7112069,168.716531 92.9624069,168.950407 C93.0035517,168.987762 93.0663517,168.987221 93.1069552,168.948783 L93.5184034,168.561155 C93.5498034,168.530838 93.5600897,168.483738 93.5427655,168.443134 C93.4501897,168.224959 93.1746276,167.484893 93.5189448,167.119462 C93.6640345,166.964086 93.8324034,166.886128 94.0180966,166.886128 C94.2178655,166.886128 94.4344172,166.97329 94.6807448,167.150862 C94.7245966,167.183886 94.7873966,167.175766 94.823669,167.133538 L95.1863931,166.69881 C95.2145448,166.665245 95.2183345,166.617062 95.1961379,166.578624 C95.0786586,166.3729 94.7175586,165.670731 95.0153172,165.266862 C95.1631138,165.068176 95.3433931,164.971269 95.5675241,164.971269 C95.7467207,164.971269 95.9448655,165.034069 96.173869,165.161293 C96.2225931,165.188903 96.2832276,165.173745 96.3140862,165.127186 L96.622131,164.653479 C96.6464931,164.615583 96.644869,164.5674 96.6183414,164.532752 C96.4775828,164.341645 96.0352759,163.686576 96.2843103,163.251848 C96.4239862,163.006603 96.6226724,162.8875 96.8922793,162.8875 C97.0481966,162.8875 97.2214379,162.927021 97.4212069,163.00931 C97.4720966,163.030424 97.5316483,163.008228 97.5560103,162.958421 L97.806669,162.451148 C97.8261586,162.411628 97.8185793,162.363986 97.7877207,162.331503 C97.6253069,162.159886 97.1093724,161.561662 97.3048103,161.099866 C97.4277034,160.806979 97.6550828,160.659183 97.9809931,160.659183 C98.1082172,160.659183 98.2468103,160.680838 98.4048931,160.72469 C98.4584897,160.739848 98.5142517,160.710614 98.5326586,160.658641 L98.7216,160.124841 C98.7362172,160.083697 98.7237655,160.037138 98.6896586,160.008445 C98.5077552,159.856859 97.9246897,159.324141 98.0638241,158.842314 C98.1861759,158.418414 98.5396966,158.251128 99.1124759,158.339914 C99.1666138,158.348034 99.2191276,158.313386 99.2310379,158.258707 L99.3560966,157.707041 C99.3658414,157.663731 99.3468931,157.618797 99.3106207,157.594976 C99.1119345,157.466128 98.4693172,157.006497 98.5505241,156.510593 C98.6187379,156.096979 98.9229931,155.886924 99.4557103,155.886924 C99.4800724,155.886924 99.5060586,155.886924 99.5320448,155.888007 C99.5845586,155.890172 99.6359897,155.849028 99.6414034,155.793807 L99.6998724,155.230231 C99.7042034,155.186921 99.6809241,155.145234 99.6408621,155.125203 C99.4286414,155.020717 98.7362172,154.639586 98.7584138,154.138269 C98.7779034,153.701376 99.0805345,153.454507 99.6598103,153.404159 Z" id="Fill-74" fill="#FFFFFE"></path>
        </g>
    </g>
</svg>