<?xml version="1.0" encoding="UTF-8"?>
<svg width="157px" height="178px" viewBox="0 0 157 178" version="1.1" xmlns="http://www.w3.org/2000/svg" xmlns:xlink="http://www.w3.org/1999/xlink">
    <!-- Generator: Sketch 52.5 (67469) - http://www.bohemiancoding.com/sketch -->
    <title>maximus-ride-logo-2019</title>
    <desc>Created with Sketch.</desc>
    <g id="Page-1" stroke="none" stroke-width="1" fill="none" fill-rule="evenodd">
        <g id="maximus-ride-logo-2019">
            <g id="Group-31">
                <path d="M97.0878289,52.1581515 C91.6365299,53.1260485 87.2167911,49.460557 87.2167911,43.9736498 C87.2167911,40.382612 89.1088838,36.9021756 91.9429766,34.6529213 L96.119932,42.1209419 C95.5485814,42.8838216 96.8919835,44.0837117 97.7212241,42.9879488 C98.8094337,41.5474333 97.06409,41.0904608 97.06409,41.0904608 C96.8337155,40.4980691 93.7492859,33.5652512 93.7492859,33.5652512 L93.7212309,33.4751515 C94.7727533,32.9048801 95.9062825,32.4948457 97.0878289,32.2860519 C102.540746,31.318155 106.960485,34.9809488 106.960485,40.4694746 C106.960485,45.9569213 102.540746,51.1907942 97.0878289,52.1581515 M89.4325952,28.3761584 C89.4325952,28.3761584 80.2861313,40.2698526 79.7989457,40.6167632 C79.3133787,40.9615158 78.9427292,40.4797254 78.9427292,40.4797254 C78.9427292,40.4797254 78.1134887,39.3046533 79.9710522,35.3203062 C81.8296948,31.3364986 82.4291003,29.0160278 82.4291003,29.0160278 C82.4291003,29.0160278 88.0039491,27.7670416 88.9470282,27.6283852 C89.8901072,27.4897289 89.4325952,28.3761584 89.4325952,28.3761584 M77.8982206,29.2507186 L75.9699801,26.2709513 C75.9699801,26.2709513 80.020688,26.2634024 79.3581588,26.8773749 C78.6913134,27.4924265 77.8982206,29.2507186 77.8982206,29.2507186 M76.0768048,38.2930553 L75.9483993,38.3157151 C75.9483993,38.3157151 75.1126845,42.3254196 74.5764027,41.879777 C74.0412,41.4373715 73.8475127,39.9828285 73.8475127,39.9828285 L76.7841141,34.9944368 C76.8062344,35.443856 76.0768048,38.2930553 76.0768048,38.2930553 M71.8334887,35.5916842 C71.8334887,35.5916842 70.9529938,33.915399 71.2119629,33.1999969 C71.4687739,32.4872924 73.2054852,31.9175605 73.2054852,31.9175605 L73.9332962,32.889234 C73.3538529,33.3370347 71.8334887,35.5916842 71.8334887,35.5916842 M60.7226364,58.6118766 C55.2713375,59.5797735 50.8505196,55.9153612 50.8505196,50.4279144 C50.8505196,44.9393887 55.2713375,39.7065948 60.7226364,38.7392375 C62.5850557,38.4090519 64.3271622,38.6178457 65.8140763,39.2571756 L65.2233031,40.1241825 L60.6800144,47.6348251 C58.7075333,47.5236842 58.1065093,49.7011825 58.9076948,50.4505742 C59.7072619,51.2015845 60.5073684,50.6852649 61.4504474,50.4316911 C62.3935265,50.1775777 69.0819423,50.1414299 69.0819423,50.1414299 C69.5254268,50.2509522 69.5065436,51.3105674 69.4838838,51.6963234 C67.8399698,55.1719041 64.5354165,57.9353199 60.7226364,58.6118766 M62.4507155,46.9172649 L66.1663821,40.3885467 L66.6303684,39.6655914 C67.6770351,40.268234 68.561846,41.1050278 69.2292309,42.1252581 L68.9109148,42.893533 C68.6346811,43.63699 67.3085436,45.8258182 67.3085436,45.8258182 C66.2521656,46.5007564 65.6230866,48.0513337 65.6230866,48.0513337 C64.5030454,48.303289 63.1493924,48.0227392 62.9179388,47.9714849 C62.8790935,48.047557 62.8790935,47.9623131 62.8790935,47.9623131 C62.8790935,47.9623131 62.8958186,47.9660897 62.9179388,47.9714849 C62.9459938,47.9159144 62.9945505,47.7713234 63.080334,47.4379007 C63.279956,46.6550588 62.4507155,46.9172649 62.4507155,46.9172649 M69.7320625,34.757588 C69.8383478,34.7165845 70.9756536,37.4055467 70.9756536,37.4055467 C70.9756536,37.4055467 70.7614646,38.4910588 70.4917052,39.2517804 C69.8038186,38.4905192 69.0042515,37.842557 68.1081107,37.3327117 C68.6535643,36.4311756 69.6538323,34.7872615 69.7320625,34.757588 M69.3036845,28.8994918 C69.3036845,28.8994918 71.6187601,30.6896155 72.1118804,30.9032649 C72.1118804,30.9032649 70.2904646,31.6380897 70.0751966,31.2652821 C69.860468,30.8946326 69.3036845,28.8994918 69.3036845,28.8994918 M76.6557086,16.6049351 C76.6557086,16.6049351 78.8564062,17.3073887 79.4282962,16.6891 C80.0001863,16.0681137 81.2561863,15.6154574 81.2561863,15.6154574 C81.2863993,16.5018869 83.8021759,21.2059522 83.8021759,21.2059522 L84.4301759,22.8498663 C84.4301759,22.8498663 88.6319491,24.6642684 88.8607052,25.5140107 C89.0889216,26.36699 82.9723959,27.5372065 82.9723959,27.5372065 C82.9723959,27.5372065 83.7455265,25.8468938 83.9451485,24.7484333 C84.1431519,23.6488938 83.5151519,23.3284196 83.5151519,23.3284196 C81.7730454,21.9682924 78.1701381,20.3357082 78.1701381,20.3357082 L77.9699766,20.1689969 C77.3700316,19.7287495 73.797877,18.7802753 73.797877,18.7802753 C73.827011,17.7972718 76.6557086,16.6049351 76.6557086,16.6049351 M96.3492275,23.3672649 C96.3492275,23.3672649 95.4277292,23.7713646 94.9853237,23.769746 C94.5386021,23.768667 94.0778529,23.3079179 94.0778529,23.3079179 C95.2367395,22.526155 96.3492275,23.3672649 96.3492275,23.3672649 M97.0878289,29.735746 C95.6699732,29.9877014 94.308767,30.4716498 93.0414371,31.1357976 L93.0128426,31.0354471 C93.0128426,31.0354471 90.954578,26.5024093 91.0187808,26.4479179 C91.082444,26.3945055 90.8903753,25.8021137 91.8749973,26.3178938 C92.8617773,26.8331344 94.3190179,27.1136842 94.3190179,27.1136842 L94.7047739,27.4983612 C94.7047739,27.4983612 94.4911244,28.0109041 93.2680351,28.3578148 C92.0476433,28.7036464 93.0317258,30.0610759 94.8563787,28.7004093 C94.8563787,28.7004093 95.8415402,28.0082065 96.0136467,27.8269282 C96.0136467,27.8269282 97.363523,27.6100416 97.405066,27.5145467 C97.4493065,27.4217495 97.4493065,27.0974986 97.4493065,27.0974986 C97.4493065,27.0974986 97.8350625,27.137423 97.8998048,27.0171103 C97.9640076,26.8984162 98.048712,26.5601378 98.0055505,26.481368 C97.9640076,26.4020588 98.434468,26.4910794 98.4997498,26.3286842 C98.5634131,26.167368 98.7150179,26.0098285 98.5423718,25.608966 C98.5423718,25.608966 98.9270488,25.5194058 98.9712893,25.382368 C99.0128323,25.2458698 99.0360316,24.3777838 98.2850213,23.9283646 C98.2850213,23.9283646 98.0692137,23.1261 97.9640076,22.9065158 C97.9640076,22.9065158 98.9712893,22.3394814 99.3149629,21.285801 C99.6559388,20.2331997 99.6791381,19.6035811 99.6791381,19.6035811 C99.6791381,19.6035811 99.5928151,19.1649522 99.1843993,19.2151275 C99.1843993,19.2151275 99.0996948,18.4981069 98.4150454,18.8126464 C97.7276983,19.130423 98.7150179,20.4214918 95.9278632,20.9804333 C95.9278632,20.9804333 94.2548151,20.7376498 93.0317258,21.7762237 C93.0317258,21.7762237 92.3039148,22.2072993 91.426657,22.3205983 C91.426657,22.3205983 88.5958014,20.1673784 87.0738186,19.6607701 C87.0738186,19.6607701 87.1811828,17.9591275 85.9381313,15.3537907 L86.0444165,15.205423 C86.0444165,15.205423 85.9381313,13.2167564 85.6370797,11.9532031 C85.6370797,11.9532031 86.2586055,11.3262821 86.6017395,11.5458663 C86.9454131,11.7654505 86.9675333,12.6038629 87.0322756,12.6130347 C87.0959388,12.6232856 87.501657,12.6373131 87.6095608,12.3589213 C87.7174646,12.0816086 87.5674784,10.7705777 87.5674784,10.7705777 C87.5674784,10.7705777 88.5758392,11.1520175 88.7684474,11.5491034 C88.7684474,11.5491034 89.2394474,11.6181619 89.4325952,11.4546876 C89.6241244,11.2895948 89.6451656,10.5957735 89.6241244,10.5342684 C89.6036227,10.4733027 89.9683375,10.451722 90.0546605,10.393454 C90.1388254,10.3351859 90.1604062,9.94241615 90.1604062,9.94241615 L90.6546055,9.83343333 C90.6546055,9.83343333 90.7398495,9.53777698 90.7835505,9.25075292 C90.824554,8.96157079 91.4056158,9.13961203 91.4056158,9.13961203 C91.4056158,9.13961203 91.72609,9.16928557 91.8118735,9.00203471 C91.897657,8.83640241 91.7050488,7.3176567 91.7050488,7.3176567 L92.0908048,6.58013436 L92.0692241,6.17387663 C92.0692241,6.17387663 92.8617773,6.55153986 93.2491519,6.00824433 C93.6338289,5.46333024 93.8895608,3.28259485 93.0770454,2.08971856 C92.2629113,0.89576323 90.5477808,-0.331102749 87.0096158,0.404801031 C87.0096158,0.404801031 86.0444165,0.705313058 85.5523753,0.57690756 C85.5523753,0.57690756 85.2524027,1.06139553 85.6586605,1.65864296 L84.6297979,1.79675979 C84.6297979,1.79675979 84.5429354,2.30984227 84.8860694,2.39994192 C84.8860694,2.39994192 84.0945952,2.62600034 84.2650832,3.41639553 C84.4371897,4.20463265 85.0802962,3.85340584 85.1882,3.98558797 C85.2944852,4.1177701 85.0581759,4.72041271 85.0581759,4.72041271 C85.0581759,4.72041271 85.1882,4.93460172 85.3365677,4.99502784 C85.488712,5.05437491 84.4787326,6.18250893 84.4787326,6.18250893 L84.4582309,6.61844021 C84.4582309,6.61844021 83.8793271,6.28933368 83.5383512,6.39292131 C83.1935986,6.49704845 82.9723959,7.11102096 82.9723959,7.11102096 C82.9723959,7.11102096 73.827011,4.19006564 65.3096261,14.1015674 C65.3096261,14.1015674 65.2756364,14.4641241 65.4175299,14.5213131 C65.4175299,14.5213131 61.4008117,19.8296395 62.6390076,23.8555296 L61.2189938,24.2304952 C61.2189938,24.2304952 61.4812,25.3278766 62.537578,25.6704711 C63.5923375,26.0146842 65.1952481,24.4846086 66.4927911,26.47921 C67.7908735,28.4754299 69.373822,33.4001584 69.373822,33.4001584 L67.3333615,36.9394024 C65.4191485,36.0621447 63.1537086,35.7583955 60.7226364,36.1900107 C53.8718254,37.4050072 48.3190969,43.9806636 48.3190969,50.8767942 C48.3190969,57.7718457 53.8718254,62.377179 60.7226364,61.161643 C65.6646296,60.2843852 69.930066,56.6188938 71.9225093,52.0551034 L72.0250179,52.0637357 C72.0250179,52.0637357 73.4827979,53.9218388 76.0989251,53.0251584 C78.7134337,52.129557 79.7865368,48.8746395 79.1838942,47.1260588 C79.1838942,47.1260588 80.3433203,46.1004333 81.1148323,45.9639351 C81.8863443,45.8268973 82.6152344,45.3510416 82.1884749,45.0397392 C82.1884749,45.0397392 83.7730419,44.9739179 84.0730144,44.4036464 C84.3735265,43.8317564 85.016633,42.6825811 83.0867739,42.635643 C83.0867739,42.635643 81.9073856,42.522344 81.6505746,41.8554986 L90.2666914,30.5514986 L91.1040247,32.2159144 L91.139633,32.3178835 C87.2917842,35.1212237 84.6832103,39.6968835 84.6832103,44.4230691 C84.6832103,51.3181206 90.2375574,55.9229144 97.0878289,54.7079179 C103.939179,53.4907632 109.492447,46.9145674 109.492447,40.0189763 C109.492447,33.1228457 103.939179,28.5191309 97.0878289,29.735746" id="Fill-1" fill="#0C0A09"></path>
                <polygon id="Fill-3" fill="#3B0706" points="143.903233 109.799434 13.9083117 97.5399457 13.9083117 74.598523 143.903233 86.8585505"></polygon>
                <polygon id="Fill-5" fill="#9B1C28" points="0.520527835 144.268595 33.6491464 138.427763 33.6491464 115.486341 0.520527835 121.327712 8.41854502 131.406464"></polygon>
                <polygon id="Fill-7" fill="#3B0706" points="33.6493082 138.427655 13.402243 132.85982 33.6493082 129.289824"></polygon>
                <polygon id="Fill-9" fill="#9B1C28" points="156.915943 40.519488 123.786245 46.3613986 123.786245 69.3028213 156.915943 63.4603711 149.015768 53.3826976"></polygon>
                <polygon id="Fill-11" fill="#3B0706" points="123.786137 46.3614526 144.031584 51.9292876 123.786137 55.4992842"></polygon>
                <polygon id="Fill-13" fill="#C42330" points="143.903233 74.6177299 13.9083117 97.5402694 13.9083117 74.5988467 143.903233 51.6773863"></polygon>
                <polygon id="Fill-15" fill="#C42330" points="143.903233 109.798409 13.9083117 132.720409 13.9083117 109.780604 143.903233 86.8580649"></polygon>
                <polygon id="Fill-17" fill="#FFFFFE" points="17.1244378 77.159889 22.0092419 76.2982773 25.9892729 82.0565625 29.9693038 74.8949887 34.8578845 74.0328375 34.8578845 90.717999 30.2590254 91.5283564 30.2590254 81.9486588 25.9892729 89.2294663 25.8943175 89.2461914 21.6580151 83.5127241 21.6580151 93.044944 17.1244378 93.844511"></polygon>
                <path d="M48.8196086,81.6759859 L46.9561103,77.2594842 L45.0748079,82.3368966 L48.8196086,81.6759859 Z M44.7656636,72.1669653 L49.2210107,71.3814258 L56.3216189,86.931979 L51.3629007,87.8065392 L50.1549179,85.0409653 L43.7189969,86.1755735 L42.5250416,89.3652093 L37.6612787,90.2225048 L44.7656636,72.1669653 Z" id="Fill-19" fill="#FFFFFE"></path>
                <polygon id="Fill-21" fill="#FFFFFE" points="63.1611 77.2394141 57.6763509 70.0098608 62.989533 69.0727165 65.9471756 73.2448162 68.927478 68.0255103 74.1171103 67.1110258 68.641533 76.2305137 74.3582753 83.7519467 69.0461722 84.6885515 65.8489832 80.2224141 62.6361481 85.8183041 57.437344 86.7349467"></polygon>
                <polygon id="Fill-23" fill="#FFFFFE" points="77.3803904 66.535467 82.0294247 65.7153983 82.0294247 82.4000203 77.3803904 83.2195495"></polygon>
                <polygon id="Fill-25" fill="#FFFFFE" points="86.2705828 64.9674632 91.1494522 64.1074701 95.1375759 69.8635973 99.1154488 62.7031024 104.001332 61.8409512 104.001332 78.5261127 99.3954591 79.3375491 99.3954591 69.7578515 95.1375759 77.036501 95.0415416 77.0532261 90.7933698 71.3224564 90.7933698 80.8546763 86.2705828 81.6526247"></polygon>
                <path d="M107.927735,70.5154979 L107.927735,61.1489103 L112.621549,60.3212883 L112.621549,69.5913021 C112.621549,72.000254 113.840322,72.929845 115.696807,72.6028966 C117.553291,72.2754086 118.769367,70.9622196 118.769367,68.6304189 L118.769367,59.2373948 L123.465879,58.4092333 L123.465879,67.6555082 C123.465879,73.0447625 120.386305,75.9435976 115.644474,76.7793124 C110.906958,77.6144876 107.927735,75.7315667 107.927735,70.5154979" id="Fill-27" fill="#FFFFFE"></path>
                <path d="M126.126516,72.1434962 L128.704877,68.6134241 C130.346633,69.6368914 132.182616,70.0064619 134.113015,69.6660254 C135.351211,69.4480598 136.021293,68.8939739 136.021293,68.1801904 L136.021293,68.141345 C136.021293,67.4448261 135.470984,67.1615787 133.203386,67.0369498 C129.654431,66.8491973 126.917991,66.3350357 126.917991,62.9009979 L126.917991,62.8513622 C126.917991,59.7534447 129.371183,57.0801285 133.377111,56.3738983 C136.206888,55.8748433 138.427008,56.2433347 140.232778,57.3854962 L137.925255,61.0574619 C136.398417,60.2541182 134.728066,59.9746474 133.253022,60.2352351 C132.13298,60.4321595 131.588066,61.0029704 131.588066,61.6012969 L131.588066,61.6476955 C131.588066,62.4094962 132.158338,62.645266 134.469097,62.7580254 C138.305616,62.9204206 140.687053,63.7345546 140.687053,66.8621457 L140.687053,66.9074653 C140.687053,70.3172247 137.99809,72.8173553 133.947382,73.5311388 C130.995675,74.0517746 128.172912,73.6174619 126.126516,72.1434962" id="Fill-29" fill="#FFFFFE"></path>
            </g>
            <g id="Group-50" transform="translate(17.264605, 91.178694)">
                <path d="M86.1114787,61.938766 C86.1114787,75.4531749 75.1565474,86.4081062 61.6410595,86.4081062 C48.12719,86.4081062 37.1717192,75.4531749 37.1717192,61.938766 C37.1717192,48.423278 48.12719,37.4694258 61.6410595,37.4694258 C75.1565474,37.4694258 86.1114787,48.423278 86.1114787,61.938766" id="Fill-32" fill="#0C0A09"></path>
                <path d="M10.6829058,21.624457 C9.90330103,21.1556151 8.80861718,21.0450137 7.3988543,21.2926529 L2.02470653,22.2373505 L2.02470653,29.3099038 L7.37403643,28.3695223 C8.02091959,28.2562234 8.61762749,28.0684708 9.16523918,27.8062646 C9.71231134,27.5440584 10.1854694,27.2241237 10.5836344,26.847 C10.9817993,26.4693368 11.2920227,26.0377216 11.5164625,25.549457 C11.7403629,25.0622715 11.8525828,24.535701 11.8525828,23.9713643 C11.8525828,22.8750619 11.4625107,22.093299 10.6829058,21.624457 Z M12.0263079,36.0398625 L6.98828041,30.1752921 L2.02470653,31.0476942 L2.02470653,37.7981546 L0.0640948454,38.1429072 L0.0640948454,20.7698591 L7.53427354,19.4566701 C8.49353814,19.2883402 9.35784742,19.2608247 10.1277409,19.3735842 C10.8965553,19.4868832 11.5547684,19.7231924 12.100222,20.082512 C12.6467546,20.4412921 13.0686584,20.9139107 13.3664729,21.4982096 C13.6637478,22.0835876 13.8131945,22.765 13.8131945,23.5429863 C13.8131945,24.2707973 13.6966584,24.9414192 13.4657443,25.5526942 C13.2337512,26.1650481 12.9073423,26.719134 12.4854385,27.2149519 C12.0635347,27.7113093 11.5628612,28.1515567 10.9839574,28.5346151 C10.4045141,28.9187526 9.77597457,29.2268179 9.09779931,29.4620481 L14.4336412,35.6168797 L12.0263079,36.0398625 Z" id="Fill-34" fill="#FFFFFE"></path>
                <polygon id="Fill-36" fill="#FFFFFE" points="20.1194691 17.2445887 20.1194691 34.6170973 18.1583179 34.9618498 18.1583179 17.5893412"></polygon>
                <path d="M38.0076498,20.1060351 C37.6682924,19.3221141 37.1881206,18.6741519 36.5682134,18.162688 C35.9472271,17.6512241 35.1902821,17.2967601 34.2973784,17.0982172 C33.4033955,16.8996742 32.4106808,16.8958976 31.319234,17.0879663 L27.2491034,17.8033684 L27.2491034,31.5519285 L31.319234,30.8365265 C32.4106808,30.6444577 33.4033955,30.2970076 34.2973784,29.7920179 C35.1902821,29.2881072 35.9472271,28.6703581 36.5682134,27.9409285 C37.1881206,27.211499 37.6682924,26.4038392 38.0076498,25.5163306 C38.3464677,24.629901 38.5158766,23.6981519 38.5158766,22.7221622 C38.5158766,21.7623581 38.3464677,20.8904955 38.0076498,20.1060351 M39.881399,25.8697155 C39.4346773,27.0156536 38.8012821,28.0493718 37.982832,28.9703306 C37.1638423,29.8923684 36.1867735,30.6757498 35.0537838,31.321554 C33.9202546,31.9678976 32.6755845,32.4103031 31.319234,32.6487704 L25.2884918,33.7089251 L25.2884918,16.3364165 L31.319234,15.2757223 C32.6755845,15.037255 33.9202546,15.038334 35.0537838,15.2768014 C36.1867735,15.5163478 37.1638423,15.9533581 37.982832,16.5867533 C38.8012821,17.2201485 39.4346773,18.0272687 39.881399,19.0075746 C40.3281206,19.9878804 40.5509419,21.0901175 40.5509419,22.3142859 C40.5509419,23.5389938 40.3281206,24.7243168 39.881399,25.8697155" id="Fill-38" fill="#FFFFFE"></path>
                <polygon id="Fill-40" fill="#FFFFFE" points="57.2785636 12.4995199 46.6813333 14.3624787 46.6813333 20.2939495 56.1617595 18.6273756 56.1617595 20.4142622 46.6813333 22.0808361 46.6813333 28.1612141 57.4026529 26.2766746 57.4026529 28.0635612 44.7207216 30.2923137 44.7207216 12.9198052 57.2785636 10.7120938"></polygon>
                <path d="M71.895911,10.388868 C71.1842856,11.0190261 70.4807529,11.8827959 69.7858526,12.9812564 L68.3464162,12.1924797 C68.7440416,11.5434385 69.1492203,10.9515863 69.5630313,10.416923 C69.9757632,9.88333883 70.4273405,9.4171945 70.9150656,9.02172715 C71.4033302,8.62572027 71.9493234,8.29337663 72.5535845,8.0241567 C73.1567667,7.75493677 73.8397976,7.5531567 74.6010588,7.41935601 C75.3946911,7.27962062 76.1181859,7.27692302 76.7720828,7.41018419 C77.4259797,7.54344536 77.9919351,7.7873079 78.4721069,8.1412323 C78.9517392,8.4951567 79.3245467,8.95105017 79.5894505,9.5083732 C79.8532753,10.0656962 79.9859969,10.7001704 79.9859969,11.4117959 C79.9859969,12.0570605 79.8996739,12.6597031 79.7259488,13.2191842 C79.5516842,13.7797443 79.2824643,14.3521739 78.9188285,14.9370124 C78.5551928,15.5223904 78.0998388,16.1396 77.5538457,16.7897203 C77.0083921,17.4409196 76.3544952,18.1638749 75.5937735,18.9591258 L70.9522924,23.8946447 L80.159722,22.276088 L80.159722,24.0629746 L68.0237838,26.1962323 L68.0237838,24.6796447 L74.3280622,18.0036378 C74.9889729,17.2909333 75.5516911,16.6537615 76.0156773,16.0915828 C76.478045,15.5294041 76.8546292,15.0120055 77.1448904,14.5383079 C77.4340725,14.0651498 77.6407082,13.6146515 77.7647976,13.1868131 C77.8888869,12.7595141 77.9514711,12.3295175 77.9514711,11.8984419 C77.9514711,11.3848199 77.8554368,10.9418749 77.6655261,10.5690674 C77.4750759,10.1967993 77.2231206,9.89305017 76.9085811,9.65835945 C76.5940416,9.42366873 76.2223131,9.26505017 75.791777,9.18412234 C75.3617804,9.10157595 74.9150588,9.10103643 74.451612,9.1830433 C73.4588973,9.3573079 72.6064574,9.759789 71.895911,10.388868" id="Fill-42" fill="#FFFFFE"></path>
                <path d="M95.2838395,10.0005763 C95.0356608,9.17565189 94.6795784,8.47319828 94.2166711,7.89267595 C93.7532244,7.31269313 93.1953619,6.88107801 92.5420045,6.5983701 C91.8881076,6.31620172 91.1559804,6.24606426 90.345623,6.38903677 C89.5341866,6.53093024 88.802599,6.8551811 88.1487021,7.35855223 C87.4948052,7.86246289 86.9412588,8.48129107 86.4859048,9.21395773 C86.0310904,9.94770344 85.6798636,10.7704698 85.4311454,11.6827962 C85.1829667,12.5951227 85.0594168,13.5317275 85.0594168,14.4904526 C85.0594168,15.4507962 85.1829667,16.3469371 85.4311454,17.1799543 C85.6798636,18.013511 86.034867,18.7202808 86.4988533,19.3002636 C86.961221,19.8807859 87.5239392,20.3075454 88.1859289,20.5794629 C88.847379,20.8519199 89.5843619,20.9172017 90.3947192,20.7747687 C91.2050766,20.6323357 91.9372038,20.3091639 92.5911007,19.8057928 C93.2444581,19.3018821 93.798544,18.6835935 94.2544375,17.9493082 C94.7092519,17.2161021 95.0567021,16.3938753 95.2962485,15.4831674 C95.5363344,14.5724595 95.6561076,13.6369337 95.6561076,12.6776691 C95.6561076,11.7184045 95.5325577,10.8249612 95.2838395,10.0005763 M97.1699976,15.8360127 C96.8230869,16.9895041 96.3299667,18.0313151 95.6938739,18.9619852 C95.0567021,19.8931948 94.283032,20.6787344 93.3734031,21.3186038 C92.4626952,21.9579337 91.4532553,22.3755213 90.345623,22.5702876 C89.2196471,22.7677515 88.2069701,22.7105625 87.3048945,22.3976416 C86.4033584,22.0841811 85.6334649,21.5743357 84.9973722,20.867566 C84.3602003,20.1602567 83.8719357,19.2954079 83.5331179,18.2708615 C83.1937605,17.2468546 83.023812,16.1230368 83.023812,14.8983289 C83.023812,13.6741605 83.1980766,12.4850608 83.5455268,11.3315694 C83.892977,10.179157 84.3844787,9.13680653 85.0216505,8.20613643 C85.6582828,7.27438729 86.4324924,6.48938729 87.3421213,5.85005739 C88.2522897,5.21018797 89.2698223,4.79152131 90.3947192,4.59351787 C91.5028911,4.39875155 92.5080148,4.45755911 93.4100904,4.77048007 C94.3116265,5.08340103 95.0815199,5.59378591 95.7181522,6.30109519 C96.3547845,7.00786495 96.8435887,7.87379278 97.182946,8.89726014 C97.5212244,9.92180653 97.6917124,11.0456244 97.6917124,12.2697928 C97.6917124,13.4950402 97.5179873,14.6830608 97.1699976,15.8360127" id="Fill-44" fill="#FFFFFE"></path>
                <polygon id="Fill-46" fill="#FFFFFE" points="103.738047 2.42152268 105.195827 2.1652512 105.195827 19.6618491 103.235755 20.0066017 103.235755 4.54506907 99.9597959 6.13826838 99.4882564 4.63301065"></polygon>
                <path d="M119.69653,3.58693746 C119.481802,3.145611 119.179671,2.7803567 118.790678,2.49333265 C118.402224,2.20576907 117.934462,2.0066866 117.389008,1.8955457 C116.843015,1.78494433 116.246846,1.78602337 115.602121,1.89932234 C114.956317,2.01316082 114.373097,2.22681031 113.852462,2.54188935 C113.331286,2.85696838 112.892657,3.23193402 112.536575,3.66678625 C112.180492,4.10163849 111.907496,4.5845079 111.718125,5.11377595 C111.527135,5.64358351 111.432719,6.18148385 111.432719,6.72693746 C111.432719,7.28965567 111.535767,7.78493402 111.742943,8.21169347 C111.949578,8.63845292 112.23876,8.98914021 112.611568,9.26267629 C112.983836,9.53621237 113.434334,9.72234639 113.963602,9.81945979 C114.49287,9.91603368 115.072314,9.90955945 115.701393,9.79895808 C116.362303,9.68242199 116.962788,9.4655354 117.500149,9.14829828 C118.038049,8.82998213 118.493403,8.45555601 118.865671,8.02663849 C119.2374,7.59772096 119.523345,7.12564192 119.721888,6.61040137 C119.920431,6.09570034 120.019702,5.59017113 120.019702,5.09381375 C120.019702,4.53163505 119.911259,4.02880344 119.69653,3.58693746 M121.881042,11.4051058 C121.533053,12.6163258 121.040472,13.6959031 120.404379,14.6432983 C119.766668,15.5906935 119.005946,16.3746144 118.120596,16.9929031 C117.235245,17.6111918 116.255479,18.0152914 115.180218,18.2046625 C114.038596,18.4053636 113.045881,18.3767691 112.202073,18.1199581 C111.358266,17.8631471 110.563554,17.4935766 109.819018,17.0123258 L110.96118,15.2982742 C111.672266,15.8021849 112.367166,16.1469375 113.045881,16.333611 C113.724056,16.5213636 114.451327,16.5461814 115.229314,16.4091436 C116.0073,16.2726454 116.718386,15.9575663 117.363651,15.4628275 C118.009455,14.9691677 118.559764,14.3465629 119.014039,13.5971711 C119.468853,12.8467003 119.816843,11.9834701 120.056929,11.0064014 C120.295936,10.0293326 120.408156,8.98806117 120.391431,7.88258694 C119.911259,8.72801306 119.275166,9.49359038 118.480994,10.1787794 C117.686283,10.8645079 116.685475,11.3133876 115.478032,11.5254186 C114.584049,11.6829581 113.765599,11.6948275 113.021063,11.5604873 C112.275987,11.4272261 111.638815,11.1666385 111.109547,10.7798034 C110.580279,10.3935079 110.167008,9.89499244 109.868654,9.2858756 C109.57084,8.67621924 109.421932,7.97430515 109.421932,7.18013333 C109.421932,6.35305086 109.574616,5.55294433 109.881602,4.77927423 C110.18697,4.00560412 110.61373,3.30207148 111.159723,2.66813677 C111.705176,2.03474158 112.36285,1.49738076 113.132204,1.05551478 C113.902097,0.614188316 114.749142,0.312597251 115.676035,0.149123024 C116.66929,-0.0251415808 117.537376,-0.0208254296 118.282451,0.162610997 C119.026987,0.346047423 119.680345,0.669758763 120.243063,1.1332055 C120.589974,1.41969003 120.89642,1.74717801 121.161324,2.11351134 C121.425688,2.48092371 121.649049,2.91793402 121.830867,3.42292371 C122.013224,3.92899244 122.154039,4.51652852 122.252771,5.18499244 C122.352582,5.8545354 122.402218,6.62766598 122.402218,7.50438419 C122.402218,8.89418488 122.227953,10.1944254 121.881042,11.4051058" id="Fill-48" fill="#FFFFFE"></path>
            </g>
            <path d="M80.5102474,138.352608 L81.0179347,138.145973 L80.5102474,137.940416 L80.9564296,137.618863 L80.4125945,137.541172 L80.7670584,137.121966 L80.2210653,137.175918 L80.4649278,136.684955 L79.9480687,136.868392 L80.0667629,136.332649 L79.6087113,136.633162 L79.5968419,136.08501 L79.2256529,136.488031 L79.0810619,135.958763 L78.8156186,136.437316 L78.5501753,135.958763 L78.4072027,136.488031 L78.0343952,136.08501 L78.0214467,136.633162 L77.5644742,136.332649 L77.6831684,136.868392 L77.1668488,136.684416 L77.4101718,137.175918 L76.8647182,137.121966 L77.2175636,137.539553 L76.6764261,137.618323 L77.1204502,137.940416 L76.6116838,138.145973 L77.1204502,138.352608 L76.6764261,138.673082 L77.2175636,138.750773 L76.8647182,139.169979 L77.4101718,139.115488 L77.1663093,139.60699 L77.6831684,139.424093 L77.5633952,139.959835 L78.0214467,139.658244 L78.0343952,140.206935 L78.4072027,139.803914 L78.5501753,140.333182 L78.8156186,139.85301 L79.0810619,140.333182 L79.2256529,139.803914 L79.5968419,140.206935 L79.6087113,139.658244 L80.0667629,139.959835 L79.9480687,139.424632 L80.4643883,139.60699 L80.2210653,139.115488 L80.7670584,139.169979 L80.4125945,138.750773 L80.9564296,138.673622 L80.5102474,138.352608 Z M79.9642543,139.206667 L79.3691649,139.206667 L79.3691649,137.990052 L78.8156186,138.819832 L78.8026701,138.819832 L78.2534399,137.995986 L78.2534399,139.206667 L77.6664433,139.206667 L77.6664433,137.088515 L78.300378,137.088515 L78.8156186,137.908584 L79.3313986,137.088515 L79.9642543,137.088515 L79.9642543,139.206667 Z" id="Fill-51" fill="#FFFFFE"></path>
            <polygon id="Fill-52" fill="#FFFFFE" points="73.3745704 141.353952 73.8320825 141.353952 74.20489 141.958213 74.5766186 141.353952 75.0346701 141.353952 75.0346701 142.91532 74.6046735 142.91532 74.6046735 142.0181 74.20489 142.629375 74.1957182 142.629375 73.7991718 142.022955 73.7991718 142.91532 73.3745704 142.91532"></polygon>
            <path d="M75.6578144,141.353952 L76.074323,141.353952 L76.7390103,142.92611 L76.2750241,142.92611 L76.1622646,142.647179 L75.559622,142.647179 L75.4479416,142.92611 L74.9931271,142.92611 L75.6578144,141.353952 Z M76.0370962,142.310519 L75.8628316,141.866495 L75.6869485,142.310519 L76.0370962,142.310519 Z" id="Fill-53" fill="#FFFFFE"></path>
            <polygon id="Fill-54" fill="#FFFFFE" points="77.6864055 142.120608 77.1727835 141.353952 77.6702199 141.353952 77.9469931 141.79312 78.2259244 141.353952 78.7120309 141.353952 78.199488 142.117371 78.7346907 142.91532 78.2372543 142.91532 77.9383608 142.44432 77.6373093 142.91532 77.1512027 142.91532"></polygon>
            <polygon id="Fill-55" fill="#FFFFFE" points="78.8212835 142.91532 79.2577543 142.91532 79.2577543 141.353952 78.8212835 141.353952"></polygon>
            <polygon id="Fill-56" fill="#FFFFFE" points="79.8487973 141.353952 80.3057698 141.353952 80.6785773 141.958213 81.0508454 141.353952 81.5083574 141.353952 81.5083574 142.91532 81.0772818 142.91532 81.0772818 142.0181 80.6785773 142.629375 80.669945 142.629375 80.2723196 142.022955 80.2723196 142.91532 79.8487973 142.91532"></polygon>
            <g id="Group-107" transform="translate(57.728522, 131.642612)" fill="#FFFFFE">
                <path d="M23.8934577,10.4299794 L23.8934577,9.55326117 L24.3326261,9.55326117 L24.3326261,10.4208076 C24.3326261,10.6457869 24.4464646,10.7536907 24.6207292,10.7536907 C24.7939148,10.7536907 24.9077533,10.6501031 24.9077533,10.432677 L24.9077533,9.55326117 L25.3474612,9.55326117 L25.3474612,10.4186495 C25.3474612,10.9225601 25.0593581,11.1432234 24.615334,11.1432234 C24.172389,11.1432234 23.8934577,10.9177045 23.8934577,10.4299794" id="Fill-57"></path>
                <path d="M25.5968268,10.8825818 L25.8379918,10.5950182 C25.9912151,10.717489 26.1633216,10.7822313 26.3446,10.7822313 C26.4605966,10.7822313 26.5231808,10.7417674 26.5231808,10.6743275 L26.5231808,10.6710904 C26.5231808,10.6052691 26.4719265,10.5702003 26.259356,10.5211041 C25.9270124,10.445032 25.6712804,10.3522347 25.6712804,10.0301419 L25.6712804,10.0252863 C25.6712804,9.7355646 25.9000364,9.52569175 26.2755416,9.52569175 C26.5404454,9.52569175 26.7481601,9.59690825 26.9170296,9.73340653 L26.7006825,10.0398533 C26.5582495,9.93896323 26.401789,9.88501134 26.2642117,9.88501134 C26.1590055,9.88501134 26.1077512,9.92979141 26.1077512,9.98536186 L26.1077512,9.99021753 C26.1077512,10.0619735 26.1611636,10.0927261 26.3769711,10.1412828 C26.7362907,10.2195131 26.9596515,10.3355096 26.9596515,10.6279289 L26.9596515,10.6327845 C26.9596515,10.9516402 26.7076962,11.1410113 26.3284144,11.1410113 C26.0527203,11.1410113 25.7878165,11.0541488 25.5968268,10.8825818" id="Fill-59"></path>
                <path d="M16.3365244,11.7466213 C16.3365244,11.9117141 16.2356344,11.9953395 16.1379814,12.0390405 C16.2863491,12.0832811 16.4055828,12.1696041 16.4055828,12.3427897 C16.4055828,12.5602158 16.2253835,12.6875423 15.9513079,12.6875423 L15.3939849,12.6875423 L15.3939849,11.4337003 L15.9281086,11.4337003 C16.1757478,11.4337003 16.3365244,11.5550921 16.3365244,11.7466213 M16.1930124,11.766044 C16.1930124,11.6414151 16.0942804,11.5610268 15.9156997,11.5610268 L15.5337203,11.5610268 L15.5337203,11.9926419 L15.9049093,11.9926419 C16.0748577,11.9926419 16.1930124,11.9149512 16.1930124,11.766044 M16.2636893,12.3346969 C16.2636893,12.1965801 16.1482323,12.1172708 15.9302667,12.1172708 L15.5337203,12.1172708 L15.5337203,12.5602158 L15.954545,12.5602158 C16.1455347,12.5602158 16.2636893,12.4760509 16.2636893,12.3346969" id="Fill-61"></path>
                <path d="M17.5959773,12.6876502 L17.2334206,12.2004646 L16.8751801,12.2004646 L16.8751801,12.6876502 L16.7327471,12.6876502 L16.7327471,11.4338082 L17.272266,11.4338082 C17.5479601,11.4338082 17.7249223,11.5821759 17.7249223,11.8082344 C17.7249223,12.0175677 17.5819498,12.1389595 17.3844859,12.1745677 L17.7702419,12.6876502 L17.5959773,12.6876502 Z M17.2620151,11.5643718 L16.8751801,11.5643718 L16.8751801,12.0725986 L17.259857,12.0725986 C17.4481491,12.0725986 17.5819498,11.9765643 17.5819498,11.81309 C17.5819498,11.6577086 17.4637952,11.5643718 17.2620151,11.5643718 Z" id="Fill-63"></path>
                <path d="M18.656078,12.7081519 C18.2740986,12.7081519 18.0183667,12.4097979 18.0183667,12.0623478 C18.0183667,11.7148976 18.2773357,11.4122275 18.6593151,11.4122275 C19.040755,11.4122275 19.2970265,11.7105814 19.2970265,12.0580316 C19.2970265,12.4054818 19.0375179,12.7081519 18.656078,12.7081519 M18.656078,11.5427911 C18.369054,11.5427911 18.1645763,11.7726261 18.1645763,12.0580316 C18.1645763,12.3450557 18.3728306,12.5786674 18.6593151,12.5786674 C18.9457997,12.5786674 19.1508168,12.3482928 19.1508168,12.0623478 C19.1508168,11.7753237 18.9425625,11.5427911 18.656078,11.5427911" id="Fill-65"></path>
                <path d="M20.6665952,12.1518 C20.6665952,12.5175938 20.4567223,12.7069649 20.1432619,12.7069649 C19.833578,12.7069649 19.6220866,12.5175938 19.6220866,12.1631299 L19.6220866,11.4337003 L19.7634405,11.4337003 L19.7634405,12.1539581 C19.7634405,12.4237175 19.9074921,12.5769409 20.147578,12.5769409 C20.3779526,12.5769409 20.5247017,12.4361265 20.5247017,12.1631299 L20.5247017,11.4337003 L20.6665952,11.4337003 L20.6665952,12.1518 Z" id="Fill-67"></path>
                <polygon id="Fill-69" points="21.8060052 11.4299777 21.9225412 11.4299777 22.2656753 12.4782629 22.6249948 11.4337543 22.7722835 11.4337543 22.3255619 12.6962285 22.2041701 12.6962285 21.8621151 11.6792354 21.5152045 12.6962285 21.3981289 12.6962285 20.9503282 11.4337543 21.1046306 11.4337543 21.4617921 12.4782629"></polygon>
                <polygon id="Fill-71" points="23.9819928 11.5616742 23.2164155 11.5616742 23.2164155 11.9905918 23.9010649 11.9905918 23.9010649 12.1189973 23.2164155 12.1189973 23.2164155 12.5581656 23.9911646 12.5581656 23.9911646 12.6876502 23.0750615 12.6876502 23.0750615 11.4338082 23.9819928 11.4338082"></polygon>
                <path d="M25.1832316,12.6876502 L24.8206749,12.2004646 L24.4624344,12.2004646 L24.4624344,12.6876502 L24.3200014,12.6876502 L24.3200014,11.4338082 L24.8600598,11.4338082 C25.135754,11.4338082 25.3132557,11.5821759 25.3132557,11.8082344 C25.3132557,12.0175677 25.1702832,12.1389595 24.9722797,12.1745677 L25.3580357,12.6876502 L25.1832316,12.6876502 Z M24.8498089,11.5643718 L24.4624344,11.5643718 L24.4624344,12.0725986 L24.8476509,12.0725986 C25.0364825,12.0725986 25.1702832,11.9765643 25.1702832,11.81309 C25.1702832,11.6577086 25.051589,11.5643718 24.8498089,11.5643718 Z" id="Fill-73"></path>
                <polygon id="Fill-75" points="25.6735464 12.687866 25.8149003 12.687866 25.8149003 11.4340241 25.6735464 11.4340241"></polygon>
                <path d="M26.4925361,12.7055622 C26.305323,12.7055622 26.1844708,12.6116859 26.1067801,12.4843595 L26.2082096,12.3953388 C26.2842818,12.5118749 26.3641306,12.5744591 26.4946942,12.5744591 C26.6365876,12.5744591 26.7396357,12.47249 26.7396357,12.2734076 L26.7396357,11.4339162 L26.8836873,11.4339162 L26.8836873,12.2712495 C26.8836873,12.5598921 26.7164364,12.7055622 26.4925361,12.7055622" id="Fill-77"></path>
                <path d="M8.32590962,19.895245 L7.27654536,19.895245 L7.27654536,19.6578567 C7.27654536,19.1717502 7.07044914,18.7687296 6.53578591,18.7687296 C5.96011924,18.7687296 5.82631856,19.2332553 5.82631856,19.7199014 C5.82631856,20.2885543 5.87757285,20.4843997 6.42248694,20.7018258 L7.22475155,21.0223 C8.15056598,21.3735268 8.32590962,21.9626814 8.32590962,23.0379426 C8.32590962,24.2782966 7.87325326,25.1987158 6.51528419,25.1987158 C5.49667251,25.1987158 4.7257,24.4439289 4.7257,23.4517536 L4.7257,23.0584443 L5.77452474,23.0584443 L5.77452474,23.3891694 C5.77452474,23.7716883 5.98008144,24.1439564 6.51528419,24.1439564 C7.22475155,24.1439564 7.27654536,23.7198945 7.27654536,23.048733 C7.27654536,22.262654 7.18374811,22.1385646 6.6695866,21.9319289 L5.91911581,21.6217055 C5.01380309,21.2494375 4.7769543,20.650032 4.7769543,19.7296127 C4.7769543,18.6133481 5.3736622,17.7145096 6.57678935,17.7145096 C7.62615361,17.7145096 8.32590962,18.5615543 8.32590962,19.3783859 L8.32590962,19.895245 Z" id="Fill-78"></path>
                <polygon id="Fill-79" points="9.79615258 18.7687835 8.58223505 18.7687835 8.58223505 17.7760687 12.0588948 17.7760687 12.0588948 18.7687835 10.8449773 18.7687835 10.8449773 25.1367251 9.79615258 25.1367251"></polygon>
                <path d="M13.5611852,19.895245 L13.5406835,19.895245 L13.0259825,22.5620869 L14.0753467,22.5620869 L13.5611852,19.895245 Z M13.1187797,17.7760148 L13.9928003,17.7760148 L15.6291612,25.1366711 L14.5792574,25.1366711 L14.2711921,23.5548017 L12.841467,23.5548017 L12.5323227,25.1366711 L11.4829584,25.1366711 L13.1187797,17.7760148 Z" id="Fill-80"></path>
                <polygon id="Fill-81" points="16.1423515 17.7761766 17.1507124 17.7761766 18.4984306 21.6731216 18.5189323 21.6731216 19.8558601 17.7761766 20.8739323 17.7761766 20.8739323 25.1362935 19.8251076 25.1362935 19.8251076 20.6604447 19.8040663 20.6604447 18.7654924 23.8231045 18.2410801 23.8231045 17.2122175 20.6604447 17.1922553 20.6604447 17.1922553 25.1362935 16.1423515 25.1362935"></polygon>
                <path d="M22.9102924,21.2704247 L23.4142031,21.2704247 C24.267722,21.2704247 24.2779729,20.7638165 24.2779729,20.0300708 C24.2779729,19.3373285 24.2779729,18.7686756 23.4552065,18.7686756 L22.9102924,18.7686756 L22.9102924,21.2704247 Z M21.8614677,17.7759608 L23.4352443,17.7759608 C24.010911,17.7759608 24.4322753,17.910301 24.7921344,18.2928199 C25.152533,18.6753388 25.265832,19.1409436 25.265832,20.0198199 C25.265832,20.6602289 25.2145777,21.0940021 24.967478,21.4975622 C24.6788354,21.9734179 24.2159282,22.2626 23.4444162,22.2626 L22.9102924,22.2626 L22.9102924,25.1366172 L21.8614677,25.1366172 L21.8614677,17.7759608 Z" id="Fill-82"></path>
                <polygon id="Fill-83" points="26.0467856 17.7761766 29.1743766 17.7761766 29.1743766 18.7688914 27.0956103 18.7688914 27.0956103 20.9291251 28.9073148 20.9291251 28.9073148 21.9218399 27.0956103 21.9218399 27.0956103 24.0820735 29.1743766 24.0820735 29.1743766 25.136833 26.0467856 25.136833"></polygon>
                <path d="M30.9024557,21.0633574 L31.4986241,21.0633574 C32.2291326,21.0633574 32.3424316,20.6500859 32.3424316,19.9158007 C32.3424316,19.1718041 32.2183423,18.7687835 31.4473698,18.7687835 L30.9024557,18.7687835 L30.9024557,21.0633574 Z M29.8530914,17.7760687 L31.540167,17.7760687 C32.7842976,17.7760687 33.3912564,18.510354 33.3912564,19.9368419 C33.3912564,20.7844261 33.1549471,21.4048729 32.4859436,21.7766014 L33.6178543,25.1367251 L32.5069849,25.1367251 L31.5293766,21.993488 L30.9024557,21.993488 L30.9024557,25.1367251 L29.8530914,25.1367251 L29.8530914,17.7760687 Z" id="Fill-84"></path>
                <path d="M37.6290694,19.895245 L36.5802447,19.895245 L36.5802447,19.6578567 C36.5802447,19.1717502 36.3741485,18.7687296 35.8394852,18.7687296 C35.263279,18.7687296 35.1294784,19.2332553 35.1294784,19.7199014 C35.1294784,20.2885543 35.1807326,20.4843997 35.7256467,20.7018258 L36.5284509,21.0223 C37.4542653,21.3735268 37.6290694,21.9626814 37.6290694,23.0379426 C37.6290694,24.2782966 37.1764131,25.1987158 35.819523,25.1987158 C34.8003718,25.1987158 34.0288598,24.4439289 34.0288598,23.4517536 L34.0288598,23.0584443 L35.0782241,23.0584443 L35.0782241,23.3891694 C35.0782241,23.7716883 35.2832412,24.1439564 35.819523,24.1439564 C36.5284509,24.1439564 36.5802447,23.7198945 36.5802447,23.048733 C36.5802447,22.262654 36.4874474,22.1385646 35.9727464,21.9319289 L35.2222756,21.6217055 C34.3164234,21.2494375 34.0806536,20.650032 34.0806536,19.7296127 C34.0806536,18.6133481 34.6762825,17.7145096 35.8804887,17.7145096 C36.9293134,17.7145096 37.6290694,18.5615543 37.6290694,19.3783859 L37.6290694,19.895245 Z" id="Fill-85"></path>
                <path d="M17.5269729,32.4459113 L16.9059866,32.4459113 L16.9059866,32.3104921 C16.9059866,32.1729148 16.8719969,32.0531416 16.8050966,31.9527911 C16.7376567,31.8524405 16.6254368,31.8022653 16.4662787,31.8022653 C16.3815742,31.8022653 16.3114368,31.8184509 16.2569454,31.849743 C16.2013749,31.8810351 16.1592924,31.921499 16.1285399,31.9700557 C16.0977873,32.0202309 16.076746,32.0774199 16.0648766,32.1427017 C16.0524677,32.2069045 16.0459935,32.2754234 16.0459935,32.3455608 C16.0459935,32.4286467 16.0492306,32.4982447 16.0551653,32.5554337 C16.0611,32.6126227 16.076746,32.6611794 16.1010244,32.7038014 C16.1258423,32.7448048 16.160911,32.7809526 16.2078491,32.8122447 C16.2542478,32.8435368 16.3184505,32.8753684 16.3999179,32.9066605 L16.875234,33.0895574 C17.0128113,33.1408117 17.1250313,33.2017773 17.2108148,33.2697567 C17.2955192,33.3388151 17.3618801,33.4202825 17.4088182,33.5125402 C17.4552168,33.6047979 17.4865089,33.7110832 17.503234,33.8313959 C17.5188801,33.9517086 17.5269729,34.0887464 17.5269729,34.2419698 C17.5269729,34.4194715 17.5091687,34.5834852 17.4724814,34.73509 C17.4363337,34.8861553 17.3759076,35.0172584 17.2928216,35.1257017 C17.2097357,35.233066 17.0985948,35.3188495 16.9610175,35.3814337 C16.8223612,35.4456364 16.6534918,35.476389 16.4549488,35.476389 C16.3038835,35.476389 16.1641481,35.4510316 16.0341241,35.3997773 C15.9041,35.348523 15.7924196,35.2783856 15.6990828,35.190444 C15.605746,35.1014234 15.531832,34.9962172 15.476801,34.8742859 C15.4217701,34.7518151 15.3942546,34.619633 15.3942546,34.4788186 L15.3942546,34.2538392 L16.0163199,34.2538392 L16.0163199,34.4426708 C16.0163199,34.5527326 16.0492306,34.6525436 16.1161309,34.7410247 C16.1835708,34.8300454 16.2957907,34.8742859 16.4549488,34.8742859 C16.560155,34.8742859 16.6427014,34.8597189 16.7009694,34.8300454 C16.7603165,34.7998323 16.8050966,34.7582893 16.8358491,34.7054165 C16.8655227,34.6525436 16.8854849,34.5867223 16.8935777,34.5079526 C16.9016704,34.4291828 16.9059866,34.3423203 16.9059866,34.2479045 C16.9059866,34.1378426 16.9016704,34.0472034 16.8935777,33.9759869 C16.8854849,33.90531 16.8682203,33.848121 16.8412443,33.805499 C16.8153474,33.7612584 16.7786601,33.7256502 16.731722,33.6981347 C16.6847838,33.6711588 16.6227392,33.6414852 16.5461275,33.6096536 L16.1010244,33.4326914 C15.8328835,33.3264062 15.6532237,33.1855918 15.5615055,33.0107876 C15.4697873,32.8349045 15.4250072,32.6147808 15.4250072,32.3514955 C15.4250072,32.1944955 15.4471275,32.0445093 15.4919076,31.9026158 C15.5361481,31.7607223 15.6025089,31.6393306 15.689911,31.5362825 C15.7773131,31.4348529 15.8879144,31.3523065 16.0217151,31.2913409 C16.1555158,31.2298357 16.3125158,31.1996227 16.4916361,31.1996227 C16.645399,31.1996227 16.7867529,31.2271381 16.9146189,31.2821691 C17.0430244,31.3377395 17.1525467,31.4100351 17.2442649,31.5012137 C17.3354436,31.5918529 17.4050416,31.692743 17.4541378,31.8055024 C17.503234,31.9177223 17.5269729,32.0326399 17.5269729,32.1507945 L17.5269729,32.4459113 Z" id="Fill-86"></path>
                <polygon id="Fill-87" points="17.799268 35.4409966 18.4213333 35.4409966 18.4213333 34.8388935 17.799268 34.8388935"></polygon>
                <path d="M20.7767649,34.4959753 C20.7767649,34.6340921 20.750868,34.7614186 20.6974557,34.8801127 C20.6445828,34.9982674 20.5728268,35.1013155 20.4811086,35.1903361 C20.3893904,35.2782777 20.2825656,35.3484151 20.1611739,35.3996694 C20.0392426,35.4514632 19.9092186,35.4762811 19.7711017,35.4762811 C19.6329849,35.4762811 19.5029608,35.4514632 19.3810296,35.3996694 C19.2590983,35.3484151 19.1528131,35.2782777 19.0610948,35.1903361 C18.9693766,35.1013155 18.8976206,34.9982674 18.8442082,34.8801127 C18.7924144,34.7614186 18.7654385,34.6340921 18.7654385,34.4959753 L18.7654385,31.235123 L19.3869643,31.235123 L19.3869643,34.4371677 C19.3869643,34.5866144 19.4241911,34.6966763 19.4970261,34.7678928 C19.5698612,34.8385698 19.6615794,34.874178 19.7711017,34.874178 C19.8811636,34.874178 19.9723423,34.8385698 20.0451773,34.7678928 C20.1185519,34.6966763 20.1552392,34.5866144 20.1552392,34.4371677 L20.1552392,31.235123 L20.7767649,31.235123 L20.7767649,34.4959753 Z" id="Fill-88"></path>
                <polygon id="Fill-89" points="21.1173093 35.4409966 21.7388351 35.4409966 21.7388351 34.8388935 21.1173093 34.8388935"></polygon>
                <path d="M24.1574443,32.4459113 L23.5359186,32.4459113 L23.5359186,32.3104921 C23.5359186,32.1729148 23.5019289,32.0531416 23.435568,31.9527911 C23.3681282,31.8524405 23.2559082,31.8022653 23.0967502,31.8022653 C23.0120457,31.8022653 22.9419082,31.8184509 22.8874168,31.849743 C22.8323859,31.8810351 22.7892244,31.921499 22.7584718,31.9700557 C22.7287983,32.0202309 22.7072175,32.0774199 22.6948086,32.1427017 C22.6829392,32.2069045 22.6770045,32.2754234 22.6770045,32.3455608 C22.6770045,32.4286467 22.6797021,32.4982447 22.6850973,32.5554337 C22.6915715,32.6126227 22.7072175,32.6611794 22.7314959,32.7038014 C22.7552347,32.7448048 22.791922,32.7809526 22.8383206,32.8122447 C22.8852588,32.8435368 22.948922,32.8753684 23.0303893,32.9066605 L23.5057055,33.0895574 C23.6438223,33.1408117 23.7555027,33.2017773 23.8407467,33.2697567 C23.9254512,33.3388151 23.991812,33.4202825 24.0387502,33.5125402 C24.0856883,33.6047979 24.1169804,33.7110832 24.133166,33.8313959 C24.1493515,33.9517086 24.1574443,34.0887464 24.1574443,34.2419698 C24.1574443,34.4194715 24.1396402,34.5834852 24.1029529,34.73509 C24.0662656,34.8861553 24.006379,35.0172584 23.9227536,35.1257017 C23.8391282,35.233066 23.7285268,35.3188495 23.5909495,35.3814337 C23.4522931,35.4456364 23.2839632,35.476389 23.0848808,35.476389 C22.934355,35.476389 22.7946196,35.4510316 22.6645955,35.3997773 C22.534032,35.348523 22.4228911,35.2783856 22.3290148,35.190444 C22.235678,35.1014234 22.1617639,34.9962172 22.1061935,34.8742859 C22.0522416,34.7518151 22.0241866,34.619633 22.0241866,34.4788186 L22.0241866,34.2538392 L22.6462519,34.2538392 L22.6462519,34.4426708 C22.6462519,34.5527326 22.6797021,34.6525436 22.7471419,34.7410247 C22.8135027,34.8300454 22.9268017,34.8742859 23.0848808,34.8742859 C23.191166,34.8742859 23.2731729,34.8597189 23.3319804,34.8300454 C23.390788,34.7998323 23.435568,34.7582893 23.4663206,34.7054165 C23.4959942,34.6525436 23.5159564,34.5867223 23.5240491,34.5079526 C23.5316024,34.4291828 23.5359186,34.3423203 23.5359186,34.2479045 C23.5359186,34.1378426 23.5316024,34.0472034 23.5240491,33.9759869 C23.5159564,33.90531 23.4986918,33.848121 23.4717158,33.805499 C23.4463584,33.7612584 23.4085921,33.7256502 23.3621935,33.6981347 C23.3152553,33.6711588 23.2532107,33.6414852 23.176599,33.6096536 L22.7314959,33.4326914 C22.463355,33.3264062 22.2836952,33.1855918 22.191977,33.0107876 C22.1002588,32.8349045 22.0554787,32.6147808 22.0554787,32.3514955 C22.0554787,32.1944955 22.077599,32.0445093 22.122379,31.9026158 C22.1671591,31.7607223 22.2329804,31.6393306 22.3203825,31.5362825 C22.407245,31.4348529 22.5189254,31.3523065 22.6521866,31.2913409 C22.7865268,31.2298357 22.9429873,31.1996227 23.121568,31.1996227 C23.2758704,31.1996227 23.4172244,31.2271381 23.5450904,31.2821691 C23.6734959,31.3377395 23.7830182,31.4100351 23.8741969,31.5012137 C23.9659151,31.5918529 24.0349735,31.692743 24.0846093,31.8055024 C24.133166,31.9177223 24.1574443,32.0326399 24.1574443,32.1507945 L24.1574443,32.4459113 Z" id="Fill-90"></path>
                <polygon id="Fill-91" points="24.4299553 35.4409966 25.0514811 35.4409966 25.0514811 34.8388935 24.4299553 34.8388935"></polygon>
                <polygon id="Fill-92" points="25.6194866 31.8021034 24.8997684 31.8021034 24.8997684 31.2350691 26.9596515 31.2350691 26.9596515 31.8021034 26.2404729 31.8021034 26.2404729 35.4406189 25.6194866 35.4406189"></polygon>
                <polygon id="Fill-93" points="26.8081546 35.4409966 27.4291409 35.4409966 27.4291409 34.8388935 26.8081546 34.8388935"></polygon>
                <path d="M11.6491842,31.6698674 C11.4608921,31.8592385 11.1544454,31.858699 10.9645347,31.6693278 C10.7757031,31.4794172 10.7751636,31.17351 10.9639952,30.9846784 C11.1528268,30.7958467 11.4598131,30.7942282 11.6502632,30.9841388 C11.8390948,31.17351 11.8380158,31.4810357 11.6491842,31.6698674 M9.45603986,33.8635512 C9.26774777,34.0518433 8.96076151,34.0518433 8.7719299,33.8630117 C8.58255876,33.6736405 8.58201924,33.3671938 8.77085086,33.1778227 C8.95914296,32.9889911 9.26720825,32.9873725 9.45657938,33.1772832 C9.64595052,33.3666543 9.64487148,33.6747196 9.45603986,33.8635512 M10.6219402,30.6415443 C10.5253663,30.7375787 10.446057,30.8584309 10.3985794,30.9852179 C10.2836619,31.3688158 10.0700124,31.7189636 9.78892302,32.001132 C9.5056756,32.2822213 9.15606735,32.4964103 8.77300893,32.6107883 C8.64622199,32.6588055 8.52590928,32.7381148 8.42825636,32.8346887 C8.05005361,33.2134309 8.05005361,33.8268639 8.42825636,34.2056062 C8.80753814,34.5838089 9.42151065,34.5838089 9.7997134,34.2056062 L9.80025292,34.2045271 C9.89628729,34.1084928 9.97505704,33.9876405 10.0236137,33.8608536 C10.1374522,33.4783347 10.3521808,33.1281869 10.6332701,32.845479 C10.915978,32.5643897 11.2655863,32.3507402 11.6486447,32.2358227 C11.7748921,32.1878055 11.8957443,32.1090357 11.9923182,32.0130014 L11.9928577,32.0119223 C12.3710605,31.6337196 12.3710605,31.0197471 11.9928577,30.6415443 C11.614655,30.2628021 11.0006825,30.2628021 10.6219402,30.6415443" id="Fill-94"></path>
                <path d="M12.5967412,30.0376069 C12.4327275,29.8730536 12.3232052,29.6745107 12.2676347,29.4646378 C12.1829302,29.5871086 12.0874354,29.7025656 11.9827687,29.8072323 C11.8775625,29.9124385 11.762645,30.0068543 11.6407137,30.0920983 C11.8500471,30.1482082 12.04859,30.2566515 12.2131433,30.4217443 C12.377157,30.5857581 12.4861399,30.784301 12.5422498,30.9941739 C12.6269543,30.8711636 12.7219096,30.7567856 12.8265763,30.6521189 C12.932322,30.5463732 13.0467,30.4514179 13.1691708,30.3667134 C12.9592979,30.3106034 12.7612945,30.2021601 12.5967412,30.0376069" id="Fill-95"></path>
                <path d="M16.0359045,27.2836326 C15.8465333,27.4724643 15.5406261,27.4719247 15.351255,27.2830931 C15.1618838,27.093722 15.1618838,26.7872753 15.3507155,26.5979041 C15.5390076,26.4101515 15.8465333,26.407454 16.036444,26.5979041 C16.2258151,26.7867357 16.2247361,27.094801 16.0359045,27.2836326 M13.8427601,29.476777 C13.6539285,29.6656086 13.3474818,29.6650691 13.1575711,29.4762375 C12.9687395,29.2868663 12.9687395,28.9804196 13.1570316,28.791588 C13.3458632,28.6027564 13.6528495,28.6005983 13.8432997,28.791588 C14.0321313,28.9798801 14.0310522,29.2879454 13.8427601,29.476777 M15.008121,26.2553096 C14.9120866,26.3518835 14.8327773,26.4721962 14.7847601,26.5989832 C14.6703821,26.9815021 14.4556536,27.3321893 14.1756433,27.6154368 C13.8923959,27.8959866 13.5422481,28.1101756 13.1591897,28.2245536 C13.0324027,28.2725708 12.91209,28.3513405 12.8149766,28.4473749 C12.4367739,28.8266567 12.4367739,29.4395502 12.8149766,29.818832 C13.1937189,30.1970347 13.8076914,30.1970347 14.1858942,29.818832 L14.1869732,29.8182924 C14.2830076,29.7217186 14.3617773,29.6008663 14.409255,29.4746189 C14.5241725,29.0915605 14.7383615,28.7419522 15.0194509,28.4592443 C15.3021588,28.178155 15.6523065,27.9645055 16.0353649,27.849588 C16.1616124,27.8015708 16.2824646,27.7222615 16.378499,27.6273062 L16.379578,27.6256876 C16.7577808,27.2474849 16.7577808,26.6335124 16.379578,26.2553096 C16.0002962,25.8760278 15.3874027,25.8760278 15.008121,26.2553096" id="Fill-96"></path>
                <path d="M29.1959034,14.124389 C29.0065323,14.3126811 28.7000856,14.3126811 28.5101749,14.12331 C28.3218828,13.9339388 28.3218828,13.6274921 28.5101749,13.4386605 C28.6990065,13.2503684 29.0065323,13.2476708 29.196443,13.438121 C29.3858141,13.6269526 29.3841955,13.9350179 29.1959034,14.124389 M27.0022196,16.3169938 C26.813388,16.5063649 26.5069412,16.5052859 26.3170306,16.3164543 C26.1276595,16.1270832 26.1276595,15.8206364 26.3164911,15.6323443 C26.5047832,15.4429732 26.8128485,15.4408151 27.0027591,15.6312653 C27.1915907,15.8200969 27.1905117,16.1292412 27.0022196,16.3169938 M28.1681199,13.0949869 L28.1681199,13.0955265 C28.0720856,13.1921003 27.9927763,13.3129526 27.9447591,13.4392 C27.8303811,13.8217189 27.6161921,14.1724062 27.3351027,14.4551141 C27.0518553,14.7362034 26.7017076,14.9503924 26.3186491,15.0647704 C26.1918622,15.1127876 26.0715495,15.1920969 25.9744361,15.2881313 C25.5962333,15.6668735 25.5962333,16.280846 25.9744361,16.6590488 C26.3526388,17.0377911 26.9666113,17.0377911 27.3448141,16.6590488 L27.3464326,16.6585093 C27.442467,16.5619354 27.5217763,16.4410832 27.569254,16.3153753 C27.6841715,15.9323168 27.8983605,15.5816296 28.1789103,15.2994612 C28.4621577,15.0183718 28.811766,14.8041828 29.1953639,14.6898048 C29.3210718,14.6417876 29.4419241,14.5624784 29.5384979,14.4669835 L29.539577,14.466444 C29.9177797,14.0871622 29.9177797,13.4737292 29.539577,13.0949869 C29.1608347,12.7167842 28.5468622,12.7167842 28.1681199,13.0949869" id="Fill-97"></path>
                <path d="M30.1432447,12.491643 C29.9786914,12.3265502 29.8697086,12.1285467 29.8135986,11.9186739 C29.7294337,12.0411447 29.6339388,12.1560622 29.5287326,12.2607289 C29.424066,12.3659351 29.3086089,12.4614299 29.1866777,12.5455948 C29.396011,12.6017048 29.5950935,12.7106876 29.7591072,12.8752409 C29.9236605,13.0397942 30.0326433,13.2383371 30.0887533,13.4476704 C30.1729182,13.3257392 30.2684131,13.2108216 30.3736192,13.1056155 C30.4788254,13.0009488 30.593743,12.905454 30.7162137,12.8207495 C30.5063409,12.7646395 30.3072584,12.6556567 30.1432447,12.491643" id="Fill-98"></path>
                <path d="M33.5826777,9.73766873 C33.3933065,9.92650034 33.0868598,9.92596082 32.8969491,9.73712921 C32.708657,9.54721856 32.7081175,9.24077182 32.8969491,9.05194021 C33.0857808,8.86364811 33.392767,8.86095052 33.5832172,9.05140069 C33.7720488,9.24077182 33.7709698,9.54883711 33.5826777,9.73766873 M31.3889938,11.9308131 C31.2007017,12.1196447 30.894255,12.1191052 30.7043443,11.929734 C30.5149732,11.7409024 30.5144337,11.4339162 30.7038048,11.2456241 C30.8920969,11.0562529 31.1996227,11.0546344 31.3900729,11.2450845 C31.5789045,11.4339162 31.5778254,11.742521 31.3889938,11.9308131 M32.5548942,8.70880619 C32.4583203,8.80538007 32.3795505,8.9262323 32.3315333,9.05247973 C32.2166158,9.43607766 32.0024268,9.78568591 31.7213375,10.0683938 C31.4386296,10.3494832 31.0890213,10.5636722 30.7059629,10.6780502 C30.5791759,10.7260674 30.4588632,10.8053766 30.3617498,10.90249 C29.982468,11.2801533 29.982468,11.8941258 30.3617498,12.2723285 C30.7399526,12.6510708 31.3539251,12.6510708 31.7321278,12.2723285 L31.7326674,12.271789 C31.8297808,12.1752151 31.908011,12.0554419 31.9560282,11.928655 C32.0704062,11.5455966 32.2851347,11.1954488 32.565145,10.9127409 C32.848932,10.6316515 33.1980007,10.4180021 33.5810591,10.3030845 C33.7073065,10.2556069 33.8281588,10.1757581 33.9252722,10.0802632 L33.9258117,10.0797237 C34.3040144,9.70098144 34.3040144,9.08700893 33.9258117,8.70880619 C33.5476089,8.33060344 32.9336364,8.33060344 32.5548942,8.70880619" id="Fill-99"></path>
                <path d="M31.3903426,30.9848942 C31.5797137,31.1737258 31.5791742,31.479633 31.3898031,31.6695436 C31.200432,31.8589148 30.8939852,31.8589148 30.7046141,31.6700832 C30.5157825,31.4817911 30.5141639,31.1742653 30.7046141,30.9838151 C30.8939852,30.794444 31.201511,30.795523 31.3903426,30.9848942 M33.5834869,33.177499 C33.7723186,33.3668701 33.771779,33.6733168 33.5829474,33.8632275 C33.3941158,34.0520591 33.0871296,34.0520591 32.8988375,33.863767 C32.7094663,33.6743959 32.7078478,33.3674096 32.8972189,33.1769595 C33.0871296,32.9881278 33.3951948,32.9892069 33.5834869,33.177499 M30.3620196,32.0115986 C30.4585935,32.1092515 30.5789062,32.1874818 30.7056931,32.235499 C31.0887515,32.3504165 31.4388993,32.5646055 31.7210677,32.8451553 C32.0026966,33.1284027 32.216346,33.478011 32.3312636,33.8605299 C32.3792808,33.9878564 32.4580505,34.1081691 32.5546244,34.205822 C32.9333667,34.5840247 33.5473392,34.5840247 33.9255419,34.205822 C34.3037447,33.8270797 34.3037447,33.2136467 33.9255419,32.8349045 L33.9250024,32.8338254 C33.8284285,32.7372515 33.7081158,32.6590213 33.5813289,32.6110041 C33.1982704,32.4966261 32.8486622,32.2818976 32.5654148,32.0013478 C32.2848649,31.7186399 32.0712155,31.3690316 31.9562979,30.9854337 C31.9082808,30.8597258 31.829511,30.7388735 31.7329371,30.6422997 L31.7323976,30.6412206 C31.3541948,30.2624784 30.7402223,30.2624784 30.3620196,30.6412206 C29.9827378,31.0194234 29.9827378,31.6333959 30.3620196,32.0115986" id="Fill-100"></path>
                <path d="M29.7580821,30.0376069 C29.5929893,30.2021601 29.3949859,30.3106034 29.1851131,30.3667134 C29.3075838,30.4514179 29.4225014,30.5463732 29.5277076,30.6510399 C29.6323742,30.7567856 29.7273296,30.8711636 29.8125735,30.9941739 C29.8686835,30.784301 29.9776663,30.5857581 30.1416801,30.4217443 C30.3062333,30.2566515 30.5042368,30.1482082 30.7146491,30.0920983 C30.5921784,30.0068543 30.4772608,29.9124385 30.3720546,29.8072323 C30.2663089,29.7020261 30.1718931,29.5871086 30.0866491,29.4646378 C30.0310787,29.6745107 29.9226354,29.8730536 29.7580821,30.0376069" id="Fill-101"></path>
                <path d="M27.0030828,26.5981739 C27.192454,26.787545 27.192454,27.0939918 27.0025433,27.2833629 C26.8137117,27.4721945 26.5072649,27.4721945 26.3178938,27.2839024 C26.1296017,27.0950708 26.1274436,26.7880845 26.3173543,26.5976344 C26.5067254,26.4082632 26.8147907,26.4098818 27.0030828,26.5981739 M29.1967667,28.7913182 C29.3866773,28.9801498 29.3855983,29.2865966 29.1962271,29.4765072 C29.0073955,29.6653388 28.7004093,29.6658784 28.5121172,29.4770467 C28.322746,29.2882151 28.3211275,28.9806893 28.5104986,28.7913182 C28.7004093,28.6014076 29.0084746,28.6030261 29.1967667,28.7913182 M25.9747598,27.6254179 C26.0718732,27.7219918 26.1916464,27.801301 26.3184333,27.8493182 C26.7014918,27.9642357 27.052179,28.1784247 27.3348869,28.4589746 C27.6165158,28.742222 27.8301653,29.0912907 27.9445433,29.4743491 C27.9925605,29.6011361 28.0718698,29.7219883 28.1679041,29.8191017 C28.5471859,30.1973045 29.1606189,30.1973045 29.5393612,29.8191017 C29.9175639,29.4398199 29.9175639,28.8269265 29.5393612,28.4476447 L29.5382821,28.4476447 C29.4422478,28.3505313 29.3213955,28.2728405 29.1951481,28.2248234 C28.8120897,28.1104454 28.4619419,27.8957168 28.179234,27.6157065 C27.8981447,27.3319196 27.6844952,26.9817718 27.5701172,26.5992529 C27.5221,26.472466 27.4422512,26.3521533 27.3467564,26.2555794 L27.3451378,26.2550399 C26.9669351,25.8757581 26.3535021,25.8757581 25.9747598,26.2550399 C25.596557,26.6332426 25.596557,27.2472151 25.9747598,27.6254179" id="Fill-102"></path>
                <path d="M13.8438931,13.4384447 C14.0327247,13.6278158 14.0321852,13.9342625 13.8433536,14.1236337 C13.654522,14.3124653 13.3475357,14.3130048 13.1587041,14.1241732 C12.9698725,13.9353416 12.9677144,13.6283553 13.1576251,13.4379052 C13.3475357,13.2479945 13.655601,13.2501526 13.8438931,13.4384447 M16.037577,15.6321285 C16.2264086,15.8204206 16.2258691,16.1268674 16.0364979,16.316778 C15.8476663,16.5056096 15.5412196,16.5066887 15.3518485,16.3173175 C15.1635564,16.1290254 15.1613983,15.8209601 15.3513089,15.6310495 C15.5412196,15.4422179 15.8487454,15.4432969 16.037577,15.6321285 M12.8150306,14.4662282 C12.912144,14.5628021 13.0324567,14.6415718 13.1592436,14.689589 C13.5423021,14.803967 13.8924498,15.0186955 14.1756973,15.2992454 C14.4567866,15.5819533 14.6704361,15.932101 14.7848141,16.3151595 C14.8328313,16.4419464 14.9121405,16.5622591 15.0081749,16.6593725 C15.3874567,17.0381148 16.0014292,17.0381148 16.379632,16.6593725 C16.7578347,16.2811698 16.7578347,15.6671973 16.379632,15.288455 L16.3790924,15.2873759 C16.2825186,15.1913416 16.1616663,15.1131113 16.0354189,15.0650942 C15.6523605,14.9507162 15.3022127,14.7359876 15.0195048,14.4554378 C14.7384155,14.1721904 14.5242265,13.8220426 14.4093089,13.4395237 C14.3618313,13.3132763 14.2830615,13.1924241 14.1870271,13.0958502 L14.1859481,13.0947711 C13.8077454,12.7165684 13.1937729,12.7165684 12.8150306,13.0947711 C12.4368278,13.4735134 12.4368278,14.0869464 12.8150306,14.4662282" id="Fill-103"></path>
                <path d="M12.2113629,12.491643 C12.0473491,12.6556567 11.8488062,12.7646395 11.6383938,12.8207495 C11.7608646,12.905454 11.8757821,13.0004093 11.9809883,13.1056155 C12.0861945,13.2108216 12.1811498,13.3257392 12.2658543,13.4476704 C12.3219643,13.2383371 12.4309471,13.0397942 12.5955003,12.8752409 C12.7595141,12.7106876 12.9585966,12.6017048 13.1679299,12.5455948 C13.0459986,12.4614299 12.9310811,12.3659351 12.8258749,12.2607289 C12.7206687,12.1560622 12.6251739,12.0411447 12.5410089,11.9186739 C12.484899,12.1280072 12.3759162,12.3265502 12.2113629,12.491643" id="Fill-104"></path>
                <path d="M9.45765842,9.05167045 C9.64702955,9.24104158 9.64595052,9.54748832 9.45657938,9.73739897 C9.26774777,9.92569107 8.96130103,9.92623058 8.7719299,9.73739897 C8.58309828,9.54910687 8.58147973,9.2415811 8.7719299,9.05113093 C8.96076151,8.86229931 9.2688268,8.86337835 9.45765842,9.05167045 M11.6508027,11.2453543 C11.8401739,11.4336464 11.8390948,11.7406326 11.6502632,11.9300038 C11.4608921,12.1193749 11.1544454,12.1199144 10.9650742,11.9310828 C10.7767821,11.7422512 10.7751636,11.4352649 10.9645347,11.2448148 C11.1544454,11.0554436 11.4619711,11.0565227 11.6508027,11.2453543 M8.42879588,10.079454 C8.52590928,10.1760278 8.64622199,10.2547976 8.77300893,10.3028148 C9.15606735,10.4177323 9.5056756,10.6319213 9.78892302,10.9124711 C10.0700124,11.1957186 10.2836619,11.5453268 10.3985794,11.9283852 C10.4465966,12.0551722 10.5253663,12.1760244 10.6219402,12.2725983 C11.0006825,12.6513405 11.614655,12.6513405 11.9928577,12.2725983 C12.3710605,11.8943955 12.3710605,11.280423 11.9928577,10.9027598 L11.9923182,10.9011412 C11.8957443,10.8045674 11.7748921,10.7263371 11.6486447,10.6783199 C11.2655863,10.5639419 10.915978,10.3492134 10.6332701,10.0686636 C10.3521808,9.78541615 10.1374522,9.43634742 10.0236137,9.05274948 C9.97505704,8.92704158 9.89628729,8.80618935 9.80025292,8.70907595 L9.7997134,8.70853643 C9.42151065,8.33033368 8.80753814,8.33033368 8.42825636,8.70853643 C8.05005361,9.08673918 8.05005361,9.70071168 8.42879588,10.079454" id="Fill-105"></path>
                <path d="M21.1771419,40.1198663 C10.8696333,40.1198663 2.51410412,31.7648766 2.51410412,21.4568285 C2.51410412,11.1498595 10.8696333,2.7932512 21.1771419,2.7932512 C31.4846505,2.7932512 39.8396402,11.1498595 39.8396402,21.4568285 C39.8396402,31.7648766 31.4846505,40.1198663 21.1771419,40.1198663 M42.1093962,21.3192512 C42.1649667,21.3143955 42.2070491,21.2679969 42.2059701,21.212966 L42.1967983,20.6486292 C42.1962588,20.6049282 42.1682038,20.5660828 42.1272003,20.5509763 C41.904379,20.472746 41.1749495,20.1770897 41.1371832,19.6780347 C41.104812,19.2442615 41.3756505,18.9642512 41.9432244,18.845557 C41.9977158,18.8347667 42.0338636,18.7840519 42.0263103,18.729021 L41.9507777,18.1700794 C41.9453825,18.1258388 41.9124718,18.0907701 41.8698498,18.0810588 C41.6389357,18.0292649 40.8792931,17.8226292 40.7832588,17.331667 C40.7001729,16.9038285 40.9364821,16.5941447 41.4851729,16.4101687 C41.5375062,16.3918251 41.5666402,16.3367942 41.5536918,16.2833818 L41.4128773,15.7373887 C41.4020869,15.6953062 41.3653997,15.6634746 41.3216986,15.6586189 C41.0870079,15.6343405 40.3079426,15.5188835 40.1552588,15.0430278 C40.0209186,14.6286773 40.218922,14.292557 40.7427948,14.0443784 C40.7924306,14.0206395 40.8156299,13.962911 40.7956677,13.9111172 L40.59119,13.3850863 C40.575544,13.3446223 40.5366986,13.3176464 40.4929976,13.3176464 L40.4919186,13.3176464 L40.4557708,13.3187254 C40.1611935,13.3187254 39.4560423,13.2723268 39.2596574,12.8444883 C39.078379,12.4484814 39.2348395,12.0918595 39.7258017,11.7837942 C39.7722003,11.7546601 39.7889254,11.6936945 39.762489,11.6456773 L39.4975852,11.1471619 C39.476544,11.1083165 39.4333825,11.0867357 39.390221,11.0921309 C39.3076746,11.1034608 39.176032,11.1164093 39.0249667,11.1164093 C38.5669151,11.1164093 38.2512966,10.9960966 38.1110216,10.7673405 C37.8838842,10.395612 37.9977227,10.023344 38.448221,9.65916873 C38.4913825,9.62463952 38.5000148,9.56205533 38.4687227,9.51727526 L38.1460904,9.05436804 C38.121812,9.01768076 38.0764924,9.00041615 38.03441,9.01174605 C37.9124787,9.04303814 37.6713137,9.095911 37.4172003,9.095911 C37.0913309,9.095911 36.8587983,9.00958797 36.7255371,8.84071856 C36.4557777,8.49920309 36.5242966,8.11560515 36.9289357,7.7001756 C36.9677811,7.6602512 36.9688601,7.59820653 36.9327124,7.55720309 L36.5572072,7.13529931 C36.5286127,7.10238866 36.4816746,7.09105876 36.4412107,7.10724433 C36.3117261,7.15688007 35.9756058,7.27449519 35.6545921,7.27449519 C35.4220595,7.27449519 35.2429392,7.21299003 35.1210079,7.09159828 C34.8129426,6.78353299 34.8361419,6.39453986 35.1884478,5.93486976 C35.2224375,5.89116873 35.2165027,5.82858454 35.1744203,5.79243677 L34.753056,5.41801065 C34.7201454,5.38833711 34.6721282,5.38294192 34.6338223,5.40344364 C34.482757,5.48437148 34.0932244,5.6705055 33.7366024,5.6705055 C33.567733,5.6705055 33.4285371,5.62842302 33.3217124,5.54425808 C32.9791179,5.27503814 32.9564581,4.8855055 33.2515749,4.38806907 C33.2796299,4.34059141 33.2666814,4.27908625 33.2213619,4.24779416 L32.7573756,3.92570137 C32.7217674,3.90034399 32.6742897,3.90034399 32.6381419,3.92570137 C32.5102759,4.01418247 32.0640938,4.30390412 31.6718636,4.30390412 C31.5499323,4.30390412 31.4420285,4.27530962 31.3519289,4.22081821 C30.9791213,3.99314124 30.9100629,3.61008282 31.1452931,3.08081478 C31.1674134,3.0301 31.1474512,2.97075292 31.098355,2.94485601 L30.5998395,2.67995223 C30.5615337,2.658911 30.514056,2.6648457 30.4811454,2.69397973 C30.3500423,2.80997629 29.8919907,3.18979759 29.4792588,3.18979759 C29.3923962,3.18979759 29.3120079,3.17253299 29.2386333,3.13908282 C28.8426265,2.95780447 28.728788,2.58499691 28.8987364,2.03145052 C28.914922,1.97857766 28.887946,1.92192818 28.8372313,1.9025055 L28.3106608,1.69802784 C28.2701969,1.68238179 28.2232588,1.69263265 28.1941247,1.72608282 C28.0662588,1.87013436 27.615221,2.34113436 27.1809082,2.34113436 C27.1231797,2.34113436 27.0659907,2.33196254 27.0125784,2.31523746 C26.5971488,2.18197629 26.4401488,1.82481478 26.5442759,1.25508282 C26.5539873,1.20005189 26.5205371,1.14825808 26.4671247,1.13423058 L25.9205921,0.993416151 C25.8774306,0.982625773 25.83319,0.999350859 25.8078326,1.03549863 C25.6891385,1.20814467 25.2629186,1.76978385 24.8081041,1.76978385 C24.7735749,1.76978385 24.7390457,1.76600722 24.7055955,1.75953299 C24.2772175,1.67644708 24.0786746,1.34140584 24.1148223,0.763041581 C24.118599,0.707471134 24.0786746,0.658914433 24.0236436,0.651900687 L23.4647021,0.57690756 C23.4215405,0.570972852 23.378379,0.592553608 23.3573378,0.631938488 C23.2488945,0.836416151 22.8437158,1.51836804 22.3478979,1.48168076 C21.9135852,1.4487701 21.6767364,1.13962577 21.6443653,0.561261512 C21.6411282,0.505691065 21.5958086,0.462529553 21.5407777,0.461990034 L20.9284237,0.453897251 C20.8868808,0.453897251 20.8447983,0.479794158 20.8286127,0.521337113 C20.7444478,0.741460825 20.4288292,1.46333711 19.9292347,1.48653643 C19.4857502,1.50595911 19.2213859,1.23673918 19.1199564,0.657295876 C19.1097055,0.602804467 19.0600698,0.565577663 19.0050388,0.570972852 L18.4439392,0.63085945 C18.4002381,0.635175601 18.3635509,0.666467698 18.3527605,0.70962921 C18.2944924,0.938385223 18.0668155,1.69155361 17.5731557,1.7741 C17.1372244,1.84747457 16.8410285,1.6084677 16.6710801,1.04682852 C16.6548945,0.99395567 16.6009426,0.962663574 16.5469907,0.975072509 L15.9966814,1.10078041 C15.9540595,1.11049175 15.9216883,1.14556048 15.9157536,1.18980103 C15.8855405,1.42341271 15.7479632,2.19870137 15.2677914,2.33951581 C14.8491247,2.46144708 14.5178601,2.2537323 14.2864065,1.72392474 C14.2642863,1.67267045 14.2060182,1.6483921 14.1542244,1.66673574 L13.6233378,1.85664639 C13.5817948,1.87067388 13.5537399,1.91005876 13.5532003,1.95483883 C13.5505027,2.19006907 13.5062622,2.97614811 13.0455131,3.17253299 C12.644111,3.34302096 12.2912656,3.17630962 11.9977674,2.67725464 C11.9702519,2.62977698 11.9098258,2.61197285 11.8607296,2.6362512 L11.3552003,2.88766701 C11.3158155,2.90655017 11.2926162,2.94917216 11.2974718,2.9928732 C11.3228292,3.22756392 11.3713859,4.01364296 10.9376127,4.26236117 C10.8156814,4.33195911 10.6937502,4.36702784 10.575056,4.36702784 C10.3198636,4.36702784 10.0792381,4.21272543 9.83861271,3.89440928 C9.80462302,3.85070825 9.74365739,3.83991787 9.69725876,3.87067045 L9.22517973,4.17981478 C9.18795292,4.20355361 9.1701488,4.24833368 9.18039966,4.29095567 C9.23273299,4.52133024 9.37462646,5.29500034 8.97268488,5.59443333 C8.83726564,5.69424433 8.69699072,5.74549863 8.55347869,5.74549863 C8.3225646,5.74549863 8.0884134,5.6192512 7.83861615,5.35866357 C7.79977079,5.31927869 7.7371866,5.31604158 7.6945646,5.35164983 L7.26294948,5.71420653 C7.22842027,5.74226151 7.21655086,5.78812062 7.23111787,5.82966357 C7.31096667,6.05248488 7.54295979,6.80403471 7.17932405,7.1493268 C7.03635155,7.28420653 6.87773299,7.35272543 6.70724502,7.35272543 C6.49737216,7.35272543 6.27401134,7.25345395 6.02529313,7.04951581 C5.98213162,7.0149866 5.91954742,7.01822371 5.8817811,7.05922715 L5.49548557,7.46980103 C5.46581203,7.50217216 5.45879828,7.54964983 5.47768144,7.58903471 C5.58342715,7.80052612 5.90282234,8.52078385 5.58234811,8.90492131 C5.43721753,9.07918591 5.26079485,9.16766701 5.05847526,9.16766701 C4.86910412,9.16766701 4.66192887,9.09429244 4.42400103,8.94214811 C4.37760241,8.91247457 4.31609725,8.92434399 4.28372612,8.96912405 L3.94814536,9.42285945 C3.92224845,9.45792818 3.92116942,9.50594536 3.94490825,9.54263265 C4.0749323,9.74009656 4.47633436,10.4171928 4.20387732,10.8369385 C4.06090481,11.0576017 3.8720732,11.1655055 3.62605258,11.1655055 C3.45934124,11.1655055 3.27320722,11.1147907 3.05847869,11.0112031 C3.00884296,10.9874643 2.94895636,11.0058079 2.92144089,11.0543646 L2.64304914,11.5442478 C2.62092887,11.5825536 2.62524502,11.6305708 2.65383952,11.664021 C2.80598385,11.8452993 3.28507663,12.4695227 3.06387388,12.9178629 C2.93331031,13.1838457 2.71858179,13.3187254 2.42454399,13.3187254 C2.28265052,13.3187254 2.12672955,13.2890519 1.94760928,13.2275467 C1.89473643,13.2097426 1.83808694,13.2351 1.81596667,13.2863543 L1.59746151,13.8064505 C1.58019691,13.8469144 1.58990825,13.8933131 1.62227938,13.9235261 C1.79492543,14.0848423 2.34469519,14.6486395 2.17798385,15.120179 C2.03231375,15.5345296 1.67299416,15.6812787 1.10595979,15.5593474 C1.05146838,15.5469385 0.998056014,15.5803887 0.982949485,15.632722 L0.827028522,16.175478 C0.814619588,16.217021 0.830265636,16.2628801 0.865873883,16.288777 C1.05578454,16.4285124 1.66759897,16.9237907 1.55861615,17.4115158 C1.46258179,17.8398938 1.11782921,18.0276464 0.545939175,17.974234 C0.491447766,17.9688388 0.441272509,18.0076842 0.432100687,18.0616361 L0.341461512,18.6184196 C0.334447766,18.6626601 0.354949485,18.7052821 0.393255326,18.7274024 C0.598812027,18.843399 1.26565739,19.2626052 1.21494261,19.7600416 C1.17016254,20.1943543 0.854004467,20.4225708 0.275100687,20.4382168 C0.220069759,20.4392959 0.175289691,20.4835364 0.173131615,20.5385674 L0.148853265,21.1023646 C0.146695189,21.1460656 0.172592096,21.1865296 0.213056014,21.2032546 C0.430482131,21.2949729 1.14210756,21.6321722 1.15020034,22.1323062 C1.15775361,22.5682375 0.870729553,22.8320622 0.297760481,22.9173062 C0.243269072,22.9248595 0.203884192,22.9739557 0.207660825,23.0284471 L0.250822337,23.5911653 C0.25405945,23.6354058 0.284272509,23.6726326 0.326894502,23.6845021 C0.552952921,23.7497838 1.29964708,24.0006601 1.36708694,24.4959385 C1.42643402,24.9275536 1.17232062,25.2237495 0.612839519,25.3758938 C0.559966667,25.3904608 0.526516495,25.4438732 0.537846392,25.4972856 L0.645750172,26.0513715 C0.654382474,26.0939935 0.688911684,26.1274436 0.732073196,26.1344574 C0.966224399,26.1722237 1.73611787,26.3330003 1.86182577,26.8174883 C1.97134811,27.2388526 1.75446151,27.563643 1.21656117,27.77999 C1.16584639,27.8010313 1.13994948,27.8571412 1.15667457,27.9094746 L1.32986014,28.4462959 C1.34334811,28.4878388 1.38165395,28.5169729 1.42643402,28.5196704 C1.66166426,28.5288423 2.44450619,28.5952031 2.62740309,29.064045 C2.78656117,29.4697632 2.60905945,29.8161344 2.10137216,30.0961447 C2.05281546,30.1225811 2.03339278,30.1824677 2.0565921,30.2321034 L2.29182234,30.7451859 C2.3107055,30.7851103 2.35170893,30.8093887 2.39540997,30.805612 C2.44126907,30.8023749 2.51572268,30.7985983 2.6047433,30.7985983 C2.9845646,30.7985983 3.47390825,30.8687357 3.65410756,31.2043165 C3.85912474,31.588454 3.72424502,31.9537082 3.2527055,32.2919866 C3.20846495,32.3238182 3.19551649,32.3847838 3.22465052,32.431722 L3.51922784,32.9135124 C3.54188763,32.9507392 3.58612818,32.9701619 3.62928969,32.96099 C3.72586357,32.9421069 3.9206299,32.9102753 4.1348189,32.9102753 C4.52165395,32.9102753 4.78763677,33.0106258 4.92521409,33.2080897 C5.17447182,33.5652512 5.08437216,33.944533 4.65599416,34.3346052 C4.61553024,34.371832 4.61013505,34.4344162 4.64412474,34.4775777 L4.99373299,34.9205227 C5.02124845,34.9550519 5.06710756,34.9696189 5.10865052,34.9555914 C5.22410756,34.9183646 5.52408007,34.8320416 5.82027595,34.8320416 C6.09435155,34.8320416 6.29775017,34.9043371 6.42561615,35.0478491 C6.7153378,35.3726395 6.67001821,35.7600141 6.29127595,36.1981034 C6.25512818,36.2407254 6.25728625,36.3027701 6.29613162,36.3416155 L6.6953756,36.7397804 C6.7266677,36.771612 6.77414536,36.7802443 6.81353024,36.7613612 C6.95596323,36.6960794 7.32175704,36.5444746 7.66273299,36.5444746 C7.85965739,36.5444746 8.01827595,36.5957289 8.13211443,36.6966189 C8.45852337,36.985801 8.45906289,37.3753337 8.13535155,37.8555055 C8.10405945,37.9019041 8.11377079,37.9628698 8.15747182,37.9968595 L8.60041684,38.3453887 C8.63548557,38.3729041 8.68350275,38.3756017 8.72072955,38.3524024 C8.87934811,38.2558285 9.2872244,38.0297701 9.65733436,38.0297701 C9.80084639,38.0297701 9.92331718,38.0642993 10.0220491,38.1322787 C10.3802897,38.3804574 10.4272278,38.767832 10.1617845,39.282533 C10.1364271,39.3316292 10.1531522,39.3920553 10.2006299,39.4206498 L10.6824203,39.7152271 C10.7196471,39.7373474 10.7676643,39.7346498 10.802733,39.7071344 C10.9322175,39.6046258 11.387032,39.2701241 11.7900526,39.2701241 C11.8931007,39.2701241 11.986977,39.2927838 12.0679048,39.3354058 C12.4531213,39.539344 12.545379,39.9175467 12.3425199,40.4608423 C12.3236368,40.5126361 12.3473756,40.5698251 12.3980904,40.5930244 L12.9106333,40.8277151 C12.9505577,40.8460588 12.9974959,40.8374265 13.028788,40.8061344 C13.158812,40.6761103 13.6163241,40.2504299 14.0393069,40.2504299 C14.1110629,40.2504299 14.1795818,40.2628388 14.2427055,40.2871172 C14.6484237,40.4441172 14.784922,40.808832 14.6484237,41.3715502 C14.6354753,41.4260416 14.6656883,41.4799935 14.7185612,41.4972581 L15.2553825,41.6699041 C15.2974649,41.6828526 15.3433241,41.6693646 15.3703,41.6348354 C15.4949289,41.4762168 15.9351763,40.9588182 16.3786608,40.9588182 C16.4250595,40.9588182 16.470379,40.9642134 16.5140801,40.9755433 C16.9359838,41.0834471 17.1151041,41.4298182 17.0455062,42.0049454 C17.039032,42.0599763 17.0751797,42.1101515 17.1296711,42.1209419 L17.6832175,42.2283062 C17.726379,42.2369385 17.7706196,42.2175158 17.7938189,42.1797495 C17.9065784,41.9936155 18.3128361,41.3861172 18.780599,41.3861172 C18.8037983,41.3861172 18.8280766,41.3877357 18.8507364,41.3904333 C19.2823515,41.4470828 19.5013962,41.7707942 19.5003172,42.3496979 C19.4997777,42.4052684 19.5429392,42.4511275 19.5979701,42.4543646 L20.1601488,42.4959076 L20.1682416,42.4959076 C20.2087055,42.4959076 20.2464718,42.4727082 20.2637364,42.4354814 C20.3608498,42.221832 20.7169323,41.5258526 21.2116711,41.5258526 L21.2203034,41.5258526 C21.6562347,41.5317873 21.9108876,41.8269041 21.9783275,42.4020313 C21.9848017,42.4570622 22.0333584,42.4991447 22.0878498,42.4948285 L22.6511076,42.4694711 C22.6948086,42.4673131 22.7331144,42.438179 22.7466024,42.3966361 C22.8183584,42.1716567 23.091355,41.4330553 23.5887914,41.380722 C24.0301179,41.3343234 24.3101282,41.5889763 24.4455474,42.1608663 C24.4584959,42.2148182 24.5097502,42.2493474 24.5658601,42.2407151 L25.1215646,42.1484574 C25.1647261,42.1409041 25.1992553,42.107454 25.2078876,42.0642924 C25.2521282,41.8328388 25.4366436,41.0672615 25.9238292,40.9566601 C26.3549048,40.8584677 26.6651282,41.0796704 26.8669082,41.6294402 C26.8863309,41.6817735 26.9424409,41.7098285 26.9953137,41.6941825 L27.5369907,41.5371825 C27.5801522,41.5247735 27.6092863,41.4875467 27.6130629,41.4438457 C27.6292485,41.2086155 27.7215062,40.4257735 28.1935852,40.2585227 C28.6030801,40.1123131 28.9467536,40.2989866 29.2094993,40.8163852 C29.2337777,40.8654814 29.2925852,40.8865227 29.3438395,40.8654814 L29.8633962,40.6453577 C29.9038601,40.6275536 29.9292175,40.5870897 29.927599,40.5439282 C29.9168086,40.3076189 29.9157296,39.5204608 30.3635302,39.2987186 C30.7536024,39.1039522 31.1156196,39.2490828 31.4382519,39.7308732 C31.4690045,39.7767323 31.5305096,39.7918388 31.5779873,39.7637838 L32.0673309,39.4837735 C32.1056368,39.4621928 32.125599,39.4184918 32.1191247,39.3753302 C32.0797399,39.1422581 31.9864031,38.3610347 32.4045302,38.0869591 C32.5340148,38.0027942 32.6651179,37.9601722 32.796221,37.9601722 C33.0390045,37.9601722 33.2769323,38.1009866 33.5229529,38.3901687 C33.5596402,38.4322512 33.6216849,38.4392649 33.6664649,38.4063543 L34.1185818,38.0707735 C34.15419,38.0437976 34.1698361,37.998478 34.1574271,37.9563955 C34.0910663,37.7297976 33.9049323,36.9642203 34.2890698,36.6432065 C34.4288052,36.5261309 34.5787914,36.4667838 34.7341729,36.4667838 C34.9559151,36.4667838 35.1841316,36.5795433 35.4350079,36.8120759 C35.4754718,36.8493027 35.5385955,36.8493027 35.5790595,36.8104574 L35.9890938,36.4241619 C36.0203859,36.3939488 36.0306368,36.3470107 36.0133722,36.3065467 C35.9211144,36.0891206 35.6464993,35.3515983 35.9896333,34.987423 C36.1342244,34.8325811 36.3020148,34.7548904 36.4865302,34.7548904 C36.6861522,34.7548904 36.9019598,34.8417529 37.1474409,35.0187151 C37.1911419,35.0516258 37.2537261,35.043533 37.2898739,35.0014505 L37.6513515,34.5682168 C37.678867,34.5347667 37.6831832,34.487289 37.6610629,34.4484436 C37.5434478,34.2434265 37.1835887,33.54421 37.4808636,33.1411893 C37.6281522,32.9431859 37.807812,32.8471515 38.0311729,32.8471515 C38.2097536,32.8471515 38.4072175,32.9091962 38.635434,33.0359832 C38.6839907,33.0634986 38.7444168,33.0483921 38.7751694,33.0019935 L39.0821557,32.5299144 C39.106434,32.4921481 39.1048155,32.4441309 39.078379,32.4096017 C38.9375646,32.2191515 38.4973172,31.5663337 38.7454959,31.1331 C38.8846918,30.8886979 39.0826952,30.7700038 39.3513756,30.7700038 C39.506757,30.7700038 39.6788636,30.8093887 39.8784856,30.8919351 C39.9292003,30.9129763 39.9885474,30.890856 40.0128258,30.8406808 L40.262623,30.3351515 C40.2820457,30.2957667 40.2744924,30.248289 40.2437399,30.2164574 C40.0818842,30.0448904 39.5671832,29.448722 39.762489,28.9885124 C39.8849598,28.6966326 40.1115577,28.549344 40.4363481,28.549344 C40.5631351,28.549344 40.7012519,28.5709247 40.8587914,28.6146258 C40.9122038,28.6297323 40.9677742,28.6005983 40.9861179,28.5488045 L41.17441,28.0168388 C41.188977,27.9758354 41.176568,27.9294368 41.1425784,27.9013818 C40.9607605,27.749777 40.3802381,27.2188904 40.5188945,26.7387186 C40.6408258,26.3162753 40.9931316,26.1495639 41.5639426,26.2385845 C41.6178945,26.2461378 41.6702278,26.2116086 41.6820973,26.1571172 L41.8067261,25.6073474 C41.8158979,25.5641859 41.7975543,25.5194058 41.7614065,25.4962065 C41.5634031,25.3672615 40.9229942,24.90921 41.003922,24.4150107 C41.0719014,24.0028182 41.375111,23.7934849 41.9054581,23.7934849 C41.9302759,23.7934849 41.9561729,23.7934849 41.9820698,23.7945639 C42.0344031,23.796722 42.0851179,23.7557186 42.0910526,23.7006876 L42.1493206,23.1390485 C42.1530973,23.0958869 42.1298979,23.054344 42.0905131,23.0343818 C41.8790216,22.9302546 41.188977,22.5509729 41.2110973,22.0508388 C41.2299804,21.6154471 41.532111,21.3694265 42.1093962,21.3192512" id="Fill-106"></path>
            </g>
        </g>
    </g>
</svg>